<svg width="1940" height="343" viewBox="0 0 1940 343" fill="none" xmlns="http://www.w3.org/2000/svg">
<g clip-path="url(#clip0_443_857)">
<rect width="1940" height="343" fill="white"/>
<rect x="-3.8999" width="80.3148" height="20.5514" rx="3" fill="#E14646" fill-opacity="0.3"/>
<path d="M3.75297 14V3.81818H7.19332C7.98877 3.81818 8.64171 3.95407 9.15212 4.22585C9.66254 4.49432 10.0404 4.86387 10.2856 5.33452C10.5309 5.80516 10.6535 6.34044 10.6535 6.94034C10.6535 7.54025 10.5309 8.07221 10.2856 8.53622C10.0404 9.00024 9.6642 9.36482 9.15709 9.62997C8.64999 9.89181 8.00203 10.0227 7.2132 10.0227H4.42911V8.90909H7.17343C7.71699 8.90909 8.15449 8.82955 8.48593 8.67045C8.82068 8.51136 9.06263 8.28598 9.21178 7.99432C9.36424 7.69934 9.44047 7.34801 9.44047 6.94034C9.44047 6.53267 9.36424 6.17637 9.21178 5.87145C9.05932 5.56652 8.81571 5.3312 8.48096 5.16548C8.1462 4.99645 7.70373 4.91193 7.15354 4.91193H4.98593V14H3.75297ZM8.54559 9.42614L11.0513 14H9.61945L7.15354 9.42614H8.54559ZM15.6686 14.1591C14.9328 14.1591 14.2981 13.9967 13.7645 13.6719C13.2342 13.3438 12.8249 12.8864 12.5365 12.2997C12.2515 11.7098 12.109 11.0237 12.109 10.2415C12.109 9.45928 12.2515 8.76989 12.5365 8.1733C12.8249 7.57339 13.2259 7.10606 13.7397 6.77131C14.2567 6.43324 14.8599 6.2642 15.5493 6.2642C15.947 6.2642 16.3398 6.33049 16.7276 6.46307C17.1154 6.59564 17.4684 6.81108 17.7865 7.10938C18.1047 7.40436 18.3583 7.79545 18.5472 8.28267C18.7361 8.76989 18.8306 9.36979 18.8306 10.0824V10.5795H12.9442V9.56534H17.6374C17.6374 9.13447 17.5512 8.75 17.3789 8.41193C17.2098 8.07386 16.9679 7.80705 16.653 7.61151C16.3415 7.41596 15.9736 7.31818 15.5493 7.31818C15.082 7.31818 14.6776 7.43419 14.3362 7.66619C13.9982 7.89489 13.738 8.19318 13.5557 8.56108C13.3734 8.92898 13.2823 9.32339 13.2823 9.74432V10.4205C13.2823 10.9972 13.3817 11.486 13.5806 11.8871C13.7827 12.2848 14.0628 12.5881 14.4208 12.7969C14.7787 13.0024 15.1947 13.1051 15.6686 13.1051C15.9769 13.1051 16.2553 13.062 16.5039 12.9759C16.7558 12.8864 16.9728 12.7538 17.1551 12.5781C17.3374 12.3991 17.4783 12.1771 17.5777 11.9119L18.7112 12.2301C18.5919 12.6146 18.3914 12.9527 18.1097 13.2443C17.828 13.5327 17.48 13.758 17.0657 13.9205C16.6514 14.0795 16.1857 14.1591 15.6686 14.1591ZM23.4989 14.1591C22.8625 14.1591 22.3007 13.9983 21.8135 13.6768C21.3263 13.352 20.9451 12.8946 20.6701 12.3047C20.395 11.7114 20.2574 11.0104 20.2574 10.2017C20.2574 9.39962 20.395 8.7036 20.6701 8.11364C20.9451 7.52367 21.328 7.06794 21.8185 6.74645C22.309 6.42495 22.8758 6.2642 23.5188 6.2642C24.0159 6.2642 24.4087 6.34706 24.697 6.51278C24.9887 6.67519 25.2108 6.8608 25.3632 7.0696C25.519 7.27509 25.64 7.44413 25.7262 7.5767H25.8256V3.81818H26.9989V14H25.8654V12.8267H25.7262C25.64 12.9659 25.5174 13.1416 25.3583 13.3537C25.1992 13.5625 24.9721 13.7498 24.6772 13.9155C24.3822 14.0779 23.9894 14.1591 23.4989 14.1591ZM23.658 13.1051C24.1286 13.1051 24.5264 12.9825 24.8512 12.7372C25.176 12.4886 25.4229 12.1456 25.5919 11.7081C25.761 11.2673 25.8455 10.7585 25.8455 10.1818C25.8455 9.61174 25.7626 9.11293 25.5969 8.68537C25.4312 8.2545 25.1859 7.91974 24.8611 7.68111C24.5363 7.43916 24.1353 7.31818 23.658 7.31818C23.1608 7.31818 22.7465 7.44579 22.4151 7.70099C22.087 7.95289 21.84 8.29593 21.6743 8.73011C21.5119 9.16098 21.4307 9.64489 21.4307 10.1818C21.4307 10.7254 21.5136 11.2192 21.6793 11.6634C21.8483 12.1042 22.0969 12.4555 22.425 12.7173C22.7565 12.9759 23.1675 13.1051 23.658 13.1051ZM36.5692 6.36364V7.35795H32.6118V6.36364H36.5692ZM33.7652 4.53409H34.9385V11.8125C34.9385 12.1439 34.9866 12.3925 35.0827 12.5582C35.1821 12.7206 35.3081 12.83 35.4605 12.8864C35.6163 12.9394 35.7804 12.9659 35.9527 12.9659C36.082 12.9659 36.188 12.9593 36.2709 12.946C36.3538 12.9295 36.4201 12.9162 36.4698 12.9062L36.7084 13.9602C36.6289 13.9901 36.5178 14.0199 36.3753 14.0497C36.2328 14.0829 36.0522 14.0994 35.8334 14.0994C35.502 14.0994 35.1772 14.0282 34.859 13.8857C34.5441 13.7431 34.2823 13.526 34.0735 13.2344C33.868 12.9427 33.7652 12.5748 33.7652 12.1307V4.53409ZM40.5813 14.179C40.0974 14.179 39.6582 14.0878 39.2638 13.9055C38.8694 13.7199 38.5562 13.4531 38.3242 13.1051C38.0922 12.7538 37.9762 12.3295 37.9762 11.8324C37.9762 11.3949 38.0623 11.0402 38.2347 10.7685C38.407 10.4934 38.6374 10.2779 38.9257 10.1222C39.2141 9.96638 39.5323 9.85038 39.8803 9.77415C40.2316 9.6946 40.5846 9.63163 40.9392 9.58523C41.4032 9.52557 41.7794 9.48082 42.0678 9.45099C42.3594 9.41785 42.5716 9.36316 42.7041 9.28693C42.84 9.2107 42.908 9.07812 42.908 8.8892V8.84943C42.908 8.3589 42.7737 7.97775 42.5053 7.70597C42.2401 7.43419 41.8374 7.2983 41.2972 7.2983C40.7371 7.2983 40.2979 7.42093 39.9797 7.66619C39.6615 7.91146 39.4378 8.1733 39.3085 8.4517L38.1949 8.05398C38.3938 7.58996 38.6589 7.22869 38.9904 6.97017C39.3251 6.70833 39.6897 6.52604 40.0841 6.4233C40.4818 6.31723 40.8729 6.2642 41.2574 6.2642C41.5027 6.2642 41.7844 6.29403 42.1026 6.35369C42.4241 6.41004 42.734 6.5277 43.0323 6.70668C43.3339 6.88565 43.5841 7.15578 43.783 7.51705C43.9818 7.87831 44.0813 8.36222 44.0813 8.96875V14H42.908V12.9659H42.8483C42.7688 13.1316 42.6362 13.3089 42.4506 13.4979C42.265 13.6868 42.0181 13.8475 41.7098 13.9801C41.4016 14.1127 41.0254 14.179 40.5813 14.179ZM40.7603 13.125C41.2243 13.125 41.6154 13.0339 41.9335 12.8516C42.255 12.6693 42.497 12.4339 42.6594 12.1456C42.8251 11.8572 42.908 11.554 42.908 11.2358V10.1619C42.8583 10.2216 42.7489 10.2763 42.5799 10.326C42.4141 10.3724 42.2219 10.4138 42.0032 10.4503C41.7877 10.4834 41.5773 10.5133 41.3718 10.5398C41.1696 10.563 41.0055 10.5829 40.8796 10.5994C40.5746 10.6392 40.2896 10.7038 40.0245 10.7933C39.7626 10.8795 39.5505 11.0104 39.3881 11.1861C39.229 11.3584 39.1495 11.5937 39.1495 11.892C39.1495 12.2997 39.3003 12.608 39.6019 12.8168C39.9068 13.0223 40.2929 13.125 40.7603 13.125ZM49.3052 17.0227C48.7384 17.0227 48.2512 16.9498 47.8435 16.804C47.4359 16.6615 47.0961 16.4725 46.8244 16.2372C46.5559 16.0052 46.3421 15.7566 46.183 15.4915L47.1177 14.8352C47.2237 14.9744 47.358 15.1335 47.5204 15.3125C47.6828 15.4948 47.9048 15.6522 48.1866 15.7848C48.4716 15.9207 48.8445 15.9886 49.3052 15.9886C49.9217 15.9886 50.4304 15.8395 50.8315 15.5412C51.2325 15.2429 51.433 14.7756 51.433 14.1392V12.5881H51.3336C51.2474 12.7273 51.1248 12.8996 50.9657 13.1051C50.8099 13.3073 50.5845 13.4879 50.2896 13.647C49.9979 13.8028 49.6035 13.8807 49.1063 13.8807C48.4898 13.8807 47.9363 13.7348 47.4458 13.4432C46.9586 13.1515 46.5725 12.7273 46.2874 12.1705C46.0057 11.6136 45.8648 10.9375 45.8648 10.142C45.8648 9.35985 46.0024 8.67874 46.2775 8.09872C46.5526 7.51539 46.9354 7.06463 47.4259 6.74645C47.9164 6.42495 48.4832 6.2642 49.1262 6.2642C49.6234 6.2642 50.0178 6.34706 50.3094 6.51278C50.6044 6.67519 50.8298 6.8608 50.9856 7.0696C51.1447 7.27509 51.2673 7.44413 51.3535 7.5767H51.4728V6.36364H52.6063V14.2188C52.6063 14.875 52.4572 15.4086 52.1589 15.8196C51.8639 16.2339 51.4662 16.5372 50.9657 16.7294C50.4685 16.925 49.915 17.0227 49.3052 17.0227ZM49.2654 12.8267C49.736 12.8267 50.1338 12.719 50.4586 12.5036C50.7834 12.2881 51.0303 11.9782 51.1994 11.5739C51.3684 11.1695 51.4529 10.6856 51.4529 10.1222C51.4529 9.57197 51.37 9.08641 51.2043 8.66548C51.0386 8.24455 50.7933 7.91477 50.4685 7.67614C50.1437 7.4375 49.7427 7.31818 49.2654 7.31818C48.7682 7.31818 48.3539 7.44413 48.0225 7.69602C47.6944 7.94792 47.4475 8.28598 47.2817 8.71023C47.1193 9.13447 47.0381 9.60511 47.0381 10.1222C47.0381 10.6525 47.121 11.1214 47.2867 11.5291C47.4557 11.9335 47.7043 12.2517 48.0324 12.4837C48.3639 12.7124 48.7749 12.8267 49.2654 12.8267Z" fill="#37352F"/>
<path d="M-4 0H1944V343H-4V0Z" fill="#CCFFE2"/>
<path fill-rule="evenodd" clip-rule="evenodd" d="M1943.55 237.166V343H475.379C535.532 293.689 599.915 248.214 668.419 207.174C1082.63 -40.9782 1540.57 29.3675 1943.55 237.166Z" fill="#FFECEA"/>
<path fill-rule="evenodd" clip-rule="evenodd" d="M1373.87 169.08C1373.93 113.585 1408.92 58.5252 1467.21 46.2886C1518.96 35.4249 1554.8 83.747 1584.16 124.933C1611.76 163.654 1640.07 210.579 1611.16 248.223C1579.64 289.281 1518.29 294.69 1466.96 277.572C1415.17 260.296 1373.82 220.063 1373.87 169.08Z" fill="#0018A4"/>
<path fill-rule="evenodd" clip-rule="evenodd" d="M135.668 64.0355C166.613 63.0843 197.932 81.711 205.784 114.146C212.755 142.942 186.443 163.876 163.996 181.054C142.892 197.204 117.226 213.893 95.7253 198.369C72.2753 181.438 68.1762 147.165 76.8156 118.11C85.5343 88.7876 107.239 64.9093 135.668 64.0355Z" fill="white"/>
<rect x="-4" width="1944" height="100" fill="#0018A4"/>
<path d="M-36.3286 62H-36.9846L-42.8886 46.871V62H-43.5446V39.532H-48.4646V62H-49.1206V33.3H-39.9776C-34.7296 33.3 -30.5476 37.482 -30.5476 42.73C-30.5476 46.912 -32.6386 49.372 -35.0576 50.889L-30.7526 62H-31.4086L-35.5906 51.217C-36.7796 51.914 -38.4606 52.529 -39.8546 52.939L-36.3286 62ZM-37.2306 45.313L-35.3036 50.274C-33.0896 48.88 -31.2036 46.584 -31.2036 42.73C-31.2036 37.81 -35.0576 33.956 -39.9776 33.956H-42.8886V38.876H-39.9776C-37.8456 38.876 -36.1236 40.598 -36.1236 42.73C-36.1236 43.714 -36.4926 44.575 -37.2306 45.313ZM-42.8886 39.532V46.871L-41.3306 46.543C-38.1326 45.846 -36.7796 44.493 -36.7796 42.73C-36.7796 40.926 -38.1736 39.532 -39.9776 39.532H-42.8886ZM-48.4646 33.956V38.876H-43.5446V33.956H-48.4646ZM-35.8366 50.602L-37.7226 45.764C-38.9526 46.707 -40.3876 47.035 -41.9866 47.363L-40.1006 52.283C-38.8706 51.955 -36.8616 51.217 -35.8366 50.602ZM-29.0623 51.135C-29.0623 44.862 -23.9783 39.778 -17.7053 39.778C-12.7033 39.778 -8.48034 42.976 -6.96334 47.486L-20.2883 55.563C-19.5093 56.014 -18.6483 56.26 -17.7053 56.26C-15.6553 56.26 -13.8923 55.03 -13.0723 53.308L-12.4573 53.595C-13.3593 55.563 -15.3683 56.916 -17.7053 56.916C-18.8943 56.916 -20.0013 56.547 -20.9033 55.932L-25.3313 58.638C-23.4043 60.606 -20.6983 61.836 -17.7053 61.836C-13.4413 61.836 -9.71034 59.294 -7.98834 55.645L-7.41434 55.932C-9.21834 59.827 -13.1543 62.492 -17.7053 62.492C-23.9783 62.492 -29.0623 57.408 -29.0623 51.135ZM-28.4063 51.135C-28.4063 52.324 -28.2013 53.431 -27.8733 54.497L-23.4453 51.791C-23.4863 51.586 -23.4863 51.34 -23.4863 51.135C-23.4863 47.937 -20.9033 45.354 -17.7053 45.354C-16.5163 45.354 -15.3683 45.723 -14.4663 46.338L-10.0793 43.673C-12.0063 41.664 -14.7123 40.434 -17.7053 40.434C-23.6093 40.434 -28.4063 45.231 -28.4063 51.135ZM-27.6273 55.112C-27.1763 56.219 -26.5613 57.244 -25.7823 58.146L-21.4773 55.522C-22.3793 54.743 -23.0353 53.677 -23.3223 52.488L-27.6273 55.112ZM-22.8303 51.135V51.422L-15.0813 46.707C-15.8603 46.256 -16.7623 46.01 -17.7053 46.01C-20.5343 46.01 -22.8303 48.306 -22.8303 51.135ZM-22.7483 52.16C-22.5023 53.349 -21.8053 54.415 -20.8623 55.153L-12.6623 50.151C-12.9083 48.962 -13.5643 47.896 -14.5073 47.117L-22.7483 52.16ZM-13.8923 46.789C-12.9903 47.568 -12.3343 48.593 -12.0883 49.823L-7.74234 47.158C-8.19334 46.051 -8.84934 45.067 -9.58734 44.165L-13.8923 46.789ZM10.938 42.115V60.155C13.685 58.474 15.858 55.071 15.858 51.135C15.858 47.199 13.685 43.796 10.938 42.115ZM5.15697 39.778C7.00197 39.778 8.72397 40.229 10.282 41.008V40.27H10.938V41.377C13.234 42.648 14.997 44.944 15.858 47.322V40.27H16.514V62H15.858V54.907C15.038 57.244 13.234 59.663 10.938 60.934V62H10.282V61.262C8.72397 62.041 7.00197 62.492 5.15697 62.492C-1.11603 62.492 -6.20004 57.408 -6.20004 51.135C-6.20004 44.862 -1.11603 39.778 5.15697 39.778ZM5.15697 61.836C7.00197 61.836 8.76497 61.385 10.282 60.565V53.841C9.29797 55.645 7.37097 56.916 5.15697 56.916C1.95897 56.916 -0.624035 54.333 -0.624035 51.135C-0.624035 47.937 1.95897 45.354 5.15697 45.354C7.37097 45.354 9.29797 46.625 10.282 48.47V41.746C8.76497 40.926 7.00197 40.434 5.15697 40.434C-0.747035 40.434 -5.54404 45.231 -5.54404 51.135C-5.54404 57.039 -0.747035 61.836 5.15697 61.836ZM5.15697 56.26C8.02697 56.26 10.282 53.964 10.282 51.135C10.282 48.306 8.02697 46.01 5.15697 46.01C2.32797 46.01 0.0319652 48.306 0.0319652 51.135C0.0319652 53.964 2.32797 56.26 5.15697 56.26ZM31.56 45.846V46.502H30.371C27.87 46.502 25.738 48.634 25.738 51.135C25.738 53.636 27.87 55.768 30.371 55.768H31.56V56.424H30.371C27.501 56.424 25.082 54.005 25.082 51.135C25.082 48.265 27.501 45.846 30.371 45.846H31.56ZM31.56 40.926H30.371C24.754 40.926 20.162 45.518 20.162 51.135C20.162 56.752 24.754 61.344 30.371 61.344H31.56V62H30.371C24.385 62 19.506 57.121 19.506 51.135C19.506 45.149 24.385 40.27 30.371 40.27H31.56V40.926ZM37.079 40.926H33.84V40.27H37.079V33.3H37.735V40.27H42.655V33.3H43.311V40.27H46.55V40.926H43.311V45.846H46.55V46.502H43.311V62H42.655V46.502H37.735V62H37.079V46.502H33.84V45.846H37.079V40.926ZM42.655 40.926H37.735V45.846H42.655V40.926ZM64.8965 39.532V45.928H67.8075C69.6115 45.928 71.0055 44.534 71.0055 42.73C71.0055 40.926 69.6115 39.532 67.8075 39.532H64.8965ZM64.8965 38.876H67.8075C69.9395 38.876 71.6615 40.598 71.6615 42.73C71.6615 44.862 69.9395 46.584 67.8075 46.584H64.8965V51.504H67.8075C72.7275 51.504 76.5815 47.65 76.5815 42.73C76.5815 37.81 72.7275 33.956 67.8075 33.956H64.8965V38.876ZM59.3205 52.16V62H58.6645V33.3H67.8075C73.0555 33.3 77.2375 37.482 77.2375 42.73C77.2375 47.978 73.0555 52.16 67.8075 52.16H64.8965V62H64.2405V52.16H59.3205ZM59.3205 39.532V45.928H64.2405V39.532H59.3205ZM64.2405 33.956H59.3205V38.876H64.2405V33.956ZM64.2405 46.584H59.3205V51.504H64.2405V46.584ZM89.7195 62.492C83.4465 62.492 78.3625 57.408 78.3625 51.135C78.3625 44.862 83.4465 39.778 89.7195 39.778C95.9925 39.778 101.076 44.862 101.076 51.135C101.076 57.408 95.9925 62.492 89.7195 62.492ZM89.7195 61.836C95.6235 61.836 100.42 57.039 100.42 51.135C100.42 45.231 95.6235 40.434 89.7195 40.434C83.8155 40.434 79.0185 45.231 79.0185 51.135C79.0185 57.039 83.8155 61.836 89.7195 61.836ZM89.7195 56.916C86.5215 56.916 83.9385 54.333 83.9385 51.135C83.9385 47.937 86.5215 45.354 89.7195 45.354C92.9175 45.354 95.5005 47.937 95.5005 51.135C95.5005 54.333 92.9175 56.916 89.7195 56.916ZM89.7195 56.26C92.5485 56.26 94.8445 53.964 94.8445 51.135C94.8445 48.306 92.5485 46.01 89.7195 46.01C86.8905 46.01 84.5945 48.306 84.5945 51.135C84.5945 53.964 86.8905 56.26 89.7195 56.26ZM109.592 62V42.689C107.378 44.042 104.672 46.83 104.672 51.709V62H104.016V40.27H104.672V47.732C105.697 44.903 107.296 43.304 109.592 41.951V40.27H110.248V41.582C111.888 40.762 113.651 40.352 115.373 40.352V41.008C113.651 41.008 111.847 41.459 110.248 42.32V49.044C111.191 47.199 113.159 45.928 115.373 45.928V46.584C112.503 46.584 110.248 48.88 110.248 51.709V62H109.592ZM119.88 40.926H116.641V40.27H119.88V33.3H120.536V40.27H125.456V33.3H126.112V40.27H129.351V40.926H126.112V45.846H129.351V46.502H126.112V62H125.456V46.502H120.536V62H119.88V46.502H116.641V45.846H119.88V40.926ZM125.456 40.926H120.536V45.846H125.456V40.926ZM135.03 46.502V62H134.374V46.502H131.135V45.846H134.374V40.926H131.135V40.27H134.374V38.466C134.374 34.448 137.613 31.25 141.672 31.25H144.829V31.906H141.672C137.941 31.906 135.03 34.776 135.03 38.466V40.27H139.95V38.466C139.95 37.564 140.729 36.826 141.672 36.826H144.829V37.482H141.672C141.057 37.482 140.606 37.933 140.606 38.466V40.27H144.829V40.926H140.606V45.846H144.829V46.502H140.606V62H139.95V46.502H135.03ZM135.03 40.926V45.846H139.95V40.926H135.03ZM157.185 62.492C150.912 62.492 145.828 57.408 145.828 51.135C145.828 44.862 150.912 39.778 157.185 39.778C163.458 39.778 168.542 44.862 168.542 51.135C168.542 57.408 163.458 62.492 157.185 62.492ZM157.185 61.836C163.089 61.836 167.886 57.039 167.886 51.135C167.886 45.231 163.089 40.434 157.185 40.434C151.281 40.434 146.484 45.231 146.484 51.135C146.484 57.039 151.281 61.836 157.185 61.836ZM157.185 56.916C153.987 56.916 151.404 54.333 151.404 51.135C151.404 47.937 153.987 45.354 157.185 45.354C160.383 45.354 162.966 47.937 162.966 51.135C162.966 54.333 160.383 56.916 157.185 56.916ZM157.185 56.26C160.014 56.26 162.31 53.964 162.31 51.135C162.31 48.306 160.014 46.01 157.185 46.01C154.356 46.01 152.06 48.306 152.06 51.135C152.06 53.964 154.356 56.26 157.185 56.26ZM172.138 31.25V62H171.482V31.25H172.138ZM177.714 31.25V62H177.058V31.25H177.714ZM181.892 62V40.27H182.548V62H181.892ZM188.124 40.27V62H187.468V40.27H188.124ZM187.468 38.138V31.25H188.124V38.138H187.468ZM182.548 31.25V38.138H181.892V31.25H182.548ZM202.429 62.492C196.156 62.492 191.072 57.408 191.072 51.135C191.072 44.862 196.156 39.778 202.429 39.778C208.702 39.778 213.786 44.862 213.786 51.135C213.786 57.408 208.702 62.492 202.429 62.492ZM202.429 61.836C208.333 61.836 213.13 57.039 213.13 51.135C213.13 45.231 208.333 40.434 202.429 40.434C196.525 40.434 191.728 45.231 191.728 51.135C191.728 57.039 196.525 61.836 202.429 61.836ZM202.429 56.916C199.231 56.916 196.648 54.333 196.648 51.135C196.648 47.937 199.231 45.354 202.429 45.354C205.627 45.354 208.21 47.937 208.21 51.135C208.21 54.333 205.627 56.916 202.429 56.916ZM202.429 56.26C205.258 56.26 207.554 53.964 207.554 51.135C207.554 48.306 205.258 46.01 202.429 46.01C199.6 46.01 197.304 48.306 197.304 51.135C197.304 53.964 199.6 56.26 202.429 56.26ZM238.66 62H238.004L232.1 46.871V62H231.444V39.532H226.524V62H225.868V33.3H235.011C240.259 33.3 244.441 37.482 244.441 42.73C244.441 46.912 242.35 49.372 239.931 50.889L244.236 62H243.58L239.398 51.217C238.209 51.914 236.528 52.529 235.134 52.939L238.66 62ZM237.758 45.313L239.685 50.274C241.899 48.88 243.785 46.584 243.785 42.73C243.785 37.81 239.931 33.956 235.011 33.956H232.1V38.876H235.011C237.143 38.876 238.865 40.598 238.865 42.73C238.865 43.714 238.496 44.575 237.758 45.313ZM232.1 39.532V46.871L233.658 46.543C236.856 45.846 238.209 44.493 238.209 42.73C238.209 40.926 236.815 39.532 235.011 39.532H232.1ZM226.524 33.956V38.876H231.444V33.956H226.524ZM239.152 50.602L237.266 45.764C236.036 46.707 234.601 47.035 233.002 47.363L234.888 52.283C236.118 51.955 238.127 51.217 239.152 50.602ZM245.926 51.135C245.926 44.862 251.01 39.778 257.283 39.778C262.285 39.778 266.508 42.976 268.025 47.486L254.7 55.563C255.479 56.014 256.34 56.26 257.283 56.26C259.333 56.26 261.096 55.03 261.916 53.308L262.531 53.595C261.629 55.563 259.62 56.916 257.283 56.916C256.094 56.916 254.987 56.547 254.085 55.932L249.657 58.638C251.584 60.606 254.29 61.836 257.283 61.836C261.547 61.836 265.278 59.294 267 55.645L267.574 55.932C265.77 59.827 261.834 62.492 257.283 62.492C251.01 62.492 245.926 57.408 245.926 51.135ZM246.582 51.135C246.582 52.324 246.787 53.431 247.115 54.497L251.543 51.791C251.502 51.586 251.502 51.34 251.502 51.135C251.502 47.937 254.085 45.354 257.283 45.354C258.472 45.354 259.62 45.723 260.522 46.338L264.909 43.673C262.982 41.664 260.276 40.434 257.283 40.434C251.379 40.434 246.582 45.231 246.582 51.135ZM247.361 55.112C247.812 56.219 248.427 57.244 249.206 58.146L253.511 55.522C252.609 54.743 251.953 53.677 251.666 52.488L247.361 55.112ZM252.158 51.135V51.422L259.907 46.707C259.128 46.256 258.226 46.01 257.283 46.01C254.454 46.01 252.158 48.306 252.158 51.135ZM252.24 52.16C252.486 53.349 253.183 54.415 254.126 55.153L262.326 50.151C262.08 48.962 261.424 47.896 260.481 47.117L252.24 52.16ZM261.096 46.789C261.998 47.568 262.654 48.593 262.9 49.823L267.246 47.158C266.795 46.051 266.139 45.067 265.401 44.165L261.096 46.789ZM285.926 42.115V60.155C288.673 58.474 290.846 55.071 290.846 51.135C290.846 47.199 288.673 43.796 285.926 42.115ZM280.145 39.778C281.99 39.778 283.712 40.229 285.27 41.008V40.27H285.926V41.377C288.222 42.648 289.985 44.944 290.846 47.322V40.27H291.502V62H290.846V54.907C290.026 57.244 288.222 59.663 285.926 60.934V62H285.27V61.262C283.712 62.041 281.99 62.492 280.145 62.492C273.872 62.492 268.788 57.408 268.788 51.135C268.788 44.862 273.872 39.778 280.145 39.778ZM280.145 61.836C281.99 61.836 283.753 61.385 285.27 60.565V53.841C284.286 55.645 282.359 56.916 280.145 56.916C276.947 56.916 274.364 54.333 274.364 51.135C274.364 47.937 276.947 45.354 280.145 45.354C282.359 45.354 284.286 46.625 285.27 48.47V41.746C283.753 40.926 281.99 40.434 280.145 40.434C274.241 40.434 269.444 45.231 269.444 51.135C269.444 57.039 274.241 61.836 280.145 61.836ZM280.145 56.26C283.015 56.26 285.27 53.964 285.27 51.135C285.27 48.306 283.015 46.01 280.145 46.01C277.316 46.01 275.02 48.306 275.02 51.135C275.02 53.964 277.316 56.26 280.145 56.26ZM306.548 45.846V46.502H305.359C302.858 46.502 300.726 48.634 300.726 51.135C300.726 53.636 302.858 55.768 305.359 55.768H306.548V56.424H305.359C302.489 56.424 300.07 54.005 300.07 51.135C300.07 48.265 302.489 45.846 305.359 45.846H306.548ZM306.548 40.926H305.359C299.742 40.926 295.15 45.518 295.15 51.135C295.15 56.752 299.742 61.344 305.359 61.344H306.548V62H305.359C299.373 62 294.494 57.121 294.494 51.135C294.494 45.149 299.373 40.27 305.359 40.27H306.548V40.926ZM312.067 40.926H308.828V40.27H312.067V33.3H312.723V40.27H317.643V33.3H318.299V40.27H321.538V40.926H318.299V45.846H321.538V46.502H318.299V62H317.643V46.502H312.723V62H312.067V46.502H308.828V45.846H312.067V40.926ZM317.643 40.926H312.723V45.846H317.643V40.926ZM339.885 39.532V45.928H342.796C344.6 45.928 345.994 44.534 345.994 42.73C345.994 40.926 344.6 39.532 342.796 39.532H339.885ZM339.885 38.876H342.796C344.928 38.876 346.65 40.598 346.65 42.73C346.65 44.862 344.928 46.584 342.796 46.584H339.885V51.504H342.796C347.716 51.504 351.57 47.65 351.57 42.73C351.57 37.81 347.716 33.956 342.796 33.956H339.885V38.876ZM334.309 52.16V62H333.653V33.3H342.796C348.044 33.3 352.226 37.482 352.226 42.73C352.226 47.978 348.044 52.16 342.796 52.16H339.885V62H339.229V52.16H334.309ZM334.309 39.532V45.928H339.229V39.532H334.309ZM339.229 33.956H334.309V38.876H339.229V33.956ZM339.229 46.584H334.309V51.504H339.229V46.584ZM364.708 62.492C358.435 62.492 353.351 57.408 353.351 51.135C353.351 44.862 358.435 39.778 364.708 39.778C370.981 39.778 376.065 44.862 376.065 51.135C376.065 57.408 370.981 62.492 364.708 62.492ZM364.708 61.836C370.612 61.836 375.409 57.039 375.409 51.135C375.409 45.231 370.612 40.434 364.708 40.434C358.804 40.434 354.007 45.231 354.007 51.135C354.007 57.039 358.804 61.836 364.708 61.836ZM364.708 56.916C361.51 56.916 358.927 54.333 358.927 51.135C358.927 47.937 361.51 45.354 364.708 45.354C367.906 45.354 370.489 47.937 370.489 51.135C370.489 54.333 367.906 56.916 364.708 56.916ZM364.708 56.26C367.537 56.26 369.833 53.964 369.833 51.135C369.833 48.306 367.537 46.01 364.708 46.01C361.879 46.01 359.583 48.306 359.583 51.135C359.583 53.964 361.879 56.26 364.708 56.26ZM384.581 62V42.689C382.367 44.042 379.661 46.83 379.661 51.709V62H379.005V40.27H379.661V47.732C380.686 44.903 382.285 43.304 384.581 41.951V40.27H385.237V41.582C386.877 40.762 388.64 40.352 390.362 40.352V41.008C388.64 41.008 386.836 41.459 385.237 42.32V49.044C386.18 47.199 388.148 45.928 390.362 45.928V46.584C387.492 46.584 385.237 48.88 385.237 51.709V62H384.581ZM394.868 40.926H391.629V40.27H394.868V33.3H395.524V40.27H400.444V33.3H401.1V40.27H404.339V40.926H401.1V45.846H404.339V46.502H401.1V62H400.444V46.502H395.524V62H394.868V46.502H391.629V45.846H394.868V40.926ZM400.444 40.926H395.524V45.846H400.444V40.926ZM410.018 46.502V62H409.362V46.502H406.123V45.846H409.362V40.926H406.123V40.27H409.362V38.466C409.362 34.448 412.601 31.25 416.66 31.25H419.817V31.906H416.66C412.929 31.906 410.018 34.776 410.018 38.466V40.27H414.938V38.466C414.938 37.564 415.717 36.826 416.66 36.826H419.817V37.482H416.66C416.045 37.482 415.594 37.933 415.594 38.466V40.27H419.817V40.926H415.594V45.846H419.817V46.502H415.594V62H414.938V46.502H410.018ZM410.018 40.926V45.846H414.938V40.926H410.018ZM432.174 62.492C425.901 62.492 420.817 57.408 420.817 51.135C420.817 44.862 425.901 39.778 432.174 39.778C438.447 39.778 443.531 44.862 443.531 51.135C443.531 57.408 438.447 62.492 432.174 62.492ZM432.174 61.836C438.078 61.836 442.875 57.039 442.875 51.135C442.875 45.231 438.078 40.434 432.174 40.434C426.27 40.434 421.473 45.231 421.473 51.135C421.473 57.039 426.27 61.836 432.174 61.836ZM432.174 56.916C428.976 56.916 426.393 54.333 426.393 51.135C426.393 47.937 428.976 45.354 432.174 45.354C435.372 45.354 437.955 47.937 437.955 51.135C437.955 54.333 435.372 56.916 432.174 56.916ZM432.174 56.26C435.003 56.26 437.299 53.964 437.299 51.135C437.299 48.306 435.003 46.01 432.174 46.01C429.345 46.01 427.049 48.306 427.049 51.135C427.049 53.964 429.345 56.26 432.174 56.26ZM447.126 31.25V62H446.47V31.25H447.126ZM452.702 31.25V62H452.046V31.25H452.702ZM456.881 62V40.27H457.537V62H456.881ZM463.113 40.27V62H462.457V40.27H463.113ZM462.457 38.138V31.25H463.113V38.138H462.457ZM457.537 31.25V38.138H456.881V31.25H457.537ZM477.418 62.492C471.145 62.492 466.061 57.408 466.061 51.135C466.061 44.862 471.145 39.778 477.418 39.778C483.691 39.778 488.775 44.862 488.775 51.135C488.775 57.408 483.691 62.492 477.418 62.492ZM477.418 61.836C483.322 61.836 488.119 57.039 488.119 51.135C488.119 45.231 483.322 40.434 477.418 40.434C471.514 40.434 466.717 45.231 466.717 51.135C466.717 57.039 471.514 61.836 477.418 61.836ZM477.418 56.916C474.22 56.916 471.637 54.333 471.637 51.135C471.637 47.937 474.22 45.354 477.418 45.354C480.616 45.354 483.199 47.937 483.199 51.135C483.199 54.333 480.616 56.916 477.418 56.916ZM477.418 56.26C480.247 56.26 482.543 53.964 482.543 51.135C482.543 48.306 480.247 46.01 477.418 46.01C474.589 46.01 472.293 48.306 472.293 51.135C472.293 53.964 474.589 56.26 477.418 56.26ZM513.648 62H512.992L507.088 46.871V62H506.432V39.532H501.512V62H500.856V33.3H509.999C515.247 33.3 519.429 37.482 519.429 42.73C519.429 46.912 517.338 49.372 514.919 50.889L519.224 62H518.568L514.386 51.217C513.197 51.914 511.516 52.529 510.122 52.939L513.648 62ZM512.746 45.313L514.673 50.274C516.887 48.88 518.773 46.584 518.773 42.73C518.773 37.81 514.919 33.956 509.999 33.956H507.088V38.876H509.999C512.131 38.876 513.853 40.598 513.853 42.73C513.853 43.714 513.484 44.575 512.746 45.313ZM507.088 39.532V46.871L508.646 46.543C511.844 45.846 513.197 44.493 513.197 42.73C513.197 40.926 511.803 39.532 509.999 39.532H507.088ZM501.512 33.956V38.876H506.432V33.956H501.512ZM514.14 50.602L512.254 45.764C511.024 46.707 509.589 47.035 507.99 47.363L509.876 52.283C511.106 51.955 513.115 51.217 514.14 50.602ZM520.914 51.135C520.914 44.862 525.998 39.778 532.271 39.778C537.273 39.778 541.496 42.976 543.013 47.486L529.688 55.563C530.467 56.014 531.328 56.26 532.271 56.26C534.321 56.26 536.084 55.03 536.904 53.308L537.519 53.595C536.617 55.563 534.608 56.916 532.271 56.916C531.082 56.916 529.975 56.547 529.073 55.932L524.645 58.638C526.572 60.606 529.278 61.836 532.271 61.836C536.535 61.836 540.266 59.294 541.988 55.645L542.562 55.932C540.758 59.827 536.822 62.492 532.271 62.492C525.998 62.492 520.914 57.408 520.914 51.135ZM521.57 51.135C521.57 52.324 521.775 53.431 522.103 54.497L526.531 51.791C526.49 51.586 526.49 51.34 526.49 51.135C526.49 47.937 529.073 45.354 532.271 45.354C533.46 45.354 534.608 45.723 535.51 46.338L539.897 43.673C537.97 41.664 535.264 40.434 532.271 40.434C526.367 40.434 521.57 45.231 521.57 51.135ZM522.349 55.112C522.8 56.219 523.415 57.244 524.194 58.146L528.499 55.522C527.597 54.743 526.941 53.677 526.654 52.488L522.349 55.112ZM527.146 51.135V51.422L534.895 46.707C534.116 46.256 533.214 46.01 532.271 46.01C529.442 46.01 527.146 48.306 527.146 51.135ZM527.228 52.16C527.474 53.349 528.171 54.415 529.114 55.153L537.314 50.151C537.068 48.962 536.412 47.896 535.469 47.117L527.228 52.16ZM536.084 46.789C536.986 47.568 537.642 48.593 537.888 49.823L542.234 47.158C541.783 46.051 541.127 45.067 540.389 44.165L536.084 46.789ZM560.915 42.115V60.155C563.662 58.474 565.835 55.071 565.835 51.135C565.835 47.199 563.662 43.796 560.915 42.115ZM555.134 39.778C556.979 39.778 558.701 40.229 560.259 41.008V40.27H560.915V41.377C563.211 42.648 564.974 44.944 565.835 47.322V40.27H566.491V62H565.835V54.907C565.015 57.244 563.211 59.663 560.915 60.934V62H560.259V61.262C558.701 62.041 556.979 62.492 555.134 62.492C548.861 62.492 543.777 57.408 543.777 51.135C543.777 44.862 548.861 39.778 555.134 39.778ZM555.134 61.836C556.979 61.836 558.742 61.385 560.259 60.565V53.841C559.275 55.645 557.348 56.916 555.134 56.916C551.936 56.916 549.353 54.333 549.353 51.135C549.353 47.937 551.936 45.354 555.134 45.354C557.348 45.354 559.275 46.625 560.259 48.47V41.746C558.742 40.926 556.979 40.434 555.134 40.434C549.23 40.434 544.433 45.231 544.433 51.135C544.433 57.039 549.23 61.836 555.134 61.836ZM555.134 56.26C558.004 56.26 560.259 53.964 560.259 51.135C560.259 48.306 558.004 46.01 555.134 46.01C552.305 46.01 550.009 48.306 550.009 51.135C550.009 53.964 552.305 56.26 555.134 56.26ZM581.537 45.846V46.502H580.348C577.847 46.502 575.715 48.634 575.715 51.135C575.715 53.636 577.847 55.768 580.348 55.768H581.537V56.424H580.348C577.478 56.424 575.059 54.005 575.059 51.135C575.059 48.265 577.478 45.846 580.348 45.846H581.537ZM581.537 40.926H580.348C574.731 40.926 570.139 45.518 570.139 51.135C570.139 56.752 574.731 61.344 580.348 61.344H581.537V62H580.348C574.362 62 569.483 57.121 569.483 51.135C569.483 45.149 574.362 40.27 580.348 40.27H581.537V40.926ZM587.056 40.926H583.817V40.27H587.056V33.3H587.712V40.27H592.632V33.3H593.288V40.27H596.527V40.926H593.288V45.846H596.527V46.502H593.288V62H592.632V46.502H587.712V62H587.056V46.502H583.817V45.846H587.056V40.926ZM592.632 40.926H587.712V45.846H592.632V40.926ZM614.873 39.532V45.928H617.784C619.588 45.928 620.982 44.534 620.982 42.73C620.982 40.926 619.588 39.532 617.784 39.532H614.873ZM614.873 38.876H617.784C619.916 38.876 621.638 40.598 621.638 42.73C621.638 44.862 619.916 46.584 617.784 46.584H614.873V51.504H617.784C622.704 51.504 626.558 47.65 626.558 42.73C626.558 37.81 622.704 33.956 617.784 33.956H614.873V38.876ZM609.297 52.16V62H608.641V33.3H617.784C623.032 33.3 627.214 37.482 627.214 42.73C627.214 47.978 623.032 52.16 617.784 52.16H614.873V62H614.217V52.16H609.297ZM609.297 39.532V45.928H614.217V39.532H609.297ZM614.217 33.956H609.297V38.876H614.217V33.956ZM614.217 46.584H609.297V51.504H614.217V46.584ZM639.696 62.492C633.423 62.492 628.339 57.408 628.339 51.135C628.339 44.862 633.423 39.778 639.696 39.778C645.969 39.778 651.053 44.862 651.053 51.135C651.053 57.408 645.969 62.492 639.696 62.492ZM639.696 61.836C645.6 61.836 650.397 57.039 650.397 51.135C650.397 45.231 645.6 40.434 639.696 40.434C633.792 40.434 628.995 45.231 628.995 51.135C628.995 57.039 633.792 61.836 639.696 61.836ZM639.696 56.916C636.498 56.916 633.915 54.333 633.915 51.135C633.915 47.937 636.498 45.354 639.696 45.354C642.894 45.354 645.477 47.937 645.477 51.135C645.477 54.333 642.894 56.916 639.696 56.916ZM639.696 56.26C642.525 56.26 644.821 53.964 644.821 51.135C644.821 48.306 642.525 46.01 639.696 46.01C636.867 46.01 634.571 48.306 634.571 51.135C634.571 53.964 636.867 56.26 639.696 56.26ZM659.569 62V42.689C657.355 44.042 654.649 46.83 654.649 51.709V62H653.993V40.27H654.649V47.732C655.674 44.903 657.273 43.304 659.569 41.951V40.27H660.225V41.582C661.865 40.762 663.628 40.352 665.35 40.352V41.008C663.628 41.008 661.824 41.459 660.225 42.32V49.044C661.168 47.199 663.136 45.928 665.35 45.928V46.584C662.48 46.584 660.225 48.88 660.225 51.709V62H659.569ZM669.856 40.926H666.617V40.27H669.856V33.3H670.512V40.27H675.432V33.3H676.088V40.27H679.327V40.926H676.088V45.846H679.327V46.502H676.088V62H675.432V46.502H670.512V62H669.856V46.502H666.617V45.846H669.856V40.926ZM675.432 40.926H670.512V45.846H675.432V40.926ZM685.006 46.502V62H684.35V46.502H681.111V45.846H684.35V40.926H681.111V40.27H684.35V38.466C684.35 34.448 687.589 31.25 691.648 31.25H694.805V31.906H691.648C687.917 31.906 685.006 34.776 685.006 38.466V40.27H689.926V38.466C689.926 37.564 690.705 36.826 691.648 36.826H694.805V37.482H691.648C691.033 37.482 690.582 37.933 690.582 38.466V40.27H694.805V40.926H690.582V45.846H694.805V46.502H690.582V62H689.926V46.502H685.006ZM685.006 40.926V45.846H689.926V40.926H685.006ZM707.162 62.492C700.889 62.492 695.805 57.408 695.805 51.135C695.805 44.862 700.889 39.778 707.162 39.778C713.435 39.778 718.519 44.862 718.519 51.135C718.519 57.408 713.435 62.492 707.162 62.492ZM707.162 61.836C713.066 61.836 717.863 57.039 717.863 51.135C717.863 45.231 713.066 40.434 707.162 40.434C701.258 40.434 696.461 45.231 696.461 51.135C696.461 57.039 701.258 61.836 707.162 61.836ZM707.162 56.916C703.964 56.916 701.381 54.333 701.381 51.135C701.381 47.937 703.964 45.354 707.162 45.354C710.36 45.354 712.943 47.937 712.943 51.135C712.943 54.333 710.36 56.916 707.162 56.916ZM707.162 56.26C709.991 56.26 712.287 53.964 712.287 51.135C712.287 48.306 709.991 46.01 707.162 46.01C704.333 46.01 702.037 48.306 702.037 51.135C702.037 53.964 704.333 56.26 707.162 56.26ZM722.115 31.25V62H721.459V31.25H722.115ZM727.691 31.25V62H727.035V31.25H727.691ZM731.869 62V40.27H732.525V62H731.869ZM738.101 40.27V62H737.445V40.27H738.101ZM737.445 38.138V31.25H738.101V38.138H737.445ZM732.525 31.25V38.138H731.869V31.25H732.525ZM752.406 62.492C746.133 62.492 741.049 57.408 741.049 51.135C741.049 44.862 746.133 39.778 752.406 39.778C758.679 39.778 763.763 44.862 763.763 51.135C763.763 57.408 758.679 62.492 752.406 62.492ZM752.406 61.836C758.31 61.836 763.107 57.039 763.107 51.135C763.107 45.231 758.31 40.434 752.406 40.434C746.502 40.434 741.705 45.231 741.705 51.135C741.705 57.039 746.502 61.836 752.406 61.836ZM752.406 56.916C749.208 56.916 746.625 54.333 746.625 51.135C746.625 47.937 749.208 45.354 752.406 45.354C755.604 45.354 758.187 47.937 758.187 51.135C758.187 54.333 755.604 56.916 752.406 56.916ZM752.406 56.26C755.235 56.26 757.531 53.964 757.531 51.135C757.531 48.306 755.235 46.01 752.406 46.01C749.577 46.01 747.281 48.306 747.281 51.135C747.281 53.964 749.577 56.26 752.406 56.26ZM788.636 62H787.98L782.076 46.871V62H781.42V39.532H776.5V62H775.844V33.3H784.987C790.235 33.3 794.417 37.482 794.417 42.73C794.417 46.912 792.326 49.372 789.907 50.889L794.212 62H793.556L789.374 51.217C788.185 51.914 786.504 52.529 785.11 52.939L788.636 62ZM787.734 45.313L789.661 50.274C791.875 48.88 793.761 46.584 793.761 42.73C793.761 37.81 789.907 33.956 784.987 33.956H782.076V38.876H784.987C787.119 38.876 788.841 40.598 788.841 42.73C788.841 43.714 788.472 44.575 787.734 45.313ZM782.076 39.532V46.871L783.634 46.543C786.832 45.846 788.185 44.493 788.185 42.73C788.185 40.926 786.791 39.532 784.987 39.532H782.076ZM776.5 33.956V38.876H781.42V33.956H776.5ZM789.128 50.602L787.242 45.764C786.012 46.707 784.577 47.035 782.978 47.363L784.864 52.283C786.094 51.955 788.103 51.217 789.128 50.602ZM795.903 51.135C795.903 44.862 800.987 39.778 807.26 39.778C812.262 39.778 816.485 42.976 818.002 47.486L804.677 55.563C805.456 56.014 806.317 56.26 807.26 56.26C809.31 56.26 811.073 55.03 811.893 53.308L812.508 53.595C811.606 55.563 809.597 56.916 807.26 56.916C806.071 56.916 804.964 56.547 804.062 55.932L799.634 58.638C801.561 60.606 804.267 61.836 807.26 61.836C811.524 61.836 815.255 59.294 816.977 55.645L817.551 55.932C815.747 59.827 811.811 62.492 807.26 62.492C800.987 62.492 795.903 57.408 795.903 51.135ZM796.559 51.135C796.559 52.324 796.764 53.431 797.092 54.497L801.52 51.791C801.479 51.586 801.479 51.34 801.479 51.135C801.479 47.937 804.062 45.354 807.26 45.354C808.449 45.354 809.597 45.723 810.499 46.338L814.886 43.673C812.959 41.664 810.253 40.434 807.26 40.434C801.356 40.434 796.559 45.231 796.559 51.135ZM797.338 55.112C797.789 56.219 798.404 57.244 799.183 58.146L803.488 55.522C802.586 54.743 801.93 53.677 801.643 52.488L797.338 55.112ZM802.135 51.135V51.422L809.884 46.707C809.105 46.256 808.203 46.01 807.26 46.01C804.431 46.01 802.135 48.306 802.135 51.135ZM802.217 52.16C802.463 53.349 803.16 54.415 804.103 55.153L812.303 50.151C812.057 48.962 811.401 47.896 810.458 47.117L802.217 52.16ZM811.073 46.789C811.975 47.568 812.631 48.593 812.877 49.823L817.223 47.158C816.772 46.051 816.116 45.067 815.378 44.165L811.073 46.789ZM835.903 42.115V60.155C838.65 58.474 840.823 55.071 840.823 51.135C840.823 47.199 838.65 43.796 835.903 42.115ZM830.122 39.778C831.967 39.778 833.689 40.229 835.247 41.008V40.27H835.903V41.377C838.199 42.648 839.962 44.944 840.823 47.322V40.27H841.479V62H840.823V54.907C840.003 57.244 838.199 59.663 835.903 60.934V62H835.247V61.262C833.689 62.041 831.967 62.492 830.122 62.492C823.849 62.492 818.765 57.408 818.765 51.135C818.765 44.862 823.849 39.778 830.122 39.778ZM830.122 61.836C831.967 61.836 833.73 61.385 835.247 60.565V53.841C834.263 55.645 832.336 56.916 830.122 56.916C826.924 56.916 824.341 54.333 824.341 51.135C824.341 47.937 826.924 45.354 830.122 45.354C832.336 45.354 834.263 46.625 835.247 48.47V41.746C833.73 40.926 831.967 40.434 830.122 40.434C824.218 40.434 819.421 45.231 819.421 51.135C819.421 57.039 824.218 61.836 830.122 61.836ZM830.122 56.26C832.992 56.26 835.247 53.964 835.247 51.135C835.247 48.306 832.992 46.01 830.122 46.01C827.293 46.01 824.997 48.306 824.997 51.135C824.997 53.964 827.293 56.26 830.122 56.26ZM856.525 45.846V46.502H855.336C852.835 46.502 850.703 48.634 850.703 51.135C850.703 53.636 852.835 55.768 855.336 55.768H856.525V56.424H855.336C852.466 56.424 850.047 54.005 850.047 51.135C850.047 48.265 852.466 45.846 855.336 45.846H856.525ZM856.525 40.926H855.336C849.719 40.926 845.127 45.518 845.127 51.135C845.127 56.752 849.719 61.344 855.336 61.344H856.525V62H855.336C849.35 62 844.471 57.121 844.471 51.135C844.471 45.149 849.35 40.27 855.336 40.27H856.525V40.926ZM862.044 40.926H858.805V40.27H862.044V33.3H862.7V40.27H867.62V33.3H868.276V40.27H871.515V40.926H868.276V45.846H871.515V46.502H868.276V62H867.62V46.502H862.7V62H862.044V46.502H858.805V45.846H862.044V40.926ZM867.62 40.926H862.7V45.846H867.62V40.926ZM889.861 39.532V45.928H892.772C894.576 45.928 895.97 44.534 895.97 42.73C895.97 40.926 894.576 39.532 892.772 39.532H889.861ZM889.861 38.876H892.772C894.904 38.876 896.626 40.598 896.626 42.73C896.626 44.862 894.904 46.584 892.772 46.584H889.861V51.504H892.772C897.692 51.504 901.546 47.65 901.546 42.73C901.546 37.81 897.692 33.956 892.772 33.956H889.861V38.876ZM884.285 52.16V62H883.629V33.3H892.772C898.02 33.3 902.202 37.482 902.202 42.73C902.202 47.978 898.02 52.16 892.772 52.16H889.861V62H889.205V52.16H884.285ZM884.285 39.532V45.928H889.205V39.532H884.285ZM889.205 33.956H884.285V38.876H889.205V33.956ZM889.205 46.584H884.285V51.504H889.205V46.584ZM914.684 62.492C908.411 62.492 903.327 57.408 903.327 51.135C903.327 44.862 908.411 39.778 914.684 39.778C920.957 39.778 926.041 44.862 926.041 51.135C926.041 57.408 920.957 62.492 914.684 62.492ZM914.684 61.836C920.588 61.836 925.385 57.039 925.385 51.135C925.385 45.231 920.588 40.434 914.684 40.434C908.78 40.434 903.983 45.231 903.983 51.135C903.983 57.039 908.78 61.836 914.684 61.836ZM914.684 56.916C911.486 56.916 908.903 54.333 908.903 51.135C908.903 47.937 911.486 45.354 914.684 45.354C917.882 45.354 920.465 47.937 920.465 51.135C920.465 54.333 917.882 56.916 914.684 56.916ZM914.684 56.26C917.513 56.26 919.809 53.964 919.809 51.135C919.809 48.306 917.513 46.01 914.684 46.01C911.855 46.01 909.559 48.306 909.559 51.135C909.559 53.964 911.855 56.26 914.684 56.26ZM934.557 62V42.689C932.343 44.042 929.637 46.83 929.637 51.709V62H928.981V40.27H929.637V47.732C930.662 44.903 932.261 43.304 934.557 41.951V40.27H935.213V41.582C936.853 40.762 938.616 40.352 940.338 40.352V41.008C938.616 41.008 936.812 41.459 935.213 42.32V49.044C936.156 47.199 938.124 45.928 940.338 45.928V46.584C937.468 46.584 935.213 48.88 935.213 51.709V62H934.557ZM944.845 40.926H941.606V40.27H944.845V33.3H945.501V40.27H950.421V33.3H951.077V40.27H954.316V40.926H951.077V45.846H954.316V46.502H951.077V62H950.421V46.502H945.501V62H944.845V46.502H941.606V45.846H944.845V40.926ZM950.421 40.926H945.501V45.846H950.421V40.926ZM959.995 46.502V62H959.339V46.502H956.1V45.846H959.339V40.926H956.1V40.27H959.339V38.466C959.339 34.448 962.578 31.25 966.637 31.25H969.794V31.906H966.637C962.906 31.906 959.995 34.776 959.995 38.466V40.27H964.915V38.466C964.915 37.564 965.694 36.826 966.637 36.826H969.794V37.482H966.637C966.022 37.482 965.571 37.933 965.571 38.466V40.27H969.794V40.926H965.571V45.846H969.794V46.502H965.571V62H964.915V46.502H959.995ZM959.995 40.926V45.846H964.915V40.926H959.995ZM982.15 62.492C975.877 62.492 970.793 57.408 970.793 51.135C970.793 44.862 975.877 39.778 982.15 39.778C988.423 39.778 993.507 44.862 993.507 51.135C993.507 57.408 988.423 62.492 982.15 62.492ZM982.15 61.836C988.054 61.836 992.851 57.039 992.851 51.135C992.851 45.231 988.054 40.434 982.15 40.434C976.246 40.434 971.449 45.231 971.449 51.135C971.449 57.039 976.246 61.836 982.15 61.836ZM982.15 56.916C978.952 56.916 976.369 54.333 976.369 51.135C976.369 47.937 978.952 45.354 982.15 45.354C985.348 45.354 987.931 47.937 987.931 51.135C987.931 54.333 985.348 56.916 982.15 56.916ZM982.15 56.26C984.979 56.26 987.275 53.964 987.275 51.135C987.275 48.306 984.979 46.01 982.15 46.01C979.321 46.01 977.025 48.306 977.025 51.135C977.025 53.964 979.321 56.26 982.15 56.26ZM997.103 31.25V62H996.447V31.25H997.103ZM1002.68 31.25V62H1002.02V31.25H1002.68ZM1006.86 62V40.27H1007.51V62H1006.86ZM1013.09 40.27V62H1012.43V40.27H1013.09ZM1012.43 38.138V31.25H1013.09V38.138H1012.43ZM1007.51 31.25V38.138H1006.86V31.25H1007.51ZM1027.39 62.492C1021.12 62.492 1016.04 57.408 1016.04 51.135C1016.04 44.862 1021.12 39.778 1027.39 39.778C1033.67 39.778 1038.75 44.862 1038.75 51.135C1038.75 57.408 1033.67 62.492 1027.39 62.492ZM1027.39 61.836C1033.3 61.836 1038.1 57.039 1038.1 51.135C1038.1 45.231 1033.3 40.434 1027.39 40.434C1021.49 40.434 1016.69 45.231 1016.69 51.135C1016.69 57.039 1021.49 61.836 1027.39 61.836ZM1027.39 56.916C1024.2 56.916 1021.61 54.333 1021.61 51.135C1021.61 47.937 1024.2 45.354 1027.39 45.354C1030.59 45.354 1033.18 47.937 1033.18 51.135C1033.18 54.333 1030.59 56.916 1027.39 56.916ZM1027.39 56.26C1030.22 56.26 1032.52 53.964 1032.52 51.135C1032.52 48.306 1030.22 46.01 1027.39 46.01C1024.57 46.01 1022.27 48.306 1022.27 51.135C1022.27 53.964 1024.57 56.26 1027.39 56.26ZM1063.62 62H1062.97L1057.06 46.871V62H1056.41V39.532H1051.49V62H1050.83V33.3H1059.98C1065.22 33.3 1069.41 37.482 1069.41 42.73C1069.41 46.912 1067.31 49.372 1064.9 50.889L1069.2 62H1068.54L1064.36 51.217C1063.17 51.914 1061.49 52.529 1060.1 52.939L1063.62 62ZM1062.72 45.313L1064.65 50.274C1066.86 48.88 1068.75 46.584 1068.75 42.73C1068.75 37.81 1064.9 33.956 1059.98 33.956H1057.06V38.876H1059.98C1062.11 38.876 1063.83 40.598 1063.83 42.73C1063.83 43.714 1063.46 44.575 1062.72 45.313ZM1057.06 39.532V46.871L1058.62 46.543C1061.82 45.846 1063.17 44.493 1063.17 42.73C1063.17 40.926 1061.78 39.532 1059.98 39.532H1057.06ZM1051.49 33.956V38.876H1056.41V33.956H1051.49ZM1064.12 50.602L1062.23 45.764C1061 46.707 1059.57 47.035 1057.97 47.363L1059.85 52.283C1061.08 51.955 1063.09 51.217 1064.12 50.602ZM1070.89 51.135C1070.89 44.862 1075.97 39.778 1082.25 39.778C1087.25 39.778 1091.47 42.976 1092.99 47.486L1079.66 55.563C1080.44 56.014 1081.3 56.26 1082.25 56.26C1084.3 56.26 1086.06 55.03 1086.88 53.308L1087.5 53.595C1086.59 55.563 1084.58 56.916 1082.25 56.916C1081.06 56.916 1079.95 56.547 1079.05 55.932L1074.62 58.638C1076.55 60.606 1079.25 61.836 1082.25 61.836C1086.51 61.836 1090.24 59.294 1091.96 55.645L1092.54 55.932C1090.73 59.827 1086.8 62.492 1082.25 62.492C1075.97 62.492 1070.89 57.408 1070.89 51.135ZM1071.55 51.135C1071.55 52.324 1071.75 53.431 1072.08 54.497L1076.51 51.791C1076.47 51.586 1076.47 51.34 1076.47 51.135C1076.47 47.937 1079.05 45.354 1082.25 45.354C1083.44 45.354 1084.58 45.723 1085.49 46.338L1089.87 43.673C1087.95 41.664 1085.24 40.434 1082.25 40.434C1076.34 40.434 1071.55 45.231 1071.55 51.135ZM1072.33 55.112C1072.78 56.219 1073.39 57.244 1074.17 58.146L1078.48 55.522C1077.57 54.743 1076.92 53.677 1076.63 52.488L1072.33 55.112ZM1077.12 51.135V51.422L1084.87 46.707C1084.09 46.256 1083.19 46.01 1082.25 46.01C1079.42 46.01 1077.12 48.306 1077.12 51.135ZM1077.2 52.16C1077.45 53.349 1078.15 54.415 1079.09 55.153L1087.29 50.151C1087.04 48.962 1086.39 47.896 1085.45 47.117L1077.2 52.16ZM1086.06 46.789C1086.96 47.568 1087.62 48.593 1087.86 49.823L1092.21 47.158C1091.76 46.051 1091.1 45.067 1090.37 44.165L1086.06 46.789ZM1110.89 42.115V60.155C1113.64 58.474 1115.81 55.071 1115.81 51.135C1115.81 47.199 1113.64 43.796 1110.89 42.115ZM1105.11 39.778C1106.96 39.778 1108.68 40.229 1110.24 41.008V40.27H1110.89V41.377C1113.19 42.648 1114.95 44.944 1115.81 47.322V40.27H1116.47V62H1115.81V54.907C1114.99 57.244 1113.19 59.663 1110.89 60.934V62H1110.24V61.262C1108.68 62.041 1106.96 62.492 1105.11 62.492C1098.84 62.492 1093.75 57.408 1093.75 51.135C1093.75 44.862 1098.84 39.778 1105.11 39.778ZM1105.11 61.836C1106.96 61.836 1108.72 61.385 1110.24 60.565V53.841C1109.25 55.645 1107.32 56.916 1105.11 56.916C1101.91 56.916 1099.33 54.333 1099.33 51.135C1099.33 47.937 1101.91 45.354 1105.11 45.354C1107.32 45.354 1109.25 46.625 1110.24 48.47V41.746C1108.72 40.926 1106.96 40.434 1105.11 40.434C1099.21 40.434 1094.41 45.231 1094.41 51.135C1094.41 57.039 1099.21 61.836 1105.11 61.836ZM1105.11 56.26C1107.98 56.26 1110.24 53.964 1110.24 51.135C1110.24 48.306 1107.98 46.01 1105.11 46.01C1102.28 46.01 1099.99 48.306 1099.99 51.135C1099.99 53.964 1102.28 56.26 1105.11 56.26ZM1131.51 45.846V46.502H1130.32C1127.82 46.502 1125.69 48.634 1125.69 51.135C1125.69 53.636 1127.82 55.768 1130.32 55.768H1131.51V56.424H1130.32C1127.45 56.424 1125.04 54.005 1125.04 51.135C1125.04 48.265 1127.45 45.846 1130.32 45.846H1131.51ZM1131.51 40.926H1130.32C1124.71 40.926 1120.12 45.518 1120.12 51.135C1120.12 56.752 1124.71 61.344 1130.32 61.344H1131.51V62H1130.32C1124.34 62 1119.46 57.121 1119.46 51.135C1119.46 45.149 1124.34 40.27 1130.32 40.27H1131.51V40.926ZM1137.03 40.926H1133.79V40.27H1137.03V33.3H1137.69V40.27H1142.61V33.3H1143.26V40.27H1146.5V40.926H1143.26V45.846H1146.5V46.502H1143.26V62H1142.61V46.502H1137.69V62H1137.03V46.502H1133.79V45.846H1137.03V40.926ZM1142.61 40.926H1137.69V45.846H1142.61V40.926ZM1164.85 39.532V45.928H1167.76C1169.56 45.928 1170.96 44.534 1170.96 42.73C1170.96 40.926 1169.56 39.532 1167.76 39.532H1164.85ZM1164.85 38.876H1167.76C1169.89 38.876 1171.61 40.598 1171.61 42.73C1171.61 44.862 1169.89 46.584 1167.76 46.584H1164.85V51.504H1167.76C1172.68 51.504 1176.53 47.65 1176.53 42.73C1176.53 37.81 1172.68 33.956 1167.76 33.956H1164.85V38.876ZM1159.27 52.16V62H1158.62V33.3H1167.76C1173.01 33.3 1177.19 37.482 1177.19 42.73C1177.19 47.978 1173.01 52.16 1167.76 52.16H1164.85V62H1164.19V52.16H1159.27ZM1159.27 39.532V45.928H1164.19V39.532H1159.27ZM1164.19 33.956H1159.27V38.876H1164.19V33.956ZM1164.19 46.584H1159.27V51.504H1164.19V46.584ZM1189.67 62.492C1183.4 62.492 1178.32 57.408 1178.32 51.135C1178.32 44.862 1183.4 39.778 1189.67 39.778C1195.95 39.778 1201.03 44.862 1201.03 51.135C1201.03 57.408 1195.95 62.492 1189.67 62.492ZM1189.67 61.836C1195.58 61.836 1200.37 57.039 1200.37 51.135C1200.37 45.231 1195.58 40.434 1189.67 40.434C1183.77 40.434 1178.97 45.231 1178.97 51.135C1178.97 57.039 1183.77 61.836 1189.67 61.836ZM1189.67 56.916C1186.47 56.916 1183.89 54.333 1183.89 51.135C1183.89 47.937 1186.47 45.354 1189.67 45.354C1192.87 45.354 1195.45 47.937 1195.45 51.135C1195.45 54.333 1192.87 56.916 1189.67 56.916ZM1189.67 56.26C1192.5 56.26 1194.8 53.964 1194.8 51.135C1194.8 48.306 1192.5 46.01 1189.67 46.01C1186.84 46.01 1184.55 48.306 1184.55 51.135C1184.55 53.964 1186.84 56.26 1189.67 56.26ZM1209.55 62V42.689C1207.33 44.042 1204.63 46.83 1204.63 51.709V62H1203.97V40.27H1204.63V47.732C1205.65 44.903 1207.25 43.304 1209.55 41.951V40.27H1210.2V41.582C1211.84 40.762 1213.6 40.352 1215.33 40.352V41.008C1213.6 41.008 1211.8 41.459 1210.2 42.32V49.044C1211.14 47.199 1213.11 45.928 1215.33 45.928V46.584C1212.46 46.584 1210.2 48.88 1210.2 51.709V62H1209.55ZM1219.83 40.926H1216.59V40.27H1219.83V33.3H1220.49V40.27H1225.41V33.3H1226.06V40.27H1229.3V40.926H1226.06V45.846H1229.3V46.502H1226.06V62H1225.41V46.502H1220.49V62H1219.83V46.502H1216.59V45.846H1219.83V40.926ZM1225.41 40.926H1220.49V45.846H1225.41V40.926ZM1234.98 46.502V62H1234.33V46.502H1231.09V45.846H1234.33V40.926H1231.09V40.27H1234.33V38.466C1234.33 34.448 1237.57 31.25 1241.63 31.25H1244.78V31.906H1241.63C1237.89 31.906 1234.98 34.776 1234.98 38.466V40.27H1239.9V38.466C1239.9 37.564 1240.68 36.826 1241.63 36.826H1244.78V37.482H1241.63C1241.01 37.482 1240.56 37.933 1240.56 38.466V40.27H1244.78V40.926H1240.56V45.846H1244.78V46.502H1240.56V62H1239.9V46.502H1234.98ZM1234.98 40.926V45.846H1239.9V40.926H1234.98ZM1257.14 62.492C1250.87 62.492 1245.78 57.408 1245.78 51.135C1245.78 44.862 1250.87 39.778 1257.14 39.778C1263.41 39.778 1268.5 44.862 1268.5 51.135C1268.5 57.408 1263.41 62.492 1257.14 62.492ZM1257.14 61.836C1263.04 61.836 1267.84 57.039 1267.84 51.135C1267.84 45.231 1263.04 40.434 1257.14 40.434C1251.23 40.434 1246.44 45.231 1246.44 51.135C1246.44 57.039 1251.23 61.836 1257.14 61.836ZM1257.14 56.916C1253.94 56.916 1251.36 54.333 1251.36 51.135C1251.36 47.937 1253.94 45.354 1257.14 45.354C1260.34 45.354 1262.92 47.937 1262.92 51.135C1262.92 54.333 1260.34 56.916 1257.14 56.916ZM1257.14 56.26C1259.97 56.26 1262.26 53.964 1262.26 51.135C1262.26 48.306 1259.97 46.01 1257.14 46.01C1254.31 46.01 1252.01 48.306 1252.01 51.135C1252.01 53.964 1254.31 56.26 1257.14 56.26ZM1272.09 31.25V62H1271.44V31.25H1272.09ZM1277.67 31.25V62H1277.01V31.25H1277.67ZM1281.85 62V40.27H1282.5V62H1281.85ZM1288.08 40.27V62H1287.42V40.27H1288.08ZM1287.42 38.138V31.25H1288.08V38.138H1287.42ZM1282.5 31.25V38.138H1281.85V31.25H1282.5ZM1302.38 62.492C1296.11 62.492 1291.03 57.408 1291.03 51.135C1291.03 44.862 1296.11 39.778 1302.38 39.778C1308.66 39.778 1313.74 44.862 1313.74 51.135C1313.74 57.408 1308.66 62.492 1302.38 62.492ZM1302.38 61.836C1308.29 61.836 1313.08 57.039 1313.08 51.135C1313.08 45.231 1308.29 40.434 1302.38 40.434C1296.48 40.434 1291.68 45.231 1291.68 51.135C1291.68 57.039 1296.48 61.836 1302.38 61.836ZM1302.38 56.916C1299.18 56.916 1296.6 54.333 1296.6 51.135C1296.6 47.937 1299.18 45.354 1302.38 45.354C1305.58 45.354 1308.16 47.937 1308.16 51.135C1308.16 54.333 1305.58 56.916 1302.38 56.916ZM1302.38 56.26C1305.21 56.26 1307.51 53.964 1307.51 51.135C1307.51 48.306 1305.21 46.01 1302.38 46.01C1299.55 46.01 1297.26 48.306 1297.26 51.135C1297.26 53.964 1299.55 56.26 1302.38 56.26ZM1338.61 62H1337.96L1332.05 46.871V62H1331.4V39.532H1326.48V62H1325.82V33.3H1334.96C1340.21 33.3 1344.39 37.482 1344.39 42.73C1344.39 46.912 1342.3 49.372 1339.88 50.889L1344.19 62H1343.53L1339.35 51.217C1338.16 51.914 1336.48 52.529 1335.09 52.939L1338.61 62ZM1337.71 45.313L1339.64 50.274C1341.85 48.88 1343.74 46.584 1343.74 42.73C1343.74 37.81 1339.88 33.956 1334.96 33.956H1332.05V38.876H1334.96C1337.1 38.876 1338.82 40.598 1338.82 42.73C1338.82 43.714 1338.45 44.575 1337.71 45.313ZM1332.05 39.532V46.871L1333.61 46.543C1336.81 45.846 1338.16 44.493 1338.16 42.73C1338.16 40.926 1336.77 39.532 1334.96 39.532H1332.05ZM1326.48 33.956V38.876H1331.4V33.956H1326.48ZM1339.1 50.602L1337.22 45.764C1335.99 46.707 1334.55 47.035 1332.95 47.363L1334.84 52.283C1336.07 51.955 1338.08 51.217 1339.1 50.602ZM1345.88 51.135C1345.88 44.862 1350.96 39.778 1357.24 39.778C1362.24 39.778 1366.46 42.976 1367.98 47.486L1354.65 55.563C1355.43 56.014 1356.29 56.26 1357.24 56.26C1359.29 56.26 1361.05 55.03 1361.87 53.308L1362.48 53.595C1361.58 55.563 1359.57 56.916 1357.24 56.916C1356.05 56.916 1354.94 56.547 1354.04 55.932L1349.61 58.638C1351.54 60.606 1354.24 61.836 1357.24 61.836C1361.5 61.836 1365.23 59.294 1366.95 55.645L1367.53 55.932C1365.72 59.827 1361.79 62.492 1357.24 62.492C1350.96 62.492 1345.88 57.408 1345.88 51.135ZM1346.54 51.135C1346.54 52.324 1346.74 53.431 1347.07 54.497L1351.5 51.791C1351.46 51.586 1351.46 51.34 1351.46 51.135C1351.46 47.937 1354.04 45.354 1357.24 45.354C1358.43 45.354 1359.57 45.723 1360.48 46.338L1364.86 43.673C1362.94 41.664 1360.23 40.434 1357.24 40.434C1351.33 40.434 1346.54 45.231 1346.54 51.135ZM1347.31 55.112C1347.77 56.219 1348.38 57.244 1349.16 58.146L1353.46 55.522C1352.56 54.743 1351.91 53.677 1351.62 52.488L1347.31 55.112ZM1352.11 51.135V51.422L1359.86 46.707C1359.08 46.256 1358.18 46.01 1357.24 46.01C1354.41 46.01 1352.11 48.306 1352.11 51.135ZM1352.19 52.16C1352.44 53.349 1353.14 54.415 1354.08 55.153L1362.28 50.151C1362.03 48.962 1361.38 47.896 1360.43 47.117L1352.19 52.16ZM1361.05 46.789C1361.95 47.568 1362.61 48.593 1362.85 49.823L1367.2 47.158C1366.75 46.051 1366.09 45.067 1365.35 44.165L1361.05 46.789ZM1385.88 42.115V60.155C1388.63 58.474 1390.8 55.071 1390.8 51.135C1390.8 47.199 1388.63 43.796 1385.88 42.115ZM1380.1 39.778C1381.94 39.778 1383.67 40.229 1385.22 41.008V40.27H1385.88V41.377C1388.18 42.648 1389.94 44.944 1390.8 47.322V40.27H1391.46V62H1390.8V54.907C1389.98 57.244 1388.18 59.663 1385.88 60.934V62H1385.22V61.262C1383.67 62.041 1381.94 62.492 1380.1 62.492C1373.83 62.492 1368.74 57.408 1368.74 51.135C1368.74 44.862 1373.83 39.778 1380.1 39.778ZM1380.1 61.836C1381.94 61.836 1383.71 61.385 1385.22 60.565V53.841C1384.24 55.645 1382.31 56.916 1380.1 56.916C1376.9 56.916 1374.32 54.333 1374.32 51.135C1374.32 47.937 1376.9 45.354 1380.1 45.354C1382.31 45.354 1384.24 46.625 1385.22 48.47V41.746C1383.71 40.926 1381.94 40.434 1380.1 40.434C1374.19 40.434 1369.4 45.231 1369.4 51.135C1369.4 57.039 1374.19 61.836 1380.1 61.836ZM1380.1 56.26C1382.97 56.26 1385.22 53.964 1385.22 51.135C1385.22 48.306 1382.97 46.01 1380.1 46.01C1377.27 46.01 1374.97 48.306 1374.97 51.135C1374.97 53.964 1377.27 56.26 1380.1 56.26ZM1406.5 45.846V46.502H1405.31C1402.81 46.502 1400.68 48.634 1400.68 51.135C1400.68 53.636 1402.81 55.768 1405.31 55.768H1406.5V56.424H1405.31C1402.44 56.424 1400.02 54.005 1400.02 51.135C1400.02 48.265 1402.44 45.846 1405.31 45.846H1406.5ZM1406.5 40.926H1405.31C1399.7 40.926 1395.1 45.518 1395.1 51.135C1395.1 56.752 1399.7 61.344 1405.31 61.344H1406.5V62H1405.31C1399.33 62 1394.45 57.121 1394.45 51.135C1394.45 45.149 1399.33 40.27 1405.31 40.27H1406.5V40.926ZM1412.02 40.926H1408.78V40.27H1412.02V33.3H1412.68V40.27H1417.6V33.3H1418.25V40.27H1421.49V40.926H1418.25V45.846H1421.49V46.502H1418.25V62H1417.6V46.502H1412.68V62H1412.02V46.502H1408.78V45.846H1412.02V40.926ZM1417.6 40.926H1412.68V45.846H1417.6V40.926ZM1439.84 39.532V45.928H1442.75C1444.55 45.928 1445.95 44.534 1445.95 42.73C1445.95 40.926 1444.55 39.532 1442.75 39.532H1439.84ZM1439.84 38.876H1442.75C1444.88 38.876 1446.6 40.598 1446.6 42.73C1446.6 44.862 1444.88 46.584 1442.75 46.584H1439.84V51.504H1442.75C1447.67 51.504 1451.52 47.65 1451.52 42.73C1451.52 37.81 1447.67 33.956 1442.75 33.956H1439.84V38.876ZM1434.26 52.16V62H1433.61V33.3H1442.75C1448 33.3 1452.18 37.482 1452.18 42.73C1452.18 47.978 1448 52.16 1442.75 52.16H1439.84V62H1439.18V52.16H1434.26ZM1434.26 39.532V45.928H1439.18V39.532H1434.26ZM1439.18 33.956H1434.26V38.876H1439.18V33.956ZM1439.18 46.584H1434.26V51.504H1439.18V46.584ZM1464.66 62.492C1458.39 62.492 1453.3 57.408 1453.3 51.135C1453.3 44.862 1458.39 39.778 1464.66 39.778C1470.93 39.778 1476.02 44.862 1476.02 51.135C1476.02 57.408 1470.93 62.492 1464.66 62.492ZM1464.66 61.836C1470.56 61.836 1475.36 57.039 1475.36 51.135C1475.36 45.231 1470.56 40.434 1464.66 40.434C1458.76 40.434 1453.96 45.231 1453.96 51.135C1453.96 57.039 1458.76 61.836 1464.66 61.836ZM1464.66 56.916C1461.46 56.916 1458.88 54.333 1458.88 51.135C1458.88 47.937 1461.46 45.354 1464.66 45.354C1467.86 45.354 1470.44 47.937 1470.44 51.135C1470.44 54.333 1467.86 56.916 1464.66 56.916ZM1464.66 56.26C1467.49 56.26 1469.79 53.964 1469.79 51.135C1469.79 48.306 1467.49 46.01 1464.66 46.01C1461.83 46.01 1459.54 48.306 1459.54 51.135C1459.54 53.964 1461.83 56.26 1464.66 56.26ZM1484.53 62V42.689C1482.32 44.042 1479.61 46.83 1479.61 51.709V62H1478.96V40.27H1479.61V47.732C1480.64 44.903 1482.24 43.304 1484.53 41.951V40.27H1485.19V41.582C1486.83 40.762 1488.59 40.352 1490.31 40.352V41.008C1488.59 41.008 1486.79 41.459 1485.19 42.32V49.044C1486.13 47.199 1488.1 45.928 1490.31 45.928V46.584C1487.44 46.584 1485.19 48.88 1485.19 51.709V62H1484.53ZM1494.82 40.926H1491.58V40.27H1494.82V33.3H1495.48V40.27H1500.4V33.3H1501.05V40.27H1504.29V40.926H1501.05V45.846H1504.29V46.502H1501.05V62H1500.4V46.502H1495.48V62H1494.82V46.502H1491.58V45.846H1494.82V40.926ZM1500.4 40.926H1495.48V45.846H1500.4V40.926ZM1509.97 46.502V62H1509.32V46.502H1506.08V45.846H1509.32V40.926H1506.08V40.27H1509.32V38.466C1509.32 34.448 1512.55 31.25 1516.61 31.25H1519.77V31.906H1516.61C1512.88 31.906 1509.97 34.776 1509.97 38.466V40.27H1514.89V38.466C1514.89 37.564 1515.67 36.826 1516.61 36.826H1519.77V37.482H1516.61C1516 37.482 1515.55 37.933 1515.55 38.466V40.27H1519.77V40.926H1515.55V45.846H1519.77V46.502H1515.55V62H1514.89V46.502H1509.97ZM1509.97 40.926V45.846H1514.89V40.926H1509.97ZM1532.13 62.492C1525.85 62.492 1520.77 57.408 1520.77 51.135C1520.77 44.862 1525.85 39.778 1532.13 39.778C1538.4 39.778 1543.48 44.862 1543.48 51.135C1543.48 57.408 1538.4 62.492 1532.13 62.492ZM1532.13 61.836C1538.03 61.836 1542.83 57.039 1542.83 51.135C1542.83 45.231 1538.03 40.434 1532.13 40.434C1526.22 40.434 1521.43 45.231 1521.43 51.135C1521.43 57.039 1526.22 61.836 1532.13 61.836ZM1532.13 56.916C1528.93 56.916 1526.35 54.333 1526.35 51.135C1526.35 47.937 1528.93 45.354 1532.13 45.354C1535.32 45.354 1537.91 47.937 1537.91 51.135C1537.91 54.333 1535.32 56.916 1532.13 56.916ZM1532.13 56.26C1534.96 56.26 1537.25 53.964 1537.25 51.135C1537.25 48.306 1534.96 46.01 1532.13 46.01C1529.3 46.01 1527 48.306 1527 51.135C1527 53.964 1529.3 56.26 1532.13 56.26ZM1547.08 31.25V62H1546.42V31.25H1547.08ZM1552.66 31.25V62H1552V31.25H1552.66ZM1556.83 62V40.27H1557.49V62H1556.83ZM1563.07 40.27V62H1562.41V40.27H1563.07ZM1562.41 38.138V31.25H1563.07V38.138H1562.41ZM1557.49 31.25V38.138H1556.83V31.25H1557.49ZM1577.37 62.492C1571.1 62.492 1566.01 57.408 1566.01 51.135C1566.01 44.862 1571.1 39.778 1577.37 39.778C1583.64 39.778 1588.73 44.862 1588.73 51.135C1588.73 57.408 1583.64 62.492 1577.37 62.492ZM1577.37 61.836C1583.27 61.836 1588.07 57.039 1588.07 51.135C1588.07 45.231 1583.27 40.434 1577.37 40.434C1571.47 40.434 1566.67 45.231 1566.67 51.135C1566.67 57.039 1571.47 61.836 1577.37 61.836ZM1577.37 56.916C1574.17 56.916 1571.59 54.333 1571.59 51.135C1571.59 47.937 1574.17 45.354 1577.37 45.354C1580.57 45.354 1583.15 47.937 1583.15 51.135C1583.15 54.333 1580.57 56.916 1577.37 56.916ZM1577.37 56.26C1580.2 56.26 1582.5 53.964 1582.5 51.135C1582.5 48.306 1580.2 46.01 1577.37 46.01C1574.54 46.01 1572.25 48.306 1572.25 51.135C1572.25 53.964 1574.54 56.26 1577.37 56.26ZM1604.55 62H1603.9L1597.99 46.871V62H1597.34V39.532H1592.42V62H1591.76V33.3H1600.9C1606.15 33.3 1610.33 37.482 1610.33 42.73C1610.33 46.912 1608.24 49.372 1605.82 50.889L1610.13 62H1609.47L1605.29 51.217C1604.1 51.914 1602.42 52.529 1601.03 52.939L1604.55 62ZM1603.65 45.313L1605.58 50.274C1607.79 48.88 1609.68 46.584 1609.68 42.73C1609.68 37.81 1605.82 33.956 1600.9 33.956H1597.99V38.876H1600.9C1603.04 38.876 1604.76 40.598 1604.76 42.73C1604.76 43.714 1604.39 44.575 1603.65 45.313ZM1597.99 39.532V46.871L1599.55 46.543C1602.75 45.846 1604.1 44.493 1604.1 42.73C1604.1 40.926 1602.71 39.532 1600.9 39.532H1597.99ZM1592.42 33.956V38.876H1597.34V33.956H1592.42ZM1605.04 50.602L1603.16 45.764C1601.93 46.707 1600.49 47.035 1598.89 47.363L1600.78 52.283C1602.01 51.955 1604.02 51.217 1605.04 50.602ZM1611.82 51.135C1611.82 44.862 1616.9 39.778 1623.18 39.778C1628.18 39.778 1632.4 42.976 1633.92 47.486L1620.59 55.563C1621.37 56.014 1622.23 56.26 1623.18 56.26C1625.23 56.26 1626.99 55.03 1627.81 53.308L1628.42 53.595C1627.52 55.563 1625.51 56.916 1623.18 56.916C1621.99 56.916 1620.88 56.547 1619.98 55.932L1615.55 58.638C1617.48 60.606 1620.18 61.836 1623.18 61.836C1627.44 61.836 1631.17 59.294 1632.89 55.645L1633.47 55.932C1631.66 59.827 1627.73 62.492 1623.18 62.492C1616.9 62.492 1611.82 57.408 1611.82 51.135ZM1612.47 51.135C1612.47 52.324 1612.68 53.431 1613.01 54.497L1617.44 51.791C1617.39 51.586 1617.39 51.34 1617.39 51.135C1617.39 47.937 1619.98 45.354 1623.18 45.354C1624.36 45.354 1625.51 45.723 1626.41 46.338L1630.8 43.673C1628.87 41.664 1626.17 40.434 1623.18 40.434C1617.27 40.434 1612.47 45.231 1612.47 51.135ZM1613.25 55.112C1613.7 56.219 1614.32 57.244 1615.1 58.146L1619.4 55.522C1618.5 54.743 1617.85 53.677 1617.56 52.488L1613.25 55.112ZM1618.05 51.135V51.422L1625.8 46.707C1625.02 46.256 1624.12 46.01 1623.18 46.01C1620.35 46.01 1618.05 48.306 1618.05 51.135ZM1618.13 52.16C1618.38 53.349 1619.08 54.415 1620.02 55.153L1628.22 50.151C1627.97 48.962 1627.32 47.896 1626.37 47.117L1618.13 52.16ZM1626.99 46.789C1627.89 47.568 1628.55 48.593 1628.79 49.823L1633.14 47.158C1632.69 46.051 1632.03 45.067 1631.29 44.165L1626.99 46.789ZM1651.82 42.115V60.155C1654.57 58.474 1656.74 55.071 1656.74 51.135C1656.74 47.199 1654.57 43.796 1651.82 42.115ZM1646.04 39.778C1647.88 39.778 1649.6 40.229 1651.16 41.008V40.27H1651.82V41.377C1654.11 42.648 1655.88 44.944 1656.74 47.322V40.27H1657.39V62H1656.74V54.907C1655.92 57.244 1654.11 59.663 1651.82 60.934V62H1651.16V61.262C1649.6 62.041 1647.88 62.492 1646.04 62.492C1639.76 62.492 1634.68 57.408 1634.68 51.135C1634.68 44.862 1639.76 39.778 1646.04 39.778ZM1646.04 61.836C1647.88 61.836 1649.65 61.385 1651.16 60.565V53.841C1650.18 55.645 1648.25 56.916 1646.04 56.916C1642.84 56.916 1640.26 54.333 1640.26 51.135C1640.26 47.937 1642.84 45.354 1646.04 45.354C1648.25 45.354 1650.18 46.625 1651.16 48.47V41.746C1649.65 40.926 1647.88 40.434 1646.04 40.434C1640.13 40.434 1635.34 45.231 1635.34 51.135C1635.34 57.039 1640.13 61.836 1646.04 61.836ZM1646.04 56.26C1648.91 56.26 1651.16 53.964 1651.16 51.135C1651.16 48.306 1648.91 46.01 1646.04 46.01C1643.21 46.01 1640.91 48.306 1640.91 51.135C1640.91 53.964 1643.21 56.26 1646.04 56.26ZM1672.44 45.846V46.502H1671.25C1668.75 46.502 1666.62 48.634 1666.62 51.135C1666.62 53.636 1668.75 55.768 1671.25 55.768H1672.44V56.424H1671.25C1668.38 56.424 1665.96 54.005 1665.96 51.135C1665.96 48.265 1668.38 45.846 1671.25 45.846H1672.44ZM1672.44 40.926H1671.25C1665.63 40.926 1661.04 45.518 1661.04 51.135C1661.04 56.752 1665.63 61.344 1671.25 61.344H1672.44V62H1671.25C1665.27 62 1660.39 57.121 1660.39 51.135C1660.39 45.149 1665.27 40.27 1671.25 40.27H1672.44V40.926ZM1677.96 40.926H1674.72V40.27H1677.96V33.3H1678.62V40.27H1683.54V33.3H1684.19V40.27H1687.43V40.926H1684.19V45.846H1687.43V46.502H1684.19V62H1683.54V46.502H1678.62V62H1677.96V46.502H1674.72V45.846H1677.96V40.926ZM1683.54 40.926H1678.62V45.846H1683.54V40.926ZM1705.78 39.532V45.928H1708.69C1710.49 45.928 1711.89 44.534 1711.89 42.73C1711.89 40.926 1710.49 39.532 1708.69 39.532H1705.78ZM1705.78 38.876H1708.69C1710.82 38.876 1712.54 40.598 1712.54 42.73C1712.54 44.862 1710.82 46.584 1708.69 46.584H1705.78V51.504H1708.69C1713.61 51.504 1717.46 47.65 1717.46 42.73C1717.46 37.81 1713.61 33.956 1708.69 33.956H1705.78V38.876ZM1700.2 52.16V62H1699.55V33.3H1708.69C1713.94 33.3 1718.12 37.482 1718.12 42.73C1718.12 47.978 1713.94 52.16 1708.69 52.16H1705.78V62H1705.12V52.16H1700.2ZM1700.2 39.532V45.928H1705.12V39.532H1700.2ZM1705.12 33.956H1700.2V38.876H1705.12V33.956ZM1705.12 46.584H1700.2V51.504H1705.12V46.584ZM1730.6 62.492C1724.33 62.492 1719.24 57.408 1719.24 51.135C1719.24 44.862 1724.33 39.778 1730.6 39.778C1736.87 39.778 1741.96 44.862 1741.96 51.135C1741.96 57.408 1736.87 62.492 1730.6 62.492ZM1730.6 61.836C1736.5 61.836 1741.3 57.039 1741.3 51.135C1741.3 45.231 1736.5 40.434 1730.6 40.434C1724.7 40.434 1719.9 45.231 1719.9 51.135C1719.9 57.039 1724.7 61.836 1730.6 61.836ZM1730.6 56.916C1727.4 56.916 1724.82 54.333 1724.82 51.135C1724.82 47.937 1727.4 45.354 1730.6 45.354C1733.8 45.354 1736.38 47.937 1736.38 51.135C1736.38 54.333 1733.8 56.916 1730.6 56.916ZM1730.6 56.26C1733.43 56.26 1735.73 53.964 1735.73 51.135C1735.73 48.306 1733.43 46.01 1730.6 46.01C1727.77 46.01 1725.48 48.306 1725.48 51.135C1725.48 53.964 1727.77 56.26 1730.6 56.26ZM1750.47 62V42.689C1748.26 44.042 1745.55 46.83 1745.55 51.709V62H1744.9V40.27H1745.55V47.732C1746.58 44.903 1748.18 43.304 1750.47 41.951V40.27H1751.13V41.582C1752.77 40.762 1754.53 40.352 1756.25 40.352V41.008C1754.53 41.008 1752.73 41.459 1751.13 42.32V49.044C1752.07 47.199 1754.04 45.928 1756.25 45.928V46.584C1753.38 46.584 1751.13 48.88 1751.13 51.709V62H1750.47ZM1760.76 40.926H1757.52V40.27H1760.76V33.3H1761.42V40.27H1766.34V33.3H1766.99V40.27H1770.23V40.926H1766.99V45.846H1770.23V46.502H1766.99V62H1766.34V46.502H1761.42V62H1760.76V46.502H1757.52V45.846H1760.76V40.926ZM1766.34 40.926H1761.42V45.846H1766.34V40.926ZM1775.91 46.502V62H1775.25V46.502H1772.02V45.846H1775.25V40.926H1772.02V40.27H1775.25V38.466C1775.25 34.448 1778.49 31.25 1782.55 31.25H1785.71V31.906H1782.55C1778.82 31.906 1775.91 34.776 1775.91 38.466V40.27H1780.83V38.466C1780.83 37.564 1781.61 36.826 1782.55 36.826H1785.71V37.482H1782.55C1781.94 37.482 1781.49 37.933 1781.49 38.466V40.27H1785.71V40.926H1781.49V45.846H1785.71V46.502H1781.49V62H1780.83V46.502H1775.91ZM1775.91 40.926V45.846H1780.83V40.926H1775.91ZM1798.07 62.492C1791.79 62.492 1786.71 57.408 1786.71 51.135C1786.71 44.862 1791.79 39.778 1798.07 39.778C1804.34 39.778 1809.42 44.862 1809.42 51.135C1809.42 57.408 1804.34 62.492 1798.07 62.492ZM1798.07 61.836C1803.97 61.836 1808.77 57.039 1808.77 51.135C1808.77 45.231 1803.97 40.434 1798.07 40.434C1792.16 40.434 1787.37 45.231 1787.37 51.135C1787.37 57.039 1792.16 61.836 1798.07 61.836ZM1798.07 56.916C1794.87 56.916 1792.29 54.333 1792.29 51.135C1792.29 47.937 1794.87 45.354 1798.07 45.354C1801.26 45.354 1803.85 47.937 1803.85 51.135C1803.85 54.333 1801.26 56.916 1798.07 56.916ZM1798.07 56.26C1800.9 56.26 1803.19 53.964 1803.19 51.135C1803.19 48.306 1800.9 46.01 1798.07 46.01C1795.24 46.01 1792.94 48.306 1792.94 51.135C1792.94 53.964 1795.24 56.26 1798.07 56.26ZM1813.02 31.25V62H1812.36V31.25H1813.02ZM1818.59 31.25V62H1817.94V31.25H1818.59ZM1822.77 62V40.27H1823.43V62H1822.77ZM1829.01 40.27V62H1828.35V40.27H1829.01ZM1828.35 38.138V31.25H1829.01V38.138H1828.35ZM1823.43 31.25V38.138H1822.77V31.25H1823.43ZM1843.31 62.492C1837.04 62.492 1831.95 57.408 1831.95 51.135C1831.95 44.862 1837.04 39.778 1843.31 39.778C1849.58 39.778 1854.67 44.862 1854.67 51.135C1854.67 57.408 1849.58 62.492 1843.31 62.492ZM1843.31 61.836C1849.21 61.836 1854.01 57.039 1854.01 51.135C1854.01 45.231 1849.21 40.434 1843.31 40.434C1837.41 40.434 1832.61 45.231 1832.61 51.135C1832.61 57.039 1837.41 61.836 1843.31 61.836ZM1843.31 56.916C1840.11 56.916 1837.53 54.333 1837.53 51.135C1837.53 47.937 1840.11 45.354 1843.31 45.354C1846.51 45.354 1849.09 47.937 1849.09 51.135C1849.09 54.333 1846.51 56.916 1843.31 56.916ZM1843.31 56.26C1846.14 56.26 1848.44 53.964 1848.44 51.135C1848.44 48.306 1846.14 46.01 1843.31 46.01C1840.48 46.01 1838.19 48.306 1838.19 51.135C1838.19 53.964 1840.48 56.26 1843.31 56.26ZM1879.54 62H1878.88L1872.98 46.871V62H1872.32V39.532H1867.4V62H1866.75V33.3H1875.89C1881.14 33.3 1885.32 37.482 1885.32 42.73C1885.32 46.912 1883.23 49.372 1880.81 50.889L1885.12 62H1884.46L1880.28 51.217C1879.09 51.914 1877.41 52.529 1876.01 52.939L1879.54 62ZM1878.64 45.313L1880.57 50.274C1882.78 48.88 1884.67 46.584 1884.67 42.73C1884.67 37.81 1880.81 33.956 1875.89 33.956H1872.98V38.876H1875.89C1878.02 38.876 1879.75 40.598 1879.75 42.73C1879.75 43.714 1879.38 44.575 1878.64 45.313ZM1872.98 39.532V46.871L1874.54 46.543C1877.74 45.846 1879.09 44.493 1879.09 42.73C1879.09 40.926 1877.7 39.532 1875.89 39.532H1872.98ZM1867.4 33.956V38.876H1872.32V33.956H1867.4ZM1880.03 50.602L1878.15 45.764C1876.92 46.707 1875.48 47.035 1873.88 47.363L1875.77 52.283C1877 51.955 1879.01 51.217 1880.03 50.602ZM1886.81 51.135C1886.81 44.862 1891.89 39.778 1898.16 39.778C1903.17 39.778 1907.39 42.976 1908.91 47.486L1895.58 55.563C1896.36 56.014 1897.22 56.26 1898.16 56.26C1900.21 56.26 1901.98 55.03 1902.8 53.308L1903.41 53.595C1902.51 55.563 1900.5 56.916 1898.16 56.916C1896.97 56.916 1895.87 56.547 1894.97 55.932L1890.54 58.638C1892.46 60.606 1895.17 61.836 1898.16 61.836C1902.43 61.836 1906.16 59.294 1907.88 55.645L1908.45 55.932C1906.65 59.827 1902.71 62.492 1898.16 62.492C1891.89 62.492 1886.81 57.408 1886.81 51.135ZM1887.46 51.135C1887.46 52.324 1887.67 53.431 1888 54.497L1892.42 51.791C1892.38 51.586 1892.38 51.34 1892.38 51.135C1892.38 47.937 1894.97 45.354 1898.16 45.354C1899.35 45.354 1900.5 45.723 1901.4 46.338L1905.79 43.673C1903.86 41.664 1901.16 40.434 1898.16 40.434C1892.26 40.434 1887.46 45.231 1887.46 51.135ZM1888.24 55.112C1888.69 56.219 1889.31 57.244 1890.09 58.146L1894.39 55.522C1893.49 54.743 1892.83 53.677 1892.55 52.488L1888.24 55.112ZM1893.04 51.135V51.422L1900.79 46.707C1900.01 46.256 1899.11 46.01 1898.16 46.01C1895.33 46.01 1893.04 48.306 1893.04 51.135ZM1893.12 52.16C1893.37 53.349 1894.06 54.415 1895.01 55.153L1903.21 50.151C1902.96 48.962 1902.3 47.896 1901.36 47.117L1893.12 52.16ZM1901.98 46.789C1902.88 47.568 1903.53 48.593 1903.78 49.823L1908.13 47.158C1907.68 46.051 1907.02 45.067 1906.28 44.165L1901.98 46.789ZM1926.81 42.115V60.155C1929.55 58.474 1931.73 55.071 1931.73 51.135C1931.73 47.199 1929.55 43.796 1926.81 42.115ZM1921.03 39.778C1922.87 39.778 1924.59 40.229 1926.15 41.008V40.27H1926.81V41.377C1929.1 42.648 1930.87 44.944 1931.73 47.322V40.27H1932.38V62H1931.73V54.907C1930.91 57.244 1929.1 59.663 1926.81 60.934V62H1926.15V61.262C1924.59 62.041 1922.87 62.492 1921.03 62.492C1914.75 62.492 1909.67 57.408 1909.67 51.135C1909.67 44.862 1914.75 39.778 1921.03 39.778ZM1921.03 61.836C1922.87 61.836 1924.63 61.385 1926.15 60.565V53.841C1925.17 55.645 1923.24 56.916 1921.03 56.916C1917.83 56.916 1915.25 54.333 1915.25 51.135C1915.25 47.937 1917.83 45.354 1921.03 45.354C1923.24 45.354 1925.17 46.625 1926.15 48.47V41.746C1924.63 40.926 1922.87 40.434 1921.03 40.434C1915.12 40.434 1910.33 45.231 1910.33 51.135C1910.33 57.039 1915.12 61.836 1921.03 61.836ZM1921.03 56.26C1923.9 56.26 1926.15 53.964 1926.15 51.135C1926.15 48.306 1923.9 46.01 1921.03 46.01C1918.2 46.01 1915.9 48.306 1915.9 51.135C1915.9 53.964 1918.2 56.26 1921.03 56.26ZM1947.43 45.846V46.502H1946.24C1943.74 46.502 1941.61 48.634 1941.61 51.135C1941.61 53.636 1943.74 55.768 1946.24 55.768H1947.43V56.424H1946.24C1943.37 56.424 1940.95 54.005 1940.95 51.135C1940.95 48.265 1943.37 45.846 1946.24 45.846H1947.43ZM1947.43 40.926H1946.24C1940.62 40.926 1936.03 45.518 1936.03 51.135C1936.03 56.752 1940.62 61.344 1946.24 61.344H1947.43V62H1946.24C1940.25 62 1935.38 57.121 1935.38 51.135C1935.38 45.149 1940.25 40.27 1946.24 40.27H1947.43V40.926ZM1952.95 40.926H1949.71V40.27H1952.95V33.3H1953.6V40.27H1958.52V33.3H1959.18V40.27H1962.42V40.926H1959.18V45.846H1962.42V46.502H1959.18V62H1958.52V46.502H1953.6V62H1952.95V46.502H1949.71V45.846H1952.95V40.926ZM1958.52 40.926H1953.6V45.846H1958.52V40.926ZM885.337 92.532V98.928H888.248C890.052 98.928 891.446 97.534 891.446 95.73C891.446 93.926 890.052 92.532 888.248 92.532H885.337ZM885.337 91.876H888.248C890.38 91.876 892.102 93.598 892.102 95.73C892.102 97.862 890.38 99.584 888.248 99.584H885.337V104.504H888.248C893.168 104.504 897.022 100.65 897.022 95.73C897.022 90.81 893.168 86.956 888.248 86.956H885.337V91.876ZM879.761 105.16V115H879.105V86.3H888.248C893.496 86.3 897.678 90.482 897.678 95.73C897.678 100.978 893.496 105.16 888.248 105.16H885.337V115H884.681V105.16H879.761ZM879.761 92.532V98.928H884.681V92.532H879.761ZM884.681 86.956H879.761V91.876H884.681V86.956ZM884.681 99.584H879.761V104.504H884.681V99.584ZM910.16 115.492C903.887 115.492 898.803 110.408 898.803 104.135C898.803 97.862 903.887 92.778 910.16 92.778C916.433 92.778 921.517 97.862 921.517 104.135C921.517 110.408 916.433 115.492 910.16 115.492ZM910.16 114.836C916.064 114.836 920.861 110.039 920.861 104.135C920.861 98.231 916.064 93.434 910.16 93.434C904.256 93.434 899.459 98.231 899.459 104.135C899.459 110.039 904.256 114.836 910.16 114.836ZM910.16 109.916C906.962 109.916 904.379 107.333 904.379 104.135C904.379 100.937 906.962 98.354 910.16 98.354C913.358 98.354 915.941 100.937 915.941 104.135C915.941 107.333 913.358 109.916 910.16 109.916ZM910.16 109.26C912.989 109.26 915.285 106.964 915.285 104.135C915.285 101.306 912.989 99.01 910.16 99.01C907.331 99.01 905.035 101.306 905.035 104.135C905.035 106.964 907.331 109.26 910.16 109.26ZM930.033 115V95.689C927.819 97.042 925.113 99.83 925.113 104.709V115H924.457V93.27H925.113V100.732C926.138 97.903 927.737 96.304 930.033 94.951V93.27H930.689V94.582C932.329 93.762 934.092 93.352 935.814 93.352V94.008C934.092 94.008 932.288 94.459 930.689 95.32V102.044C931.632 100.199 933.6 98.928 935.814 98.928V99.584C932.944 99.584 930.689 101.88 930.689 104.709V115H930.033ZM940.32 93.926H937.081V93.27H940.32V86.3H940.976V93.27H945.896V86.3H946.552V93.27H949.791V93.926H946.552V98.846H949.791V99.502H946.552V115H945.896V99.502H940.976V115H940.32V99.502H937.081V98.846H940.32V93.926ZM945.896 93.926H940.976V98.846H945.896V93.926ZM955.47 99.502V115H954.814V99.502H951.575V98.846H954.814V93.926H951.575V93.27H954.814V91.466C954.814 87.448 958.053 84.25 962.112 84.25H965.269V84.906H962.112C958.381 84.906 955.47 87.776 955.47 91.466V93.27H960.39V91.466C960.39 90.564 961.169 89.826 962.112 89.826H965.269V90.482H962.112C961.497 90.482 961.046 90.933 961.046 91.466V93.27H965.269V93.926H961.046V98.846H965.269V99.502H961.046V115H960.39V99.502H955.47ZM955.47 93.926V98.846H960.39V93.926H955.47ZM977.626 115.492C971.353 115.492 966.269 110.408 966.269 104.135C966.269 97.862 971.353 92.778 977.626 92.778C983.899 92.778 988.983 97.862 988.983 104.135C988.983 110.408 983.899 115.492 977.626 115.492ZM977.626 114.836C983.53 114.836 988.327 110.039 988.327 104.135C988.327 98.231 983.53 93.434 977.626 93.434C971.722 93.434 966.925 98.231 966.925 104.135C966.925 110.039 971.722 114.836 977.626 114.836ZM977.626 109.916C974.428 109.916 971.845 107.333 971.845 104.135C971.845 100.937 974.428 98.354 977.626 98.354C980.824 98.354 983.407 100.937 983.407 104.135C983.407 107.333 980.824 109.916 977.626 109.916ZM977.626 109.26C980.455 109.26 982.751 106.964 982.751 104.135C982.751 101.306 980.455 99.01 977.626 99.01C974.797 99.01 972.501 101.306 972.501 104.135C972.501 106.964 974.797 109.26 977.626 109.26ZM992.579 84.25V115H991.923V84.25H992.579ZM998.155 84.25V115H997.499V84.25H998.155ZM1002.33 115V93.27H1002.99V115H1002.33ZM1008.56 93.27V115H1007.91V93.27H1008.56ZM1007.91 91.138V84.25H1008.56V91.138H1007.91ZM1002.99 84.25V91.138H1002.33V84.25H1002.99ZM1022.87 115.492C1016.6 115.492 1011.51 110.408 1011.51 104.135C1011.51 97.862 1016.6 92.778 1022.87 92.778C1029.14 92.778 1034.23 97.862 1034.23 104.135C1034.23 110.408 1029.14 115.492 1022.87 115.492ZM1022.87 114.836C1028.77 114.836 1033.57 110.039 1033.57 104.135C1033.57 98.231 1028.77 93.434 1022.87 93.434C1016.97 93.434 1012.17 98.231 1012.17 104.135C1012.17 110.039 1016.97 114.836 1022.87 114.836ZM1022.87 109.916C1019.67 109.916 1017.09 107.333 1017.09 104.135C1017.09 100.937 1019.67 98.354 1022.87 98.354C1026.07 98.354 1028.65 100.937 1028.65 104.135C1028.65 107.333 1026.07 109.916 1022.87 109.916ZM1022.87 109.26C1025.7 109.26 1027.99 106.964 1027.99 104.135C1027.99 101.306 1025.7 99.01 1022.87 99.01C1020.04 99.01 1017.74 101.306 1017.74 104.135C1017.74 106.964 1020.04 109.26 1022.87 109.26Z" fill="white"/>
</g>
<defs>
<clipPath id="clip0_443_857">
<rect width="1940" height="343" fill="white"/>
</clipPath>
</defs>
</svg>
