<svg width="1940" height="343" viewBox="0 0 1940 343" fill="none" xmlns="http://www.w3.org/2000/svg">
<g clip-path="url(#clip0_443_857)">
<rect width="1940" height="343" fill="white"/>
<rect x="-3.8999" width="80.3148" height="20.5514" rx="3" fill="#E14646" fill-opacity="0.3"/>
<path d="M3.75297 14V3.81818H7.19332C7.98877 3.81818 8.64171 3.95407 9.15212 4.22585C9.66254 4.49432 10.0404 4.86387 10.2856 5.33452C10.5309 5.80516 10.6535 6.34044 10.6535 6.94034C10.6535 7.54025 10.5309 8.07221 10.2856 8.53622C10.0404 9.00024 9.6642 9.36482 9.15709 9.62997C8.64999 9.89181 8.00203 10.0227 7.2132 10.0227H4.42911V8.90909H7.17343C7.71699 8.90909 8.15449 8.82955 8.48593 8.67045C8.82068 8.51136 9.06263 8.28598 9.21178 7.99432C9.36424 7.69934 9.44047 7.34801 9.44047 6.94034C9.44047 6.53267 9.36424 6.17637 9.21178 5.87145C9.05932 5.56652 8.81571 5.3312 8.48096 5.16548C8.1462 4.99645 7.70373 4.91193 7.15354 4.91193H4.98593V14H3.75297ZM8.54559 9.42614L11.0513 14H9.61945L7.15354 9.42614H8.54559ZM15.6686 14.1591C14.9328 14.1591 14.2981 13.9967 13.7645 13.6719C13.2342 13.3438 12.8249 12.8864 12.5365 12.2997C12.2515 11.7098 12.109 11.0237 12.109 10.2415C12.109 9.45928 12.2515 8.76989 12.5365 8.1733C12.8249 7.57339 13.2259 7.10606 13.7397 6.77131C14.2567 6.43324 14.8599 6.2642 15.5493 6.2642C15.947 6.2642 16.3398 6.33049 16.7276 6.46307C17.1154 6.59564 17.4684 6.81108 17.7865 7.10938C18.1047 7.40436 18.3583 7.79545 18.5472 8.28267C18.7361 8.76989 18.8306 9.36979 18.8306 10.0824V10.5795H12.9442V9.56534H17.6374C17.6374 9.13447 17.5512 8.75 17.3789 8.41193C17.2098 8.07386 16.9679 7.80705 16.653 7.61151C16.3415 7.41596 15.9736 7.31818 15.5493 7.31818C15.082 7.31818 14.6776 7.43419 14.3362 7.66619C13.9982 7.89489 13.738 8.19318 13.5557 8.56108C13.3734 8.92898 13.2823 9.32339 13.2823 9.74432V10.4205C13.2823 10.9972 13.3817 11.486 13.5806 11.8871C13.7827 12.2848 14.0628 12.5881 14.4208 12.7969C14.7787 13.0024 15.1947 13.1051 15.6686 13.1051C15.9769 13.1051 16.2553 13.062 16.5039 12.9759C16.7558 12.8864 16.9728 12.7538 17.1551 12.5781C17.3374 12.3991 17.4783 12.1771 17.5777 11.9119L18.7112 12.2301C18.5919 12.6146 18.3914 12.9527 18.1097 13.2443C17.828 13.5327 17.48 13.758 17.0657 13.9205C16.6514 14.0795 16.1857 14.1591 15.6686 14.1591ZM23.4989 14.1591C22.8625 14.1591 22.3007 13.9983 21.8135 13.6768C21.3263 13.352 20.9451 12.8946 20.6701 12.3047C20.395 11.7114 20.2574 11.0104 20.2574 10.2017C20.2574 9.39962 20.395 8.7036 20.6701 8.11364C20.9451 7.52367 21.328 7.06794 21.8185 6.74645C22.309 6.42495 22.8758 6.2642 23.5188 6.2642C24.0159 6.2642 24.4087 6.34706 24.697 6.51278C24.9887 6.67519 25.2108 6.8608 25.3632 7.0696C25.519 7.27509 25.64 7.44413 25.7262 7.5767H25.8256V3.81818H26.9989V14H25.8654V12.8267H25.7262C25.64 12.9659 25.5174 13.1416 25.3583 13.3537C25.1992 13.5625 24.9721 13.7498 24.6772 13.9155C24.3822 14.0779 23.9894 14.1591 23.4989 14.1591ZM23.658 13.1051C24.1286 13.1051 24.5264 12.9825 24.8512 12.7372C25.176 12.4886 25.4229 12.1456 25.5919 11.7081C25.761 11.2673 25.8455 10.7585 25.8455 10.1818C25.8455 9.61174 25.7626 9.11293 25.5969 8.68537C25.4312 8.2545 25.1859 7.91974 24.8611 7.68111C24.5363 7.43916 24.1353 7.31818 23.658 7.31818C23.1608 7.31818 22.7465 7.44579 22.4151 7.70099C22.087 7.95289 21.84 8.29593 21.6743 8.73011C21.5119 9.16098 21.4307 9.64489 21.4307 10.1818C21.4307 10.7254 21.5136 11.2192 21.6793 11.6634C21.8483 12.1042 22.0969 12.4555 22.425 12.7173C22.7565 12.9759 23.1675 13.1051 23.658 13.1051ZM36.5692 6.36364V7.35795H32.6118V6.36364H36.5692ZM33.7652 4.53409H34.9385V11.8125C34.9385 12.1439 34.9866 12.3925 35.0827 12.5582C35.1821 12.7206 35.3081 12.83 35.4605 12.8864C35.6163 12.9394 35.7804 12.9659 35.9527 12.9659C36.082 12.9659 36.188 12.9593 36.2709 12.946C36.3538 12.9295 36.4201 12.9162 36.4698 12.9062L36.7084 13.9602C36.6289 13.9901 36.5178 14.0199 36.3753 14.0497C36.2328 14.0829 36.0522 14.0994 35.8334 14.0994C35.502 14.0994 35.1772 14.0282 34.859 13.8857C34.5441 13.7431 34.2823 13.526 34.0735 13.2344C33.868 12.9427 33.7652 12.5748 33.7652 12.1307V4.53409ZM40.5813 14.179C40.0974 14.179 39.6582 14.0878 39.2638 13.9055C38.8694 13.7199 38.5562 13.4531 38.3242 13.1051C38.0922 12.7538 37.9762 12.3295 37.9762 11.8324C37.9762 11.3949 38.0623 11.0402 38.2347 10.7685C38.407 10.4934 38.6374 10.2779 38.9257 10.1222C39.2141 9.96638 39.5323 9.85038 39.8803 9.77415C40.2316 9.6946 40.5846 9.63163 40.9392 9.58523C41.4032 9.52557 41.7794 9.48082 42.0678 9.45099C42.3594 9.41785 42.5716 9.36316 42.7041 9.28693C42.84 9.2107 42.908 9.07812 42.908 8.8892V8.84943C42.908 8.3589 42.7737 7.97775 42.5053 7.70597C42.2401 7.43419 41.8374 7.2983 41.2972 7.2983C40.7371 7.2983 40.2979 7.42093 39.9797 7.66619C39.6615 7.91146 39.4378 8.1733 39.3085 8.4517L38.1949 8.05398C38.3938 7.58996 38.6589 7.22869 38.9904 6.97017C39.3251 6.70833 39.6897 6.52604 40.0841 6.4233C40.4818 6.31723 40.8729 6.2642 41.2574 6.2642C41.5027 6.2642 41.7844 6.29403 42.1026 6.35369C42.4241 6.41004 42.734 6.5277 43.0323 6.70668C43.3339 6.88565 43.5841 7.15578 43.783 7.51705C43.9818 7.87831 44.0813 8.36222 44.0813 8.96875V14H42.908V12.9659H42.8483C42.7688 13.1316 42.6362 13.3089 42.4506 13.4979C42.265 13.6868 42.0181 13.8475 41.7098 13.9801C41.4016 14.1127 41.0254 14.179 40.5813 14.179ZM40.7603 13.125C41.2243 13.125 41.6154 13.0339 41.9335 12.8516C42.255 12.6693 42.497 12.4339 42.6594 12.1456C42.8251 11.8572 42.908 11.554 42.908 11.2358V10.1619C42.8583 10.2216 42.7489 10.2763 42.5799 10.326C42.4141 10.3724 42.2219 10.4138 42.0032 10.4503C41.7877 10.4834 41.5773 10.5133 41.3718 10.5398C41.1696 10.563 41.0055 10.5829 40.8796 10.5994C40.5746 10.6392 40.2896 10.7038 40.0245 10.7933C39.7626 10.8795 39.5505 11.0104 39.3881 11.1861C39.229 11.3584 39.1495 11.5937 39.1495 11.892C39.1495 12.2997 39.3003 12.608 39.6019 12.8168C39.9068 13.0223 40.2929 13.125 40.7603 13.125ZM49.3052 17.0227C48.7384 17.0227 48.2512 16.9498 47.8435 16.804C47.4359 16.6615 47.0961 16.4725 46.8244 16.2372C46.5559 16.0052 46.3421 15.7566 46.183 15.4915L47.1177 14.8352C47.2237 14.9744 47.358 15.1335 47.5204 15.3125C47.6828 15.4948 47.9048 15.6522 48.1866 15.7848C48.4716 15.9207 48.8445 15.9886 49.3052 15.9886C49.9217 15.9886 50.4304 15.8395 50.8315 15.5412C51.2325 15.2429 51.433 14.7756 51.433 14.1392V12.5881H51.3336C51.2474 12.7273 51.1248 12.8996 50.9657 13.1051C50.8099 13.3073 50.5845 13.4879 50.2896 13.647C49.9979 13.8028 49.6035 13.8807 49.1063 13.8807C48.4898 13.8807 47.9363 13.7348 47.4458 13.4432C46.9586 13.1515 46.5725 12.7273 46.2874 12.1705C46.0057 11.6136 45.8648 10.9375 45.8648 10.142C45.8648 9.35985 46.0024 8.67874 46.2775 8.09872C46.5526 7.51539 46.9354 7.06463 47.4259 6.74645C47.9164 6.42495 48.4832 6.2642 49.1262 6.2642C49.6234 6.2642 50.0178 6.34706 50.3094 6.51278C50.6044 6.67519 50.8298 6.8608 50.9856 7.0696C51.1447 7.27509 51.2673 7.44413 51.3535 7.5767H51.4728V6.36364H52.6063V14.2188C52.6063 14.875 52.4572 15.4086 52.1589 15.8196C51.8639 16.2339 51.4662 16.5372 50.9657 16.7294C50.4685 16.925 49.915 17.0227 49.3052 17.0227ZM49.2654 12.8267C49.736 12.8267 50.1338 12.719 50.4586 12.5036C50.7834 12.2881 51.0303 11.9782 51.1994 11.5739C51.3684 11.1695 51.4529 10.6856 51.4529 10.1222C51.4529 9.57197 51.37 9.08641 51.2043 8.66548C51.0386 8.24455 50.7933 7.91477 50.4685 7.67614C50.1437 7.4375 49.7427 7.31818 49.2654 7.31818C48.7682 7.31818 48.3539 7.44413 48.0225 7.69602C47.6944 7.94792 47.4475 8.28598 47.2817 8.71023C47.1193 9.13447 47.0381 9.60511 47.0381 10.1222C47.0381 10.6525 47.121 11.1214 47.2867 11.5291C47.4557 11.9335 47.7043 12.2517 48.0324 12.4837C48.3639 12.7124 48.7749 12.8267 49.2654 12.8267Z" fill="#37352F"/>
<path d="M-4 0H1944V343H-4V0Z" fill="#CCFFE2"/>
<path fill-rule="evenodd" clip-rule="evenodd" d="M1943.55 237.166V343H475.379C535.532 293.689 599.915 248.214 668.419 207.174C1082.63 -40.9782 1540.57 29.3675 1943.55 237.166Z" fill="#FFECEA"/>
<path fill-rule="evenodd" clip-rule="evenodd" d="M1373.87 169.08C1373.93 113.585 1408.92 58.5252 1467.21 46.2886C1518.96 35.4249 1554.8 83.747 1584.16 124.933C1611.76 163.654 1640.07 210.579 1611.16 248.223C1579.64 289.281 1518.29 294.69 1466.96 277.572C1415.17 260.296 1373.82 220.063 1373.87 169.08Z" fill="#0018A4"/>
<path fill-rule="evenodd" clip-rule="evenodd" d="M135.668 64.0355C166.613 63.0843 197.932 81.711 205.784 114.146C212.755 142.942 186.443 163.876 163.996 181.054C142.892 197.204 117.226 213.893 95.7253 198.369C72.2753 181.438 68.1762 147.165 76.8156 118.11C85.5343 88.7876 107.239 64.9093 135.668 64.0355Z" fill="white"/>
<rect x="-4" width="1944" height="100" fill="#0018A4"/>
<path d="M-29.0816 62H-29.7376L-35.6416 46.871V62H-36.2976V39.532H-41.2176V62H-41.8736V33.3H-32.7306C-27.4826 33.3 -23.3006 37.482 -23.3006 42.73C-23.3006 46.912 -25.3916 49.372 -27.8106 50.889L-23.5056 62H-24.1616L-28.3436 51.217C-29.5326 51.914 -31.2136 52.529 -32.6076 52.939L-29.0816 62ZM-29.9836 45.313L-28.0566 50.274C-25.8426 48.88 -23.9566 46.584 -23.9566 42.73C-23.9566 37.81 -27.8106 33.956 -32.7306 33.956H-35.6416V38.876H-32.7306C-30.5986 38.876 -28.8766 40.598 -28.8766 42.73C-28.8766 43.714 -29.2456 44.575 -29.9836 45.313ZM-35.6416 39.532V46.871L-34.0836 46.543C-30.8856 45.846 -29.5326 44.493 -29.5326 42.73C-29.5326 40.926 -30.9266 39.532 -32.7306 39.532H-35.6416ZM-41.2176 33.956V38.876H-36.2976V33.956H-41.2176ZM-28.5896 50.602L-30.4756 45.764C-31.7056 46.707 -33.1406 47.035 -34.7396 47.363L-32.8536 52.283C-31.6236 51.955 -29.6146 51.217 -28.5896 50.602ZM-21.8153 51.135C-21.8153 44.862 -16.7313 39.778 -10.4583 39.778C-5.45627 39.778 -1.23327 42.976 0.283731 47.486L-13.0413 55.563C-12.2623 56.014 -11.4013 56.26 -10.4583 56.26C-8.40827 56.26 -6.64527 55.03 -5.82527 53.308L-5.21027 53.595C-6.11227 55.563 -8.12127 56.916 -10.4583 56.916C-11.6473 56.916 -12.7543 56.547 -13.6563 55.932L-18.0843 58.638C-16.1573 60.606 -13.4513 61.836 -10.4583 61.836C-6.19427 61.836 -2.46327 59.294 -0.741268 55.645L-0.167269 55.932C-1.97127 59.827 -5.90727 62.492 -10.4583 62.492C-16.7313 62.492 -21.8153 57.408 -21.8153 51.135ZM-21.1593 51.135C-21.1593 52.324 -20.9543 53.431 -20.6263 54.497L-16.1983 51.791C-16.2393 51.586 -16.2393 51.34 -16.2393 51.135C-16.2393 47.937 -13.6563 45.354 -10.4583 45.354C-9.26927 45.354 -8.12127 45.723 -7.21927 46.338L-2.83227 43.673C-4.75927 41.664 -7.46527 40.434 -10.4583 40.434C-16.3623 40.434 -21.1593 45.231 -21.1593 51.135ZM-20.3803 55.112C-19.9293 56.219 -19.3143 57.244 -18.5353 58.146L-14.2303 55.522C-15.1323 54.743 -15.7883 53.677 -16.0753 52.488L-20.3803 55.112ZM-15.5833 51.135V51.422L-7.83427 46.707C-8.61327 46.256 -9.51527 46.01 -10.4583 46.01C-13.2873 46.01 -15.5833 48.306 -15.5833 51.135ZM-15.5013 52.16C-15.2553 53.349 -14.5583 54.415 -13.6153 55.153L-5.41527 50.151C-5.66127 48.962 -6.31727 47.896 -7.26027 47.117L-15.5013 52.16ZM-6.64527 46.789C-5.74327 47.568 -5.08727 48.593 -4.84127 49.823L-0.495269 47.158C-0.946268 46.051 -1.60227 45.067 -2.34027 44.165L-6.64527 46.789ZM18.185 42.115V60.155C20.932 58.474 23.105 55.071 23.105 51.135C23.105 47.199 20.932 43.796 18.185 42.115ZM12.404 39.778C14.249 39.778 15.971 40.229 17.529 41.008V40.27H18.185V41.377C20.481 42.648 22.244 44.944 23.105 47.322V40.27H23.761V62H23.105V54.907C22.285 57.244 20.481 59.663 18.185 60.934V62H17.529V61.262C15.971 62.041 14.249 62.492 12.404 62.492C6.13104 62.492 1.04704 57.408 1.04704 51.135C1.04704 44.862 6.13104 39.778 12.404 39.778ZM12.404 61.836C14.249 61.836 16.012 61.385 17.529 60.565V53.841C16.545 55.645 14.618 56.916 12.404 56.916C9.20604 56.916 6.62304 54.333 6.62304 51.135C6.62304 47.937 9.20604 45.354 12.404 45.354C14.618 45.354 16.545 46.625 17.529 48.47V41.746C16.012 40.926 14.249 40.434 12.404 40.434C6.50004 40.434 1.70304 45.231 1.70304 51.135C1.70304 57.039 6.50004 61.836 12.404 61.836ZM12.404 56.26C15.274 56.26 17.529 53.964 17.529 51.135C17.529 48.306 15.274 46.01 12.404 46.01C9.57504 46.01 7.27904 48.306 7.27904 51.135C7.27904 53.964 9.57504 56.26 12.404 56.26ZM38.8071 45.846V46.502H37.6181C35.1171 46.502 32.9851 48.634 32.9851 51.135C32.9851 53.636 35.1171 55.768 37.6181 55.768H38.8071V56.424H37.6181C34.7481 56.424 32.3291 54.005 32.3291 51.135C32.3291 48.265 34.7481 45.846 37.6181 45.846H38.8071ZM38.8071 40.926H37.6181C32.0011 40.926 27.4091 45.518 27.4091 51.135C27.4091 56.752 32.0011 61.344 37.6181 61.344H38.8071V62H37.6181C31.6321 62 26.7531 57.121 26.7531 51.135C26.7531 45.149 31.6321 40.27 37.6181 40.27H38.8071V40.926ZM44.3261 40.926H41.0871V40.27H44.3261V33.3H44.9821V40.27H49.9021V33.3H50.5581V40.27H53.7971V40.926H50.5581V45.846H53.7971V46.502H50.5581V62H49.9021V46.502H44.9821V62H44.3261V46.502H41.0871V45.846H44.3261V40.926ZM49.9021 40.926H44.9821V45.846H49.9021V40.926ZM72.1436 39.532V45.928H75.0546C76.8586 45.928 78.2526 44.534 78.2526 42.73C78.2526 40.926 76.8586 39.532 75.0546 39.532H72.1436ZM72.1436 38.876H75.0546C77.1866 38.876 78.9086 40.598 78.9086 42.73C78.9086 44.862 77.1866 46.584 75.0546 46.584H72.1436V51.504H75.0546C79.9746 51.504 83.8286 47.65 83.8286 42.73C83.8286 37.81 79.9746 33.956 75.0546 33.956H72.1436V38.876ZM66.5676 52.16V62H65.9116V33.3H75.0546C80.3026 33.3 84.4846 37.482 84.4846 42.73C84.4846 47.978 80.3026 52.16 75.0546 52.16H72.1436V62H71.4876V52.16H66.5676ZM66.5676 39.532V45.928H71.4876V39.532H66.5676ZM71.4876 33.956H66.5676V38.876H71.4876V33.956ZM71.4876 46.584H66.5676V51.504H71.4876V46.584ZM96.9665 62.492C90.6935 62.492 85.6095 57.408 85.6095 51.135C85.6095 44.862 90.6935 39.778 96.9665 39.778C103.24 39.778 108.324 44.862 108.324 51.135C108.324 57.408 103.24 62.492 96.9665 62.492ZM96.9665 61.836C102.871 61.836 107.668 57.039 107.668 51.135C107.668 45.231 102.871 40.434 96.9665 40.434C91.0625 40.434 86.2655 45.231 86.2655 51.135C86.2655 57.039 91.0625 61.836 96.9665 61.836ZM96.9665 56.916C93.7685 56.916 91.1855 54.333 91.1855 51.135C91.1855 47.937 93.7685 45.354 96.9665 45.354C100.165 45.354 102.748 47.937 102.748 51.135C102.748 54.333 100.165 56.916 96.9665 56.916ZM96.9665 56.26C99.7955 56.26 102.092 53.964 102.092 51.135C102.092 48.306 99.7955 46.01 96.9665 46.01C94.1375 46.01 91.8415 48.306 91.8415 51.135C91.8415 53.964 94.1375 56.26 96.9665 56.26ZM116.839 62V42.689C114.625 44.042 111.919 46.83 111.919 51.709V62H111.263V40.27H111.919V47.732C112.944 44.903 114.543 43.304 116.839 41.951V40.27H117.495V41.582C119.135 40.762 120.898 40.352 122.62 40.352V41.008C120.898 41.008 119.094 41.459 117.495 42.32V49.044C118.438 47.199 120.406 45.928 122.62 45.928V46.584C119.75 46.584 117.495 48.88 117.495 51.709V62H116.839ZM127.127 40.926H123.888V40.27H127.127V33.3H127.783V40.27H132.703V33.3H133.359V40.27H136.598V40.926H133.359V45.846H136.598V46.502H133.359V62H132.703V46.502H127.783V62H127.127V46.502H123.888V45.846H127.127V40.926ZM132.703 40.926H127.783V45.846H132.703V40.926ZM142.277 46.502V62H141.621V46.502H138.382V45.846H141.621V40.926H138.382V40.27H141.621V38.466C141.621 34.448 144.86 31.25 148.919 31.25H152.076V31.906H148.919C145.188 31.906 142.277 34.776 142.277 38.466V40.27H147.197V38.466C147.197 37.564 147.976 36.826 148.919 36.826H152.076V37.482H148.919C148.304 37.482 147.853 37.933 147.853 38.466V40.27H152.076V40.926H147.853V45.846H152.076V46.502H147.853V62H147.197V46.502H142.277ZM142.277 40.926V45.846H147.197V40.926H142.277ZM164.432 62.492C158.159 62.492 153.075 57.408 153.075 51.135C153.075 44.862 158.159 39.778 164.432 39.778C170.705 39.778 175.789 44.862 175.789 51.135C175.789 57.408 170.705 62.492 164.432 62.492ZM164.432 61.836C170.336 61.836 175.133 57.039 175.133 51.135C175.133 45.231 170.336 40.434 164.432 40.434C158.528 40.434 153.731 45.231 153.731 51.135C153.731 57.039 158.528 61.836 164.432 61.836ZM164.432 56.916C161.234 56.916 158.651 54.333 158.651 51.135C158.651 47.937 161.234 45.354 164.432 45.354C167.63 45.354 170.213 47.937 170.213 51.135C170.213 54.333 167.63 56.916 164.432 56.916ZM164.432 56.26C167.261 56.26 169.557 53.964 169.557 51.135C169.557 48.306 167.261 46.01 164.432 46.01C161.603 46.01 159.307 48.306 159.307 51.135C159.307 53.964 161.603 56.26 164.432 56.26ZM179.385 31.25V62H178.729V31.25H179.385ZM184.961 31.25V62H184.305V31.25H184.961ZM189.139 62V40.27H189.795V62H189.139ZM195.371 40.27V62H194.715V40.27H195.371ZM194.715 38.138V31.25H195.371V38.138H194.715ZM189.795 31.25V38.138H189.139V31.25H189.795ZM209.676 62.492C203.403 62.492 198.319 57.408 198.319 51.135C198.319 44.862 203.403 39.778 209.676 39.778C215.949 39.778 221.033 44.862 221.033 51.135C221.033 57.408 215.949 62.492 209.676 62.492ZM209.676 61.836C215.58 61.836 220.377 57.039 220.377 51.135C220.377 45.231 215.58 40.434 209.676 40.434C203.772 40.434 198.975 45.231 198.975 51.135C198.975 57.039 203.772 61.836 209.676 61.836ZM209.676 56.916C206.478 56.916 203.895 54.333 203.895 51.135C203.895 47.937 206.478 45.354 209.676 45.354C212.874 45.354 215.457 47.937 215.457 51.135C215.457 54.333 212.874 56.916 209.676 56.916ZM209.676 56.26C212.505 56.26 214.801 53.964 214.801 51.135C214.801 48.306 212.505 46.01 209.676 46.01C206.847 46.01 204.551 48.306 204.551 51.135C204.551 53.964 206.847 56.26 209.676 56.26ZM245.907 62H245.251L239.347 46.871V62H238.691V39.532H233.771V62H233.115V33.3H242.258C247.506 33.3 251.688 37.482 251.688 42.73C251.688 46.912 249.597 49.372 247.178 50.889L251.483 62H250.827L246.645 51.217C245.456 51.914 243.775 52.529 242.381 52.939L245.907 62ZM245.005 45.313L246.932 50.274C249.146 48.88 251.032 46.584 251.032 42.73C251.032 37.81 247.178 33.956 242.258 33.956H239.347V38.876H242.258C244.39 38.876 246.112 40.598 246.112 42.73C246.112 43.714 245.743 44.575 245.005 45.313ZM239.347 39.532V46.871L240.905 46.543C244.103 45.846 245.456 44.493 245.456 42.73C245.456 40.926 244.062 39.532 242.258 39.532H239.347ZM233.771 33.956V38.876H238.691V33.956H233.771ZM246.399 50.602L244.513 45.764C243.283 46.707 241.848 47.035 240.249 47.363L242.135 52.283C243.365 51.955 245.374 51.217 246.399 50.602ZM253.173 51.135C253.173 44.862 258.257 39.778 264.53 39.778C269.532 39.778 273.755 42.976 275.272 47.486L261.947 55.563C262.726 56.014 263.587 56.26 264.53 56.26C266.58 56.26 268.343 55.03 269.163 53.308L269.778 53.595C268.876 55.563 266.867 56.916 264.53 56.916C263.341 56.916 262.234 56.547 261.332 55.932L256.904 58.638C258.831 60.606 261.537 61.836 264.53 61.836C268.794 61.836 272.525 59.294 274.247 55.645L274.821 55.932C273.017 59.827 269.081 62.492 264.53 62.492C258.257 62.492 253.173 57.408 253.173 51.135ZM253.829 51.135C253.829 52.324 254.034 53.431 254.362 54.497L258.79 51.791C258.749 51.586 258.749 51.34 258.749 51.135C258.749 47.937 261.332 45.354 264.53 45.354C265.719 45.354 266.867 45.723 267.769 46.338L272.156 43.673C270.229 41.664 267.523 40.434 264.53 40.434C258.626 40.434 253.829 45.231 253.829 51.135ZM254.608 55.112C255.059 56.219 255.674 57.244 256.453 58.146L260.758 55.522C259.856 54.743 259.2 53.677 258.913 52.488L254.608 55.112ZM259.405 51.135V51.422L267.154 46.707C266.375 46.256 265.473 46.01 264.53 46.01C261.701 46.01 259.405 48.306 259.405 51.135ZM259.487 52.16C259.733 53.349 260.43 54.415 261.373 55.153L269.573 50.151C269.327 48.962 268.671 47.896 267.728 47.117L259.487 52.16ZM268.343 46.789C269.245 47.568 269.901 48.593 270.147 49.823L274.493 47.158C274.042 46.051 273.386 45.067 272.648 44.165L268.343 46.789ZM293.173 42.115V60.155C295.92 58.474 298.093 55.071 298.093 51.135C298.093 47.199 295.92 43.796 293.173 42.115ZM287.392 39.778C289.237 39.778 290.959 40.229 292.517 41.008V40.27H293.173V41.377C295.469 42.648 297.232 44.944 298.093 47.322V40.27H298.749V62H298.093V54.907C297.273 57.244 295.469 59.663 293.173 60.934V62H292.517V61.262C290.959 62.041 289.237 62.492 287.392 62.492C281.119 62.492 276.035 57.408 276.035 51.135C276.035 44.862 281.119 39.778 287.392 39.778ZM287.392 61.836C289.237 61.836 291 61.385 292.517 60.565V53.841C291.533 55.645 289.606 56.916 287.392 56.916C284.194 56.916 281.611 54.333 281.611 51.135C281.611 47.937 284.194 45.354 287.392 45.354C289.606 45.354 291.533 46.625 292.517 48.47V41.746C291 40.926 289.237 40.434 287.392 40.434C281.488 40.434 276.691 45.231 276.691 51.135C276.691 57.039 281.488 61.836 287.392 61.836ZM287.392 56.26C290.262 56.26 292.517 53.964 292.517 51.135C292.517 48.306 290.262 46.01 287.392 46.01C284.563 46.01 282.267 48.306 282.267 51.135C282.267 53.964 284.563 56.26 287.392 56.26ZM313.795 45.846V46.502H312.606C310.105 46.502 307.973 48.634 307.973 51.135C307.973 53.636 310.105 55.768 312.606 55.768H313.795V56.424H312.606C309.736 56.424 307.317 54.005 307.317 51.135C307.317 48.265 309.736 45.846 312.606 45.846H313.795ZM313.795 40.926H312.606C306.989 40.926 302.397 45.518 302.397 51.135C302.397 56.752 306.989 61.344 312.606 61.344H313.795V62H312.606C306.62 62 301.741 57.121 301.741 51.135C301.741 45.149 306.62 40.27 312.606 40.27H313.795V40.926ZM319.314 40.926H316.075V40.27H319.314V33.3H319.97V40.27H324.89V33.3H325.546V40.27H328.785V40.926H325.546V45.846H328.785V46.502H325.546V62H324.89V46.502H319.97V62H319.314V46.502H316.075V45.846H319.314V40.926ZM324.89 40.926H319.97V45.846H324.89V40.926ZM347.132 39.532V45.928H350.043C351.847 45.928 353.241 44.534 353.241 42.73C353.241 40.926 351.847 39.532 350.043 39.532H347.132ZM347.132 38.876H350.043C352.175 38.876 353.897 40.598 353.897 42.73C353.897 44.862 352.175 46.584 350.043 46.584H347.132V51.504H350.043C354.963 51.504 358.817 47.65 358.817 42.73C358.817 37.81 354.963 33.956 350.043 33.956H347.132V38.876ZM341.556 52.16V62H340.9V33.3H350.043C355.291 33.3 359.473 37.482 359.473 42.73C359.473 47.978 355.291 52.16 350.043 52.16H347.132V62H346.476V52.16H341.556ZM341.556 39.532V45.928H346.476V39.532H341.556ZM346.476 33.956H341.556V38.876H346.476V33.956ZM346.476 46.584H341.556V51.504H346.476V46.584ZM371.955 62.492C365.682 62.492 360.598 57.408 360.598 51.135C360.598 44.862 365.682 39.778 371.955 39.778C378.228 39.778 383.312 44.862 383.312 51.135C383.312 57.408 378.228 62.492 371.955 62.492ZM371.955 61.836C377.859 61.836 382.656 57.039 382.656 51.135C382.656 45.231 377.859 40.434 371.955 40.434C366.051 40.434 361.254 45.231 361.254 51.135C361.254 57.039 366.051 61.836 371.955 61.836ZM371.955 56.916C368.757 56.916 366.174 54.333 366.174 51.135C366.174 47.937 368.757 45.354 371.955 45.354C375.153 45.354 377.736 47.937 377.736 51.135C377.736 54.333 375.153 56.916 371.955 56.916ZM371.955 56.26C374.784 56.26 377.08 53.964 377.08 51.135C377.08 48.306 374.784 46.01 371.955 46.01C369.126 46.01 366.83 48.306 366.83 51.135C366.83 53.964 369.126 56.26 371.955 56.26ZM391.828 62V42.689C389.614 44.042 386.908 46.83 386.908 51.709V62H386.252V40.27H386.908V47.732C387.933 44.903 389.532 43.304 391.828 41.951V40.27H392.484V41.582C394.124 40.762 395.887 40.352 397.609 40.352V41.008C395.887 41.008 394.083 41.459 392.484 42.32V49.044C393.427 47.199 395.395 45.928 397.609 45.928V46.584C394.739 46.584 392.484 48.88 392.484 51.709V62H391.828ZM402.115 40.926H398.876V40.27H402.115V33.3H402.771V40.27H407.691V33.3H408.347V40.27H411.586V40.926H408.347V45.846H411.586V46.502H408.347V62H407.691V46.502H402.771V62H402.115V46.502H398.876V45.846H402.115V40.926ZM407.691 40.926H402.771V45.846H407.691V40.926ZM417.265 46.502V62H416.609V46.502H413.37V45.846H416.609V40.926H413.37V40.27H416.609V38.466C416.609 34.448 419.848 31.25 423.907 31.25H427.064V31.906H423.907C420.176 31.906 417.265 34.776 417.265 38.466V40.27H422.185V38.466C422.185 37.564 422.964 36.826 423.907 36.826H427.064V37.482H423.907C423.292 37.482 422.841 37.933 422.841 38.466V40.27H427.064V40.926H422.841V45.846H427.064V46.502H422.841V62H422.185V46.502H417.265ZM417.265 40.926V45.846H422.185V40.926H417.265ZM439.421 62.492C433.148 62.492 428.064 57.408 428.064 51.135C428.064 44.862 433.148 39.778 439.421 39.778C445.694 39.778 450.778 44.862 450.778 51.135C450.778 57.408 445.694 62.492 439.421 62.492ZM439.421 61.836C445.325 61.836 450.122 57.039 450.122 51.135C450.122 45.231 445.325 40.434 439.421 40.434C433.517 40.434 428.72 45.231 428.72 51.135C428.72 57.039 433.517 61.836 439.421 61.836ZM439.421 56.916C436.223 56.916 433.64 54.333 433.64 51.135C433.64 47.937 436.223 45.354 439.421 45.354C442.619 45.354 445.202 47.937 445.202 51.135C445.202 54.333 442.619 56.916 439.421 56.916ZM439.421 56.26C442.25 56.26 444.546 53.964 444.546 51.135C444.546 48.306 442.25 46.01 439.421 46.01C436.592 46.01 434.296 48.306 434.296 51.135C434.296 53.964 436.592 56.26 439.421 56.26ZM454.373 31.25V62H453.717V31.25H454.373ZM459.949 31.25V62H459.293V31.25H459.949ZM464.128 62V40.27H464.784V62H464.128ZM470.36 40.27V62H469.704V40.27H470.36ZM469.704 38.138V31.25H470.36V38.138H469.704ZM464.784 31.25V38.138H464.128V31.25H464.784ZM484.665 62.492C478.392 62.492 473.308 57.408 473.308 51.135C473.308 44.862 478.392 39.778 484.665 39.778C490.938 39.778 496.022 44.862 496.022 51.135C496.022 57.408 490.938 62.492 484.665 62.492ZM484.665 61.836C490.569 61.836 495.366 57.039 495.366 51.135C495.366 45.231 490.569 40.434 484.665 40.434C478.761 40.434 473.964 45.231 473.964 51.135C473.964 57.039 478.761 61.836 484.665 61.836ZM484.665 56.916C481.467 56.916 478.884 54.333 478.884 51.135C478.884 47.937 481.467 45.354 484.665 45.354C487.863 45.354 490.446 47.937 490.446 51.135C490.446 54.333 487.863 56.916 484.665 56.916ZM484.665 56.26C487.494 56.26 489.79 53.964 489.79 51.135C489.79 48.306 487.494 46.01 484.665 46.01C481.836 46.01 479.54 48.306 479.54 51.135C479.54 53.964 481.836 56.26 484.665 56.26ZM520.895 62H520.239L514.335 46.871V62H513.679V39.532H508.759V62H508.103V33.3H517.246C522.494 33.3 526.676 37.482 526.676 42.73C526.676 46.912 524.585 49.372 522.166 50.889L526.471 62H525.815L521.633 51.217C520.444 51.914 518.763 52.529 517.369 52.939L520.895 62ZM519.993 45.313L521.92 50.274C524.134 48.88 526.02 46.584 526.02 42.73C526.02 37.81 522.166 33.956 517.246 33.956H514.335V38.876H517.246C519.378 38.876 521.1 40.598 521.1 42.73C521.1 43.714 520.731 44.575 519.993 45.313ZM514.335 39.532V46.871L515.893 46.543C519.091 45.846 520.444 44.493 520.444 42.73C520.444 40.926 519.05 39.532 517.246 39.532H514.335ZM508.759 33.956V38.876H513.679V33.956H508.759ZM521.387 50.602L519.501 45.764C518.271 46.707 516.836 47.035 515.237 47.363L517.123 52.283C518.353 51.955 520.362 51.217 521.387 50.602ZM528.161 51.135C528.161 44.862 533.245 39.778 539.518 39.778C544.52 39.778 548.743 42.976 550.26 47.486L536.935 55.563C537.714 56.014 538.575 56.26 539.518 56.26C541.568 56.26 543.331 55.03 544.151 53.308L544.766 53.595C543.864 55.563 541.855 56.916 539.518 56.916C538.329 56.916 537.222 56.547 536.32 55.932L531.892 58.638C533.819 60.606 536.525 61.836 539.518 61.836C543.782 61.836 547.513 59.294 549.235 55.645L549.809 55.932C548.005 59.827 544.069 62.492 539.518 62.492C533.245 62.492 528.161 57.408 528.161 51.135ZM528.817 51.135C528.817 52.324 529.022 53.431 529.35 54.497L533.778 51.791C533.737 51.586 533.737 51.34 533.737 51.135C533.737 47.937 536.32 45.354 539.518 45.354C540.707 45.354 541.855 45.723 542.757 46.338L547.144 43.673C545.217 41.664 542.511 40.434 539.518 40.434C533.614 40.434 528.817 45.231 528.817 51.135ZM529.596 55.112C530.047 56.219 530.662 57.244 531.441 58.146L535.746 55.522C534.844 54.743 534.188 53.677 533.901 52.488L529.596 55.112ZM534.393 51.135V51.422L542.142 46.707C541.363 46.256 540.461 46.01 539.518 46.01C536.689 46.01 534.393 48.306 534.393 51.135ZM534.475 52.16C534.721 53.349 535.418 54.415 536.361 55.153L544.561 50.151C544.315 48.962 543.659 47.896 542.716 47.117L534.475 52.16ZM543.331 46.789C544.233 47.568 544.889 48.593 545.135 49.823L549.481 47.158C549.03 46.051 548.374 45.067 547.636 44.165L543.331 46.789ZM568.162 42.115V60.155C570.909 58.474 573.082 55.071 573.082 51.135C573.082 47.199 570.909 43.796 568.162 42.115ZM562.381 39.778C564.226 39.778 565.948 40.229 567.506 41.008V40.27H568.162V41.377C570.458 42.648 572.221 44.944 573.082 47.322V40.27H573.738V62H573.082V54.907C572.262 57.244 570.458 59.663 568.162 60.934V62H567.506V61.262C565.948 62.041 564.226 62.492 562.381 62.492C556.108 62.492 551.024 57.408 551.024 51.135C551.024 44.862 556.108 39.778 562.381 39.778ZM562.381 61.836C564.226 61.836 565.989 61.385 567.506 60.565V53.841C566.522 55.645 564.595 56.916 562.381 56.916C559.183 56.916 556.6 54.333 556.6 51.135C556.6 47.937 559.183 45.354 562.381 45.354C564.595 45.354 566.522 46.625 567.506 48.47V41.746C565.989 40.926 564.226 40.434 562.381 40.434C556.477 40.434 551.68 45.231 551.68 51.135C551.68 57.039 556.477 61.836 562.381 61.836ZM562.381 56.26C565.251 56.26 567.506 53.964 567.506 51.135C567.506 48.306 565.251 46.01 562.381 46.01C559.552 46.01 557.256 48.306 557.256 51.135C557.256 53.964 559.552 56.26 562.381 56.26ZM588.784 45.846V46.502H587.595C585.094 46.502 582.962 48.634 582.962 51.135C582.962 53.636 585.094 55.768 587.595 55.768H588.784V56.424H587.595C584.725 56.424 582.306 54.005 582.306 51.135C582.306 48.265 584.725 45.846 587.595 45.846H588.784ZM588.784 40.926H587.595C581.978 40.926 577.386 45.518 577.386 51.135C577.386 56.752 581.978 61.344 587.595 61.344H588.784V62H587.595C581.609 62 576.73 57.121 576.73 51.135C576.73 45.149 581.609 40.27 587.595 40.27H588.784V40.926ZM594.303 40.926H591.064V40.27H594.303V33.3H594.959V40.27H599.879V33.3H600.535V40.27H603.774V40.926H600.535V45.846H603.774V46.502H600.535V62H599.879V46.502H594.959V62H594.303V46.502H591.064V45.846H594.303V40.926ZM599.879 40.926H594.959V45.846H599.879V40.926ZM622.12 39.532V45.928H625.031C626.835 45.928 628.229 44.534 628.229 42.73C628.229 40.926 626.835 39.532 625.031 39.532H622.12ZM622.12 38.876H625.031C627.163 38.876 628.885 40.598 628.885 42.73C628.885 44.862 627.163 46.584 625.031 46.584H622.12V51.504H625.031C629.951 51.504 633.805 47.65 633.805 42.73C633.805 37.81 629.951 33.956 625.031 33.956H622.12V38.876ZM616.544 52.16V62H615.888V33.3H625.031C630.279 33.3 634.461 37.482 634.461 42.73C634.461 47.978 630.279 52.16 625.031 52.16H622.12V62H621.464V52.16H616.544ZM616.544 39.532V45.928H621.464V39.532H616.544ZM621.464 33.956H616.544V38.876H621.464V33.956ZM621.464 46.584H616.544V51.504H621.464V46.584ZM646.943 62.492C640.67 62.492 635.586 57.408 635.586 51.135C635.586 44.862 640.67 39.778 646.943 39.778C653.216 39.778 658.3 44.862 658.3 51.135C658.3 57.408 653.216 62.492 646.943 62.492ZM646.943 61.836C652.847 61.836 657.644 57.039 657.644 51.135C657.644 45.231 652.847 40.434 646.943 40.434C641.039 40.434 636.242 45.231 636.242 51.135C636.242 57.039 641.039 61.836 646.943 61.836ZM646.943 56.916C643.745 56.916 641.162 54.333 641.162 51.135C641.162 47.937 643.745 45.354 646.943 45.354C650.141 45.354 652.724 47.937 652.724 51.135C652.724 54.333 650.141 56.916 646.943 56.916ZM646.943 56.26C649.772 56.26 652.068 53.964 652.068 51.135C652.068 48.306 649.772 46.01 646.943 46.01C644.114 46.01 641.818 48.306 641.818 51.135C641.818 53.964 644.114 56.26 646.943 56.26ZM666.816 62V42.689C664.602 44.042 661.896 46.83 661.896 51.709V62H661.24V40.27H661.896V47.732C662.921 44.903 664.52 43.304 666.816 41.951V40.27H667.472V41.582C669.112 40.762 670.875 40.352 672.597 40.352V41.008C670.875 41.008 669.071 41.459 667.472 42.32V49.044C668.415 47.199 670.383 45.928 672.597 45.928V46.584C669.727 46.584 667.472 48.88 667.472 51.709V62H666.816ZM677.103 40.926H673.864V40.27H677.103V33.3H677.759V40.27H682.679V33.3H683.335V40.27H686.574V40.926H683.335V45.846H686.574V46.502H683.335V62H682.679V46.502H677.759V62H677.103V46.502H673.864V45.846H677.103V40.926ZM682.679 40.926H677.759V45.846H682.679V40.926ZM692.254 46.502V62H691.598V46.502H688.359V45.846H691.598V40.926H688.359V40.27H691.598V38.466C691.598 34.448 694.837 31.25 698.896 31.25H702.053V31.906H698.896C695.165 31.906 692.254 34.776 692.254 38.466V40.27H697.174V38.466C697.174 37.564 697.953 36.826 698.896 36.826H702.053V37.482H698.896C698.281 37.482 697.83 37.933 697.83 38.466V40.27H702.053V40.926H697.83V45.846H702.053V46.502H697.83V62H697.174V46.502H692.254ZM692.254 40.926V45.846H697.174V40.926H692.254ZM714.409 62.492C708.136 62.492 703.052 57.408 703.052 51.135C703.052 44.862 708.136 39.778 714.409 39.778C720.682 39.778 725.766 44.862 725.766 51.135C725.766 57.408 720.682 62.492 714.409 62.492ZM714.409 61.836C720.313 61.836 725.11 57.039 725.11 51.135C725.11 45.231 720.313 40.434 714.409 40.434C708.505 40.434 703.708 45.231 703.708 51.135C703.708 57.039 708.505 61.836 714.409 61.836ZM714.409 56.916C711.211 56.916 708.628 54.333 708.628 51.135C708.628 47.937 711.211 45.354 714.409 45.354C717.607 45.354 720.19 47.937 720.19 51.135C720.19 54.333 717.607 56.916 714.409 56.916ZM714.409 56.26C717.238 56.26 719.534 53.964 719.534 51.135C719.534 48.306 717.238 46.01 714.409 46.01C711.58 46.01 709.284 48.306 709.284 51.135C709.284 53.964 711.58 56.26 714.409 56.26ZM729.362 31.25V62H728.706V31.25H729.362ZM734.938 31.25V62H734.282V31.25H734.938ZM739.116 62V40.27H739.772V62H739.116ZM745.348 40.27V62H744.692V40.27H745.348ZM744.692 38.138V31.25H745.348V38.138H744.692ZM739.772 31.25V38.138H739.116V31.25H739.772ZM759.653 62.492C753.38 62.492 748.296 57.408 748.296 51.135C748.296 44.862 753.38 39.778 759.653 39.778C765.926 39.778 771.01 44.862 771.01 51.135C771.01 57.408 765.926 62.492 759.653 62.492ZM759.653 61.836C765.557 61.836 770.354 57.039 770.354 51.135C770.354 45.231 765.557 40.434 759.653 40.434C753.749 40.434 748.952 45.231 748.952 51.135C748.952 57.039 753.749 61.836 759.653 61.836ZM759.653 56.916C756.455 56.916 753.872 54.333 753.872 51.135C753.872 47.937 756.455 45.354 759.653 45.354C762.851 45.354 765.434 47.937 765.434 51.135C765.434 54.333 762.851 56.916 759.653 56.916ZM759.653 56.26C762.482 56.26 764.778 53.964 764.778 51.135C764.778 48.306 762.482 46.01 759.653 46.01C756.824 46.01 754.528 48.306 754.528 51.135C754.528 53.964 756.824 56.26 759.653 56.26ZM795.883 62H795.227L789.323 46.871V62H788.667V39.532H783.747V62H783.091V33.3H792.234C797.482 33.3 801.664 37.482 801.664 42.73C801.664 46.912 799.573 49.372 797.154 50.889L801.459 62H800.803L796.621 51.217C795.432 51.914 793.751 52.529 792.357 52.939L795.883 62ZM794.981 45.313L796.908 50.274C799.122 48.88 801.008 46.584 801.008 42.73C801.008 37.81 797.154 33.956 792.234 33.956H789.323V38.876H792.234C794.366 38.876 796.088 40.598 796.088 42.73C796.088 43.714 795.719 44.575 794.981 45.313ZM789.323 39.532V46.871L790.881 46.543C794.079 45.846 795.432 44.493 795.432 42.73C795.432 40.926 794.038 39.532 792.234 39.532H789.323ZM783.747 33.956V38.876H788.667V33.956H783.747ZM796.375 50.602L794.489 45.764C793.259 46.707 791.824 47.035 790.225 47.363L792.111 52.283C793.341 51.955 795.35 51.217 796.375 50.602ZM803.15 51.135C803.15 44.862 808.234 39.778 814.507 39.778C819.509 39.778 823.732 42.976 825.249 47.486L811.924 55.563C812.703 56.014 813.564 56.26 814.507 56.26C816.557 56.26 818.32 55.03 819.14 53.308L819.755 53.595C818.853 55.563 816.844 56.916 814.507 56.916C813.318 56.916 812.211 56.547 811.309 55.932L806.881 58.638C808.808 60.606 811.514 61.836 814.507 61.836C818.771 61.836 822.502 59.294 824.224 55.645L824.798 55.932C822.994 59.827 819.058 62.492 814.507 62.492C808.234 62.492 803.15 57.408 803.15 51.135ZM803.806 51.135C803.806 52.324 804.011 53.431 804.339 54.497L808.767 51.791C808.726 51.586 808.726 51.34 808.726 51.135C808.726 47.937 811.309 45.354 814.507 45.354C815.696 45.354 816.844 45.723 817.746 46.338L822.133 43.673C820.206 41.664 817.5 40.434 814.507 40.434C808.603 40.434 803.806 45.231 803.806 51.135ZM804.585 55.112C805.036 56.219 805.651 57.244 806.43 58.146L810.735 55.522C809.833 54.743 809.177 53.677 808.89 52.488L804.585 55.112ZM809.382 51.135V51.422L817.131 46.707C816.352 46.256 815.45 46.01 814.507 46.01C811.678 46.01 809.382 48.306 809.382 51.135ZM809.464 52.16C809.71 53.349 810.407 54.415 811.35 55.153L819.55 50.151C819.304 48.962 818.648 47.896 817.705 47.117L809.464 52.16ZM818.32 46.789C819.222 47.568 819.878 48.593 820.124 49.823L824.47 47.158C824.019 46.051 823.363 45.067 822.625 44.165L818.32 46.789ZM843.15 42.115V60.155C845.897 58.474 848.07 55.071 848.07 51.135C848.07 47.199 845.897 43.796 843.15 42.115ZM837.369 39.778C839.214 39.778 840.936 40.229 842.494 41.008V40.27H843.15V41.377C845.446 42.648 847.209 44.944 848.07 47.322V40.27H848.726V62H848.07V54.907C847.25 57.244 845.446 59.663 843.15 60.934V62H842.494V61.262C840.936 62.041 839.214 62.492 837.369 62.492C831.096 62.492 826.012 57.408 826.012 51.135C826.012 44.862 831.096 39.778 837.369 39.778ZM837.369 61.836C839.214 61.836 840.977 61.385 842.494 60.565V53.841C841.51 55.645 839.583 56.916 837.369 56.916C834.171 56.916 831.588 54.333 831.588 51.135C831.588 47.937 834.171 45.354 837.369 45.354C839.583 45.354 841.51 46.625 842.494 48.47V41.746C840.977 40.926 839.214 40.434 837.369 40.434C831.465 40.434 826.668 45.231 826.668 51.135C826.668 57.039 831.465 61.836 837.369 61.836ZM837.369 56.26C840.239 56.26 842.494 53.964 842.494 51.135C842.494 48.306 840.239 46.01 837.369 46.01C834.54 46.01 832.244 48.306 832.244 51.135C832.244 53.964 834.54 56.26 837.369 56.26ZM863.772 45.846V46.502H862.583C860.082 46.502 857.95 48.634 857.95 51.135C857.95 53.636 860.082 55.768 862.583 55.768H863.772V56.424H862.583C859.713 56.424 857.294 54.005 857.294 51.135C857.294 48.265 859.713 45.846 862.583 45.846H863.772ZM863.772 40.926H862.583C856.966 40.926 852.374 45.518 852.374 51.135C852.374 56.752 856.966 61.344 862.583 61.344H863.772V62H862.583C856.597 62 851.718 57.121 851.718 51.135C851.718 45.149 856.597 40.27 862.583 40.27H863.772V40.926ZM869.291 40.926H866.052V40.27H869.291V33.3H869.947V40.27H874.867V33.3H875.523V40.27H878.762V40.926H875.523V45.846H878.762V46.502H875.523V62H874.867V46.502H869.947V62H869.291V46.502H866.052V45.846H869.291V40.926ZM874.867 40.926H869.947V45.846H874.867V40.926ZM897.108 39.532V45.928H900.019C901.823 45.928 903.217 44.534 903.217 42.73C903.217 40.926 901.823 39.532 900.019 39.532H897.108ZM897.108 38.876H900.019C902.151 38.876 903.873 40.598 903.873 42.73C903.873 44.862 902.151 46.584 900.019 46.584H897.108V51.504H900.019C904.939 51.504 908.793 47.65 908.793 42.73C908.793 37.81 904.939 33.956 900.019 33.956H897.108V38.876ZM891.532 52.16V62H890.876V33.3H900.019C905.267 33.3 909.449 37.482 909.449 42.73C909.449 47.978 905.267 52.16 900.019 52.16H897.108V62H896.452V52.16H891.532ZM891.532 39.532V45.928H896.452V39.532H891.532ZM896.452 33.956H891.532V38.876H896.452V33.956ZM896.452 46.584H891.532V51.504H896.452V46.584ZM921.931 62.492C915.658 62.492 910.574 57.408 910.574 51.135C910.574 44.862 915.658 39.778 921.931 39.778C928.204 39.778 933.288 44.862 933.288 51.135C933.288 57.408 928.204 62.492 921.931 62.492ZM921.931 61.836C927.835 61.836 932.632 57.039 932.632 51.135C932.632 45.231 927.835 40.434 921.931 40.434C916.027 40.434 911.23 45.231 911.23 51.135C911.23 57.039 916.027 61.836 921.931 61.836ZM921.931 56.916C918.733 56.916 916.15 54.333 916.15 51.135C916.15 47.937 918.733 45.354 921.931 45.354C925.129 45.354 927.712 47.937 927.712 51.135C927.712 54.333 925.129 56.916 921.931 56.916ZM921.931 56.26C924.76 56.26 927.056 53.964 927.056 51.135C927.056 48.306 924.76 46.01 921.931 46.01C919.102 46.01 916.806 48.306 916.806 51.135C916.806 53.964 919.102 56.26 921.931 56.26ZM941.804 62V42.689C939.59 44.042 936.884 46.83 936.884 51.709V62H936.228V40.27H936.884V47.732C937.909 44.903 939.508 43.304 941.804 41.951V40.27H942.46V41.582C944.1 40.762 945.863 40.352 947.585 40.352V41.008C945.863 41.008 944.059 41.459 942.46 42.32V49.044C943.403 47.199 945.371 45.928 947.585 45.928V46.584C944.715 46.584 942.46 48.88 942.46 51.709V62H941.804ZM952.092 40.926H948.853V40.27H952.092V33.3H952.748V40.27H957.668V33.3H958.324V40.27H961.563V40.926H958.324V45.846H961.563V46.502H958.324V62H957.668V46.502H952.748V62H952.092V46.502H948.853V45.846H952.092V40.926ZM957.668 40.926H952.748V45.846H957.668V40.926ZM967.242 46.502V62H966.586V46.502H963.347V45.846H966.586V40.926H963.347V40.27H966.586V38.466C966.586 34.448 969.825 31.25 973.884 31.25H977.041V31.906H973.884C970.153 31.906 967.242 34.776 967.242 38.466V40.27H972.162V38.466C972.162 37.564 972.941 36.826 973.884 36.826H977.041V37.482H973.884C973.269 37.482 972.818 37.933 972.818 38.466V40.27H977.041V40.926H972.818V45.846H977.041V46.502H972.818V62H972.162V46.502H967.242ZM967.242 40.926V45.846H972.162V40.926H967.242ZM989.397 62.492C983.124 62.492 978.04 57.408 978.04 51.135C978.04 44.862 983.124 39.778 989.397 39.778C995.67 39.778 1000.75 44.862 1000.75 51.135C1000.75 57.408 995.67 62.492 989.397 62.492ZM989.397 61.836C995.301 61.836 1000.1 57.039 1000.1 51.135C1000.1 45.231 995.301 40.434 989.397 40.434C983.493 40.434 978.696 45.231 978.696 51.135C978.696 57.039 983.493 61.836 989.397 61.836ZM989.397 56.916C986.199 56.916 983.616 54.333 983.616 51.135C983.616 47.937 986.199 45.354 989.397 45.354C992.595 45.354 995.178 47.937 995.178 51.135C995.178 54.333 992.595 56.916 989.397 56.916ZM989.397 56.26C992.226 56.26 994.522 53.964 994.522 51.135C994.522 48.306 992.226 46.01 989.397 46.01C986.568 46.01 984.272 48.306 984.272 51.135C984.272 53.964 986.568 56.26 989.397 56.26ZM1004.35 31.25V62H1003.69V31.25H1004.35ZM1009.93 31.25V62H1009.27V31.25H1009.93ZM1014.1 62V40.27H1014.76V62H1014.1ZM1020.34 40.27V62H1019.68V40.27H1020.34ZM1019.68 38.138V31.25H1020.34V38.138H1019.68ZM1014.76 31.25V38.138H1014.1V31.25H1014.76ZM1034.64 62.492C1028.37 62.492 1023.28 57.408 1023.28 51.135C1023.28 44.862 1028.37 39.778 1034.64 39.778C1040.91 39.778 1046 44.862 1046 51.135C1046 57.408 1040.91 62.492 1034.64 62.492ZM1034.64 61.836C1040.55 61.836 1045.34 57.039 1045.34 51.135C1045.34 45.231 1040.55 40.434 1034.64 40.434C1028.74 40.434 1023.94 45.231 1023.94 51.135C1023.94 57.039 1028.74 61.836 1034.64 61.836ZM1034.64 56.916C1031.44 56.916 1028.86 54.333 1028.86 51.135C1028.86 47.937 1031.44 45.354 1034.64 45.354C1037.84 45.354 1040.42 47.937 1040.42 51.135C1040.42 54.333 1037.84 56.916 1034.64 56.916ZM1034.64 56.26C1037.47 56.26 1039.77 53.964 1039.77 51.135C1039.77 48.306 1037.47 46.01 1034.64 46.01C1031.81 46.01 1029.52 48.306 1029.52 51.135C1029.52 53.964 1031.81 56.26 1034.64 56.26ZM1070.87 62H1070.22L1064.31 46.871V62H1063.66V39.532H1058.74V62H1058.08V33.3H1067.22C1072.47 33.3 1076.65 37.482 1076.65 42.73C1076.65 46.912 1074.56 49.372 1072.14 50.889L1076.45 62H1075.79L1071.61 51.217C1070.42 51.914 1068.74 52.529 1067.35 52.939L1070.87 62ZM1069.97 45.313L1071.9 50.274C1074.11 48.88 1076 46.584 1076 42.73C1076 37.81 1072.14 33.956 1067.22 33.956H1064.31V38.876H1067.22C1069.35 38.876 1071.08 40.598 1071.08 42.73C1071.08 43.714 1070.71 44.575 1069.97 45.313ZM1064.31 39.532V46.871L1065.87 46.543C1069.07 45.846 1070.42 44.493 1070.42 42.73C1070.42 40.926 1069.03 39.532 1067.22 39.532H1064.31ZM1058.74 33.956V38.876H1063.66V33.956H1058.74ZM1071.36 50.602L1069.48 45.764C1068.25 46.707 1066.81 47.035 1065.21 47.363L1067.1 52.283C1068.33 51.955 1070.34 51.217 1071.36 50.602ZM1078.14 51.135C1078.14 44.862 1083.22 39.778 1089.49 39.778C1094.5 39.778 1098.72 42.976 1100.24 47.486L1086.91 55.563C1087.69 56.014 1088.55 56.26 1089.49 56.26C1091.54 56.26 1093.31 55.03 1094.13 53.308L1094.74 53.595C1093.84 55.563 1091.83 56.916 1089.49 56.916C1088.31 56.916 1087.2 56.547 1086.3 55.932L1081.87 58.638C1083.8 60.606 1086.5 61.836 1089.49 61.836C1093.76 61.836 1097.49 59.294 1099.21 55.645L1099.79 55.932C1097.98 59.827 1094.05 62.492 1089.49 62.492C1083.22 62.492 1078.14 57.408 1078.14 51.135ZM1078.79 51.135C1078.79 52.324 1079 53.431 1079.33 54.497L1083.75 51.791C1083.71 51.586 1083.71 51.34 1083.71 51.135C1083.71 47.937 1086.3 45.354 1089.49 45.354C1090.68 45.354 1091.83 45.723 1092.73 46.338L1097.12 43.673C1095.19 41.664 1092.49 40.434 1089.49 40.434C1083.59 40.434 1078.79 45.231 1078.79 51.135ZM1079.57 55.112C1080.02 56.219 1080.64 57.244 1081.42 58.146L1085.72 55.522C1084.82 54.743 1084.16 53.677 1083.88 52.488L1079.57 55.112ZM1084.37 51.135V51.422L1092.12 46.707C1091.34 46.256 1090.44 46.01 1089.49 46.01C1086.67 46.01 1084.37 48.306 1084.37 51.135ZM1084.45 52.16C1084.7 53.349 1085.39 54.415 1086.34 55.153L1094.54 50.151C1094.29 48.962 1093.64 47.896 1092.69 47.117L1084.45 52.16ZM1093.31 46.789C1094.21 47.568 1094.87 48.593 1095.11 49.823L1099.46 47.158C1099.01 46.051 1098.35 45.067 1097.61 44.165L1093.31 46.789ZM1118.14 42.115V60.155C1120.89 58.474 1123.06 55.071 1123.06 51.135C1123.06 47.199 1120.89 43.796 1118.14 42.115ZM1112.36 39.778C1114.2 39.778 1115.92 40.229 1117.48 41.008V40.27H1118.14V41.377C1120.43 42.648 1122.2 44.944 1123.06 47.322V40.27H1123.71V62H1123.06V54.907C1122.24 57.244 1120.43 59.663 1118.14 60.934V62H1117.48V61.262C1115.92 62.041 1114.2 62.492 1112.36 62.492C1106.08 62.492 1101 57.408 1101 51.135C1101 44.862 1106.08 39.778 1112.36 39.778ZM1112.36 61.836C1114.2 61.836 1115.97 61.385 1117.48 60.565V53.841C1116.5 55.645 1114.57 56.916 1112.36 56.916C1109.16 56.916 1106.58 54.333 1106.58 51.135C1106.58 47.937 1109.16 45.354 1112.36 45.354C1114.57 45.354 1116.5 46.625 1117.48 48.47V41.746C1115.97 40.926 1114.2 40.434 1112.36 40.434C1106.45 40.434 1101.66 45.231 1101.66 51.135C1101.66 57.039 1106.45 61.836 1112.36 61.836ZM1112.36 56.26C1115.23 56.26 1117.48 53.964 1117.48 51.135C1117.48 48.306 1115.23 46.01 1112.36 46.01C1109.53 46.01 1107.23 48.306 1107.23 51.135C1107.23 53.964 1109.53 56.26 1112.36 56.26ZM1138.76 45.846V46.502H1137.57C1135.07 46.502 1132.94 48.634 1132.94 51.135C1132.94 53.636 1135.07 55.768 1137.57 55.768H1138.76V56.424H1137.57C1134.7 56.424 1132.28 54.005 1132.28 51.135C1132.28 48.265 1134.7 45.846 1137.57 45.846H1138.76ZM1138.76 40.926H1137.57C1131.95 40.926 1127.36 45.518 1127.36 51.135C1127.36 56.752 1131.95 61.344 1137.57 61.344H1138.76V62H1137.57C1131.59 62 1126.71 57.121 1126.71 51.135C1126.71 45.149 1131.59 40.27 1137.57 40.27H1138.76V40.926ZM1144.28 40.926H1141.04V40.27H1144.28V33.3H1144.94V40.27H1149.86V33.3H1150.51V40.27H1153.75V40.926H1150.51V45.846H1153.75V46.502H1150.51V62H1149.86V46.502H1144.94V62H1144.28V46.502H1141.04V45.846H1144.28V40.926ZM1149.86 40.926H1144.94V45.846H1149.86V40.926ZM1172.1 39.532V45.928H1175.01C1176.81 45.928 1178.21 44.534 1178.21 42.73C1178.21 40.926 1176.81 39.532 1175.01 39.532H1172.1ZM1172.1 38.876H1175.01C1177.14 38.876 1178.86 40.598 1178.86 42.73C1178.86 44.862 1177.14 46.584 1175.01 46.584H1172.1V51.504H1175.01C1179.93 51.504 1183.78 47.65 1183.78 42.73C1183.78 37.81 1179.93 33.956 1175.01 33.956H1172.1V38.876ZM1166.52 52.16V62H1165.86V33.3H1175.01C1180.26 33.3 1184.44 37.482 1184.44 42.73C1184.44 47.978 1180.26 52.16 1175.01 52.16H1172.1V62H1171.44V52.16H1166.52ZM1166.52 39.532V45.928H1171.44V39.532H1166.52ZM1171.44 33.956H1166.52V38.876H1171.44V33.956ZM1171.44 46.584H1166.52V51.504H1171.44V46.584ZM1196.92 62.492C1190.65 62.492 1185.56 57.408 1185.56 51.135C1185.56 44.862 1190.65 39.778 1196.92 39.778C1203.19 39.778 1208.28 44.862 1208.28 51.135C1208.28 57.408 1203.19 62.492 1196.92 62.492ZM1196.92 61.836C1202.82 61.836 1207.62 57.039 1207.62 51.135C1207.62 45.231 1202.82 40.434 1196.92 40.434C1191.02 40.434 1186.22 45.231 1186.22 51.135C1186.22 57.039 1191.02 61.836 1196.92 61.836ZM1196.92 56.916C1193.72 56.916 1191.14 54.333 1191.14 51.135C1191.14 47.937 1193.72 45.354 1196.92 45.354C1200.12 45.354 1202.7 47.937 1202.7 51.135C1202.7 54.333 1200.12 56.916 1196.92 56.916ZM1196.92 56.26C1199.75 56.26 1202.04 53.964 1202.04 51.135C1202.04 48.306 1199.75 46.01 1196.92 46.01C1194.09 46.01 1191.79 48.306 1191.79 51.135C1191.79 53.964 1194.09 56.26 1196.92 56.26ZM1216.79 62V42.689C1214.58 44.042 1211.87 46.83 1211.87 51.709V62H1211.22V40.27H1211.87V47.732C1212.9 44.903 1214.5 43.304 1216.79 41.951V40.27H1217.45V41.582C1219.09 40.762 1220.85 40.352 1222.57 40.352V41.008C1220.85 41.008 1219.05 41.459 1217.45 42.32V49.044C1218.39 47.199 1220.36 45.928 1222.57 45.928V46.584C1219.7 46.584 1217.45 48.88 1217.45 51.709V62H1216.79ZM1227.08 40.926H1223.84V40.27H1227.08V33.3H1227.74V40.27H1232.66V33.3H1233.31V40.27H1236.55V40.926H1233.31V45.846H1236.55V46.502H1233.31V62H1232.66V46.502H1227.74V62H1227.08V46.502H1223.84V45.846H1227.08V40.926ZM1232.66 40.926H1227.74V45.846H1232.66V40.926ZM1242.23 46.502V62H1241.57V46.502H1238.34V45.846H1241.57V40.926H1238.34V40.27H1241.57V38.466C1241.57 34.448 1244.81 31.25 1248.87 31.25H1252.03V31.906H1248.87C1245.14 31.906 1242.23 34.776 1242.23 38.466V40.27H1247.15V38.466C1247.15 37.564 1247.93 36.826 1248.87 36.826H1252.03V37.482H1248.87C1248.26 37.482 1247.81 37.933 1247.81 38.466V40.27H1252.03V40.926H1247.81V45.846H1252.03V46.502H1247.81V62H1247.15V46.502H1242.23ZM1242.23 40.926V45.846H1247.15V40.926H1242.23ZM1264.39 62.492C1258.11 62.492 1253.03 57.408 1253.03 51.135C1253.03 44.862 1258.11 39.778 1264.39 39.778C1270.66 39.778 1275.74 44.862 1275.74 51.135C1275.74 57.408 1270.66 62.492 1264.39 62.492ZM1264.39 61.836C1270.29 61.836 1275.09 57.039 1275.09 51.135C1275.09 45.231 1270.29 40.434 1264.39 40.434C1258.48 40.434 1253.68 45.231 1253.68 51.135C1253.68 57.039 1258.48 61.836 1264.39 61.836ZM1264.39 56.916C1261.19 56.916 1258.6 54.333 1258.6 51.135C1258.6 47.937 1261.19 45.354 1264.39 45.354C1267.58 45.354 1270.17 47.937 1270.17 51.135C1270.17 54.333 1267.58 56.916 1264.39 56.916ZM1264.39 56.26C1267.21 56.26 1269.51 53.964 1269.51 51.135C1269.51 48.306 1267.21 46.01 1264.39 46.01C1261.56 46.01 1259.26 48.306 1259.26 51.135C1259.26 53.964 1261.56 56.26 1264.39 56.26ZM1279.34 31.25V62H1278.68V31.25H1279.34ZM1284.91 31.25V62H1284.26V31.25H1284.91ZM1289.09 62V40.27H1289.75V62H1289.09ZM1295.32 40.27V62H1294.67V40.27H1295.32ZM1294.67 38.138V31.25H1295.32V38.138H1294.67ZM1289.75 31.25V38.138H1289.09V31.25H1289.75ZM1309.63 62.492C1303.36 62.492 1298.27 57.408 1298.27 51.135C1298.27 44.862 1303.36 39.778 1309.63 39.778C1315.9 39.778 1320.99 44.862 1320.99 51.135C1320.99 57.408 1315.9 62.492 1309.63 62.492ZM1309.63 61.836C1315.53 61.836 1320.33 57.039 1320.33 51.135C1320.33 45.231 1315.53 40.434 1309.63 40.434C1303.73 40.434 1298.93 45.231 1298.93 51.135C1298.93 57.039 1303.73 61.836 1309.63 61.836ZM1309.63 56.916C1306.43 56.916 1303.85 54.333 1303.85 51.135C1303.85 47.937 1306.43 45.354 1309.63 45.354C1312.83 45.354 1315.41 47.937 1315.41 51.135C1315.41 54.333 1312.83 56.916 1309.63 56.916ZM1309.63 56.26C1312.46 56.26 1314.75 53.964 1314.75 51.135C1314.75 48.306 1312.46 46.01 1309.63 46.01C1306.8 46.01 1304.5 48.306 1304.5 51.135C1304.5 53.964 1306.8 56.26 1309.63 56.26ZM1345.86 62H1345.2L1339.3 46.871V62H1338.64V39.532H1333.72V62H1333.07V33.3H1342.21C1347.46 33.3 1351.64 37.482 1351.64 42.73C1351.64 46.912 1349.55 49.372 1347.13 50.889L1351.44 62H1350.78L1346.6 51.217C1345.41 51.914 1343.73 52.529 1342.33 52.939L1345.86 62ZM1344.96 45.313L1346.88 50.274C1349.1 48.88 1350.98 46.584 1350.98 42.73C1350.98 37.81 1347.13 33.956 1342.21 33.956H1339.3V38.876H1342.21C1344.34 38.876 1346.06 40.598 1346.06 42.73C1346.06 43.714 1345.7 44.575 1344.96 45.313ZM1339.3 39.532V46.871L1340.86 46.543C1344.06 45.846 1345.41 44.493 1345.41 42.73C1345.41 40.926 1344.01 39.532 1342.21 39.532H1339.3ZM1333.72 33.956V38.876H1338.64V33.956H1333.72ZM1346.35 50.602L1344.47 45.764C1343.24 46.707 1341.8 47.035 1340.2 47.363L1342.09 52.283C1343.32 51.955 1345.33 51.217 1346.35 50.602ZM1353.13 51.135C1353.13 44.862 1358.21 39.778 1364.48 39.778C1369.49 39.778 1373.71 42.976 1375.23 47.486L1361.9 55.563C1362.68 56.014 1363.54 56.26 1364.48 56.26C1366.53 56.26 1368.3 55.03 1369.12 53.308L1369.73 53.595C1368.83 55.563 1366.82 56.916 1364.48 56.916C1363.29 56.916 1362.19 56.547 1361.29 55.932L1356.86 58.638C1358.78 60.606 1361.49 61.836 1364.48 61.836C1368.75 61.836 1372.48 59.294 1374.2 55.645L1374.77 55.932C1372.97 59.827 1369.03 62.492 1364.48 62.492C1358.21 62.492 1353.13 57.408 1353.13 51.135ZM1353.78 51.135C1353.78 52.324 1353.99 53.431 1354.32 54.497L1358.74 51.791C1358.7 51.586 1358.7 51.34 1358.7 51.135C1358.7 47.937 1361.29 45.354 1364.48 45.354C1365.67 45.354 1366.82 45.723 1367.72 46.338L1372.11 43.673C1370.18 41.664 1367.48 40.434 1364.48 40.434C1358.58 40.434 1353.78 45.231 1353.78 51.135ZM1354.56 55.112C1355.01 56.219 1355.63 57.244 1356.41 58.146L1360.71 55.522C1359.81 54.743 1359.15 53.677 1358.87 52.488L1354.56 55.112ZM1359.36 51.135V51.422L1367.11 46.707C1366.33 46.256 1365.43 46.01 1364.48 46.01C1361.65 46.01 1359.36 48.306 1359.36 51.135ZM1359.44 52.16C1359.69 53.349 1360.38 54.415 1361.33 55.153L1369.53 50.151C1369.28 48.962 1368.62 47.896 1367.68 47.117L1359.44 52.16ZM1368.3 46.789C1369.2 47.568 1369.85 48.593 1370.1 49.823L1374.45 47.158C1374 46.051 1373.34 45.067 1372.6 44.165L1368.3 46.789ZM1393.13 42.115V60.155C1395.87 58.474 1398.05 55.071 1398.05 51.135C1398.05 47.199 1395.87 43.796 1393.13 42.115ZM1387.35 39.778C1389.19 39.778 1390.91 40.229 1392.47 41.008V40.27H1393.13V41.377C1395.42 42.648 1397.19 44.944 1398.05 47.322V40.27H1398.7V62H1398.05V54.907C1397.23 57.244 1395.42 59.663 1393.13 60.934V62H1392.47V61.262C1390.91 62.041 1389.19 62.492 1387.35 62.492C1381.07 62.492 1375.99 57.408 1375.99 51.135C1375.99 44.862 1381.07 39.778 1387.35 39.778ZM1387.35 61.836C1389.19 61.836 1390.95 61.385 1392.47 60.565V53.841C1391.49 55.645 1389.56 56.916 1387.35 56.916C1384.15 56.916 1381.56 54.333 1381.56 51.135C1381.56 47.937 1384.15 45.354 1387.35 45.354C1389.56 45.354 1391.49 46.625 1392.47 48.47V41.746C1390.95 40.926 1389.19 40.434 1387.35 40.434C1381.44 40.434 1376.64 45.231 1376.64 51.135C1376.64 57.039 1381.44 61.836 1387.35 61.836ZM1387.35 56.26C1390.22 56.26 1392.47 53.964 1392.47 51.135C1392.47 48.306 1390.22 46.01 1387.35 46.01C1384.52 46.01 1382.22 48.306 1382.22 51.135C1382.22 53.964 1384.52 56.26 1387.35 56.26ZM1413.75 45.846V46.502H1412.56C1410.06 46.502 1407.93 48.634 1407.93 51.135C1407.93 53.636 1410.06 55.768 1412.56 55.768H1413.75V56.424H1412.56C1409.69 56.424 1407.27 54.005 1407.27 51.135C1407.27 48.265 1409.69 45.846 1412.56 45.846H1413.75ZM1413.75 40.926H1412.56C1406.94 40.926 1402.35 45.518 1402.35 51.135C1402.35 56.752 1406.94 61.344 1412.56 61.344H1413.75V62H1412.56C1406.57 62 1401.69 57.121 1401.69 51.135C1401.69 45.149 1406.57 40.27 1412.56 40.27H1413.75V40.926ZM1419.27 40.926H1416.03V40.27H1419.27V33.3H1419.92V40.27H1424.84V33.3H1425.5V40.27H1428.74V40.926H1425.5V45.846H1428.74V46.502H1425.5V62H1424.84V46.502H1419.92V62H1419.27V46.502H1416.03V45.846H1419.27V40.926ZM1424.84 40.926H1419.92V45.846H1424.84V40.926ZM1447.09 39.532V45.928H1450C1451.8 45.928 1453.19 44.534 1453.19 42.73C1453.19 40.926 1451.8 39.532 1450 39.532H1447.09ZM1447.09 38.876H1450C1452.13 38.876 1453.85 40.598 1453.85 42.73C1453.85 44.862 1452.13 46.584 1450 46.584H1447.09V51.504H1450C1454.92 51.504 1458.77 47.65 1458.77 42.73C1458.77 37.81 1454.92 33.956 1450 33.956H1447.09V38.876ZM1441.51 52.16V62H1440.85V33.3H1450C1455.24 33.3 1459.43 37.482 1459.43 42.73C1459.43 47.978 1455.24 52.16 1450 52.16H1447.09V62H1446.43V52.16H1441.51ZM1441.51 39.532V45.928H1446.43V39.532H1441.51ZM1446.43 33.956H1441.51V38.876H1446.43V33.956ZM1446.43 46.584H1441.51V51.504H1446.43V46.584ZM1471.91 62.492C1465.63 62.492 1460.55 57.408 1460.55 51.135C1460.55 44.862 1465.63 39.778 1471.91 39.778C1478.18 39.778 1483.26 44.862 1483.26 51.135C1483.26 57.408 1478.18 62.492 1471.91 62.492ZM1471.91 61.836C1477.81 61.836 1482.61 57.039 1482.61 51.135C1482.61 45.231 1477.81 40.434 1471.91 40.434C1466 40.434 1461.21 45.231 1461.21 51.135C1461.21 57.039 1466 61.836 1471.91 61.836ZM1471.91 56.916C1468.71 56.916 1466.13 54.333 1466.13 51.135C1466.13 47.937 1468.71 45.354 1471.91 45.354C1475.11 45.354 1477.69 47.937 1477.69 51.135C1477.69 54.333 1475.11 56.916 1471.91 56.916ZM1471.91 56.26C1474.74 56.26 1477.03 53.964 1477.03 51.135C1477.03 48.306 1474.74 46.01 1471.91 46.01C1469.08 46.01 1466.78 48.306 1466.78 51.135C1466.78 53.964 1469.08 56.26 1471.91 56.26ZM1491.78 62V42.689C1489.57 44.042 1486.86 46.83 1486.86 51.709V62H1486.2V40.27H1486.86V47.732C1487.89 44.903 1489.48 43.304 1491.78 41.951V40.27H1492.44V41.582C1494.08 40.762 1495.84 40.352 1497.56 40.352V41.008C1495.84 41.008 1494.04 41.459 1492.44 42.32V49.044C1493.38 47.199 1495.35 45.928 1497.56 45.928V46.584C1494.69 46.584 1492.44 48.88 1492.44 51.709V62H1491.78ZM1502.07 40.926H1498.83V40.27H1502.07V33.3H1502.72V40.27H1507.64V33.3H1508.3V40.27H1511.54V40.926H1508.3V45.846H1511.54V46.502H1508.3V62H1507.64V46.502H1502.72V62H1502.07V46.502H1498.83V45.846H1502.07V40.926ZM1507.64 40.926H1502.72V45.846H1507.64V40.926ZM1517.22 46.502V62H1516.56V46.502H1513.32V45.846H1516.56V40.926H1513.32V40.27H1516.56V38.466C1516.56 34.448 1519.8 31.25 1523.86 31.25H1527.02V31.906H1523.86C1520.13 31.906 1517.22 34.776 1517.22 38.466V40.27H1522.14V38.466C1522.14 37.564 1522.92 36.826 1523.86 36.826H1527.02V37.482H1523.86C1523.25 37.482 1522.79 37.933 1522.79 38.466V40.27H1527.02V40.926H1522.79V45.846H1527.02V46.502H1522.79V62H1522.14V46.502H1517.22ZM1517.22 40.926V45.846H1522.14V40.926H1517.22ZM1539.37 62.492C1533.1 62.492 1528.02 57.408 1528.02 51.135C1528.02 44.862 1533.1 39.778 1539.37 39.778C1545.65 39.778 1550.73 44.862 1550.73 51.135C1550.73 57.408 1545.65 62.492 1539.37 62.492ZM1539.37 61.836C1545.28 61.836 1550.07 57.039 1550.07 51.135C1550.07 45.231 1545.28 40.434 1539.37 40.434C1533.47 40.434 1528.67 45.231 1528.67 51.135C1528.67 57.039 1533.47 61.836 1539.37 61.836ZM1539.37 56.916C1536.18 56.916 1533.59 54.333 1533.59 51.135C1533.59 47.937 1536.18 45.354 1539.37 45.354C1542.57 45.354 1545.15 47.937 1545.15 51.135C1545.15 54.333 1542.57 56.916 1539.37 56.916ZM1539.37 56.26C1542.2 56.26 1544.5 53.964 1544.5 51.135C1544.5 48.306 1542.2 46.01 1539.37 46.01C1536.54 46.01 1534.25 48.306 1534.25 51.135C1534.25 53.964 1536.54 56.26 1539.37 56.26ZM1554.33 31.25V62H1553.67V31.25H1554.33ZM1559.9 31.25V62H1559.25V31.25H1559.9ZM1564.08 62V40.27H1564.74V62H1564.08ZM1570.31 40.27V62H1569.66V40.27H1570.31ZM1569.66 38.138V31.25H1570.31V38.138H1569.66ZM1564.74 31.25V38.138H1564.08V31.25H1564.74ZM1584.62 62.492C1578.34 62.492 1573.26 57.408 1573.26 51.135C1573.26 44.862 1578.34 39.778 1584.62 39.778C1590.89 39.778 1595.97 44.862 1595.97 51.135C1595.97 57.408 1590.89 62.492 1584.62 62.492ZM1584.62 61.836C1590.52 61.836 1595.32 57.039 1595.32 51.135C1595.32 45.231 1590.52 40.434 1584.62 40.434C1578.71 40.434 1573.92 45.231 1573.92 51.135C1573.92 57.039 1578.71 61.836 1584.62 61.836ZM1584.62 56.916C1581.42 56.916 1578.84 54.333 1578.84 51.135C1578.84 47.937 1581.42 45.354 1584.62 45.354C1587.82 45.354 1590.4 47.937 1590.4 51.135C1590.4 54.333 1587.82 56.916 1584.62 56.916ZM1584.62 56.26C1587.45 56.26 1589.74 53.964 1589.74 51.135C1589.74 48.306 1587.45 46.01 1584.62 46.01C1581.79 46.01 1579.49 48.306 1579.49 51.135C1579.49 53.964 1581.79 56.26 1584.62 56.26ZM1611.8 62H1611.14L1605.24 46.871V62H1604.58V39.532H1599.66V62H1599.01V33.3H1608.15C1613.4 33.3 1617.58 37.482 1617.58 42.73C1617.58 46.912 1615.49 49.372 1613.07 50.889L1617.38 62H1616.72L1612.54 51.217C1611.35 51.914 1609.67 52.529 1608.27 52.939L1611.8 62ZM1610.9 45.313L1612.82 50.274C1615.04 48.88 1616.92 46.584 1616.92 42.73C1616.92 37.81 1613.07 33.956 1608.15 33.956H1605.24V38.876H1608.15C1610.28 38.876 1612 40.598 1612 42.73C1612 43.714 1611.64 44.575 1610.9 45.313ZM1605.24 39.532V46.871L1606.8 46.543C1610 45.846 1611.35 44.493 1611.35 42.73C1611.35 40.926 1609.95 39.532 1608.15 39.532H1605.24ZM1599.66 33.956V38.876H1604.58V33.956H1599.66ZM1612.29 50.602L1610.41 45.764C1609.18 46.707 1607.74 47.035 1606.14 47.363L1608.03 52.283C1609.26 51.955 1611.27 51.217 1612.29 50.602ZM1619.07 51.135C1619.07 44.862 1624.15 39.778 1630.42 39.778C1635.42 39.778 1639.65 42.976 1641.16 47.486L1627.84 55.563C1628.62 56.014 1629.48 56.26 1630.42 56.26C1632.47 56.26 1634.24 55.03 1635.06 53.308L1635.67 53.595C1634.77 55.563 1632.76 56.916 1630.42 56.916C1629.23 56.916 1628.13 56.547 1627.22 55.932L1622.8 58.638C1624.72 60.606 1627.43 61.836 1630.42 61.836C1634.69 61.836 1638.42 59.294 1640.14 55.645L1640.71 55.932C1638.91 59.827 1634.97 62.492 1630.42 62.492C1624.15 62.492 1619.07 57.408 1619.07 51.135ZM1619.72 51.135C1619.72 52.324 1619.93 53.431 1620.25 54.497L1624.68 51.791C1624.64 51.586 1624.64 51.34 1624.64 51.135C1624.64 47.937 1627.22 45.354 1630.42 45.354C1631.61 45.354 1632.76 45.723 1633.66 46.338L1638.05 43.673C1636.12 41.664 1633.42 40.434 1630.42 40.434C1624.52 40.434 1619.72 45.231 1619.72 51.135ZM1620.5 55.112C1620.95 56.219 1621.57 57.244 1622.35 58.146L1626.65 55.522C1625.75 54.743 1625.09 53.677 1624.81 52.488L1620.5 55.112ZM1625.3 51.135V51.422L1633.05 46.707C1632.27 46.256 1631.37 46.01 1630.42 46.01C1627.59 46.01 1625.3 48.306 1625.3 51.135ZM1625.38 52.16C1625.63 53.349 1626.32 54.415 1627.27 55.153L1635.47 50.151C1635.22 48.962 1634.56 47.896 1633.62 47.117L1625.38 52.16ZM1634.24 46.789C1635.14 47.568 1635.79 48.593 1636.04 49.823L1640.39 47.158C1639.93 46.051 1639.28 45.067 1638.54 44.165L1634.24 46.789ZM1659.07 42.115V60.155C1661.81 58.474 1663.99 55.071 1663.99 51.135C1663.99 47.199 1661.81 43.796 1659.07 42.115ZM1653.28 39.778C1655.13 39.778 1656.85 40.229 1658.41 41.008V40.27H1659.07V41.377C1661.36 42.648 1663.12 44.944 1663.99 47.322V40.27H1664.64V62H1663.99V54.907C1663.17 57.244 1661.36 59.663 1659.07 60.934V62H1658.41V61.262C1656.85 62.041 1655.13 62.492 1653.28 62.492C1647.01 62.492 1641.93 57.408 1641.93 51.135C1641.93 44.862 1647.01 39.778 1653.28 39.778ZM1653.28 61.836C1655.13 61.836 1656.89 61.385 1658.41 60.565V53.841C1657.43 55.645 1655.5 56.916 1653.28 56.916C1650.09 56.916 1647.5 54.333 1647.5 51.135C1647.5 47.937 1650.09 45.354 1653.28 45.354C1655.5 45.354 1657.43 46.625 1658.41 48.47V41.746C1656.89 40.926 1655.13 40.434 1653.28 40.434C1647.38 40.434 1642.58 45.231 1642.58 51.135C1642.58 57.039 1647.38 61.836 1653.28 61.836ZM1653.28 56.26C1656.15 56.26 1658.41 53.964 1658.41 51.135C1658.41 48.306 1656.15 46.01 1653.28 46.01C1650.46 46.01 1648.16 48.306 1648.16 51.135C1648.16 53.964 1650.46 56.26 1653.28 56.26ZM1679.69 45.846V46.502H1678.5C1676 46.502 1673.87 48.634 1673.87 51.135C1673.87 53.636 1676 55.768 1678.5 55.768H1679.69V56.424H1678.5C1675.63 56.424 1673.21 54.005 1673.21 51.135C1673.21 48.265 1675.63 45.846 1678.5 45.846H1679.69ZM1679.69 40.926H1678.5C1672.88 40.926 1668.29 45.518 1668.29 51.135C1668.29 56.752 1672.88 61.344 1678.5 61.344H1679.69V62H1678.5C1672.51 62 1667.63 57.121 1667.63 51.135C1667.63 45.149 1672.51 40.27 1678.5 40.27H1679.69V40.926ZM1685.21 40.926H1681.97V40.27H1685.21V33.3H1685.86V40.27H1690.78V33.3H1691.44V40.27H1694.68V40.926H1691.44V45.846H1694.68V46.502H1691.44V62H1690.78V46.502H1685.86V62H1685.21V46.502H1681.97V45.846H1685.21V40.926ZM1690.78 40.926H1685.86V45.846H1690.78V40.926ZM1713.02 39.532V45.928H1715.94C1717.74 45.928 1719.13 44.534 1719.13 42.73C1719.13 40.926 1717.74 39.532 1715.94 39.532H1713.02ZM1713.02 38.876H1715.94C1718.07 38.876 1719.79 40.598 1719.79 42.73C1719.79 44.862 1718.07 46.584 1715.94 46.584H1713.02V51.504H1715.94C1720.86 51.504 1724.71 47.65 1724.71 42.73C1724.71 37.81 1720.86 33.956 1715.94 33.956H1713.02V38.876ZM1707.45 52.16V62H1706.79V33.3H1715.94C1721.18 33.3 1725.37 37.482 1725.37 42.73C1725.37 47.978 1721.18 52.16 1715.94 52.16H1713.02V62H1712.37V52.16H1707.45ZM1707.45 39.532V45.928H1712.37V39.532H1707.45ZM1712.37 33.956H1707.45V38.876H1712.37V33.956ZM1712.37 46.584H1707.45V51.504H1712.37V46.584ZM1737.85 62.492C1731.57 62.492 1726.49 57.408 1726.49 51.135C1726.49 44.862 1731.57 39.778 1737.85 39.778C1744.12 39.778 1749.2 44.862 1749.2 51.135C1749.2 57.408 1744.12 62.492 1737.85 62.492ZM1737.85 61.836C1743.75 61.836 1748.55 57.039 1748.55 51.135C1748.55 45.231 1743.75 40.434 1737.85 40.434C1731.94 40.434 1727.15 45.231 1727.15 51.135C1727.15 57.039 1731.94 61.836 1737.85 61.836ZM1737.85 56.916C1734.65 56.916 1732.07 54.333 1732.07 51.135C1732.07 47.937 1734.65 45.354 1737.85 45.354C1741.05 45.354 1743.63 47.937 1743.63 51.135C1743.63 54.333 1741.05 56.916 1737.85 56.916ZM1737.85 56.26C1740.68 56.26 1742.97 53.964 1742.97 51.135C1742.97 48.306 1740.68 46.01 1737.85 46.01C1735.02 46.01 1732.72 48.306 1732.72 51.135C1732.72 53.964 1735.02 56.26 1737.85 56.26ZM1757.72 62V42.689C1755.51 44.042 1752.8 46.83 1752.8 51.709V62H1752.14V40.27H1752.8V47.732C1753.83 44.903 1755.42 43.304 1757.72 41.951V40.27H1758.38V41.582C1760.02 40.762 1761.78 40.352 1763.5 40.352V41.008C1761.78 41.008 1759.98 41.459 1758.38 42.32V49.044C1759.32 47.199 1761.29 45.928 1763.5 45.928V46.584C1760.63 46.584 1758.38 48.88 1758.38 51.709V62H1757.72ZM1768.01 40.926H1764.77V40.27H1768.01V33.3H1768.66V40.27H1773.58V33.3H1774.24V40.27H1777.48V40.926H1774.24V45.846H1777.48V46.502H1774.24V62H1773.58V46.502H1768.66V62H1768.01V46.502H1764.77V45.846H1768.01V40.926ZM1773.58 40.926H1768.66V45.846H1773.58V40.926ZM1783.16 46.502V62H1782.5V46.502H1779.26V45.846H1782.5V40.926H1779.26V40.27H1782.5V38.466C1782.5 34.448 1785.74 31.25 1789.8 31.25H1792.96V31.906H1789.8C1786.07 31.906 1783.16 34.776 1783.16 38.466V40.27H1788.08V38.466C1788.08 37.564 1788.86 36.826 1789.8 36.826H1792.96V37.482H1789.8C1789.18 37.482 1788.73 37.933 1788.73 38.466V40.27H1792.96V40.926H1788.73V45.846H1792.96V46.502H1788.73V62H1788.08V46.502H1783.16ZM1783.16 40.926V45.846H1788.08V40.926H1783.16ZM1805.31 62.492C1799.04 62.492 1793.96 57.408 1793.96 51.135C1793.96 44.862 1799.04 39.778 1805.31 39.778C1811.59 39.778 1816.67 44.862 1816.67 51.135C1816.67 57.408 1811.59 62.492 1805.31 62.492ZM1805.31 61.836C1811.22 61.836 1816.01 57.039 1816.01 51.135C1816.01 45.231 1811.22 40.434 1805.31 40.434C1799.41 40.434 1794.61 45.231 1794.61 51.135C1794.61 57.039 1799.41 61.836 1805.31 61.836ZM1805.31 56.916C1802.12 56.916 1799.53 54.333 1799.53 51.135C1799.53 47.937 1802.12 45.354 1805.31 45.354C1808.51 45.354 1811.09 47.937 1811.09 51.135C1811.09 54.333 1808.51 56.916 1805.31 56.916ZM1805.31 56.26C1808.14 56.26 1810.44 53.964 1810.44 51.135C1810.44 48.306 1808.14 46.01 1805.31 46.01C1802.48 46.01 1800.19 48.306 1800.19 51.135C1800.19 53.964 1802.48 56.26 1805.31 56.26ZM1820.27 31.25V62H1819.61V31.25H1820.27ZM1825.84 31.25V62H1825.19V31.25H1825.84ZM1830.02 62V40.27H1830.68V62H1830.02ZM1836.25 40.27V62H1835.6V40.27H1836.25ZM1835.6 38.138V31.25H1836.25V38.138H1835.6ZM1830.68 31.25V38.138H1830.02V31.25H1830.68ZM1850.56 62.492C1844.28 62.492 1839.2 57.408 1839.2 51.135C1839.2 44.862 1844.28 39.778 1850.56 39.778C1856.83 39.778 1861.91 44.862 1861.91 51.135C1861.91 57.408 1856.83 62.492 1850.56 62.492ZM1850.56 61.836C1856.46 61.836 1861.26 57.039 1861.26 51.135C1861.26 45.231 1856.46 40.434 1850.56 40.434C1844.65 40.434 1839.86 45.231 1839.86 51.135C1839.86 57.039 1844.65 61.836 1850.56 61.836ZM1850.56 56.916C1847.36 56.916 1844.78 54.333 1844.78 51.135C1844.78 47.937 1847.36 45.354 1850.56 45.354C1853.76 45.354 1856.34 47.937 1856.34 51.135C1856.34 54.333 1853.76 56.916 1850.56 56.916ZM1850.56 56.26C1853.39 56.26 1855.68 53.964 1855.68 51.135C1855.68 48.306 1853.39 46.01 1850.56 46.01C1847.73 46.01 1845.43 48.306 1845.43 51.135C1845.43 53.964 1847.73 56.26 1850.56 56.26ZM1886.79 62H1886.13L1880.23 46.871V62H1879.57V39.532H1874.65V62H1874V33.3H1883.14C1888.39 33.3 1892.57 37.482 1892.57 42.73C1892.57 46.912 1890.48 49.372 1888.06 50.889L1892.36 62H1891.71L1887.53 51.217C1886.34 51.914 1884.66 52.529 1883.26 52.939L1886.79 62ZM1885.89 45.313L1887.81 50.274C1890.03 48.88 1891.91 46.584 1891.91 42.73C1891.91 37.81 1888.06 33.956 1883.14 33.956H1880.23V38.876H1883.14C1885.27 38.876 1886.99 40.598 1886.99 42.73C1886.99 43.714 1886.62 44.575 1885.89 45.313ZM1880.23 39.532V46.871L1881.79 46.543C1884.98 45.846 1886.34 44.493 1886.34 42.73C1886.34 40.926 1884.94 39.532 1883.14 39.532H1880.23ZM1874.65 33.956V38.876H1879.57V33.956H1874.65ZM1887.28 50.602L1885.39 45.764C1884.16 46.707 1882.73 47.035 1881.13 47.363L1883.02 52.283C1884.25 51.955 1886.25 51.217 1887.28 50.602ZM1894.05 51.135C1894.05 44.862 1899.14 39.778 1905.41 39.778C1910.41 39.778 1914.64 42.976 1916.15 47.486L1902.83 55.563C1903.61 56.014 1904.47 56.26 1905.41 56.26C1907.46 56.26 1909.22 55.03 1910.04 53.308L1910.66 53.595C1909.76 55.563 1907.75 56.916 1905.41 56.916C1904.22 56.916 1903.11 56.547 1902.21 55.932L1897.78 58.638C1899.71 60.606 1902.42 61.836 1905.41 61.836C1909.67 61.836 1913.41 59.294 1915.13 55.645L1915.7 55.932C1913.9 59.827 1909.96 62.492 1905.41 62.492C1899.14 62.492 1894.05 57.408 1894.05 51.135ZM1894.71 51.135C1894.71 52.324 1894.91 53.431 1895.24 54.497L1899.67 51.791C1899.63 51.586 1899.63 51.34 1899.63 51.135C1899.63 47.937 1902.21 45.354 1905.41 45.354C1906.6 45.354 1907.75 45.723 1908.65 46.338L1913.04 43.673C1911.11 41.664 1908.4 40.434 1905.41 40.434C1899.51 40.434 1894.71 45.231 1894.71 51.135ZM1895.49 55.112C1895.94 56.219 1896.55 57.244 1897.33 58.146L1901.64 55.522C1900.74 54.743 1900.08 53.677 1899.79 52.488L1895.49 55.112ZM1900.29 51.135V51.422L1908.03 46.707C1907.26 46.256 1906.35 46.01 1905.41 46.01C1902.58 46.01 1900.29 48.306 1900.29 51.135ZM1900.37 52.16C1900.61 53.349 1901.31 54.415 1902.25 55.153L1910.45 50.151C1910.21 48.962 1909.55 47.896 1908.61 47.117L1900.37 52.16ZM1909.22 46.789C1910.13 47.568 1910.78 48.593 1911.03 49.823L1915.37 47.158C1914.92 46.051 1914.27 45.067 1913.53 44.165L1909.22 46.789ZM1934.05 42.115V60.155C1936.8 58.474 1938.97 55.071 1938.97 51.135C1938.97 47.199 1936.8 43.796 1934.05 42.115ZM1928.27 39.778C1930.12 39.778 1931.84 40.229 1933.4 41.008V40.27H1934.05V41.377C1936.35 42.648 1938.11 44.944 1938.97 47.322V40.27H1939.63V62H1938.97V54.907C1938.15 57.244 1936.35 59.663 1934.05 60.934V62H1933.4V61.262C1931.84 62.041 1930.12 62.492 1928.27 62.492C1922 62.492 1916.92 57.408 1916.92 51.135C1916.92 44.862 1922 39.778 1928.27 39.778ZM1928.27 61.836C1930.12 61.836 1931.88 61.385 1933.4 60.565V53.841C1932.41 55.645 1930.49 56.916 1928.27 56.916C1925.08 56.916 1922.49 54.333 1922.49 51.135C1922.49 47.937 1925.08 45.354 1928.27 45.354C1930.49 45.354 1932.41 46.625 1933.4 48.47V41.746C1931.88 40.926 1930.12 40.434 1928.27 40.434C1922.37 40.434 1917.57 45.231 1917.57 51.135C1917.57 57.039 1922.37 61.836 1928.27 61.836ZM1928.27 56.26C1931.14 56.26 1933.4 53.964 1933.4 51.135C1933.4 48.306 1931.14 46.01 1928.27 46.01C1925.44 46.01 1923.15 48.306 1923.15 51.135C1923.15 53.964 1925.44 56.26 1928.27 56.26ZM1954.68 45.846V46.502H1953.49C1950.99 46.502 1948.85 48.634 1948.85 51.135C1948.85 53.636 1950.99 55.768 1953.49 55.768H1954.68V56.424H1953.49C1950.62 56.424 1948.2 54.005 1948.2 51.135C1948.2 48.265 1950.62 45.846 1953.49 45.846H1954.68ZM1954.68 40.926H1953.49C1947.87 40.926 1943.28 45.518 1943.28 51.135C1943.28 56.752 1947.87 61.344 1953.49 61.344H1954.68V62H1953.49C1947.5 62 1942.62 57.121 1942.62 51.135C1942.62 45.149 1947.5 40.27 1953.49 40.27H1954.68V40.926Z" fill="white"/>
</g>
<defs>
<clipPath id="clip0_443_857">
<rect width="1940" height="343" fill="white"/>
</clipPath>
</defs>
</svg>
