<svg width="3268" height="11" viewBox="0 0 3268 11" fill="none" xmlns="http://www.w3.org/2000/svg">
<path d="M2 5.2453C8.87266 2.25157 14.5999 2.25157 19.1816 5.2453C23.7634 8.23904 29.4906 8.23904 36.3633 5.2453C43.236 2.25157 48.9632 2.25157 53.5449 5.2453C58.1267 8.23904 63.8539 8.23904 70.7266 5.2453C77.5993 2.25157 83.3265 2.25157 87.9082 5.2453C92.49 8.23904 98.2172 8.23904 105.09 5.2453C111.963 2.25157 117.69 2.25157 122.272 5.2453C126.853 8.23904 132.581 8.23904 139.453 5.2453C146.326 2.25157 152.053 2.25157 156.635 5.2453C161.217 8.23904 166.944 8.23904 173.816 5.2453" stroke="#FF4575" stroke-width="5.99997"/>
<path d="M173.816 5.2453C180.689 2.25157 186.416 2.25157 190.998 5.2453C195.58 8.23904 201.307 8.23904 208.18 5.2453C215.052 2.25157 220.78 2.25157 225.361 5.2453C229.943 8.23904 235.67 8.23904 242.543 5.2453C249.416 2.25157 255.143 2.25157 259.725 5.2453C264.306 8.23904 270.034 8.23904 276.906 5.2453C283.779 2.25157 289.506 2.25157 294.088 5.2453C298.67 8.23904 304.397 8.23904 311.27 5.2453C318.142 2.25157 323.869 2.25157 328.451 5.2453C333.033 8.23904 338.76 8.23904 345.633 5.2453" stroke="#FF4575" stroke-width="5.99997"/>
<path d="M345.633 5.2453C352.505 2.25157 358.233 2.25157 362.814 5.2453C367.396 8.23904 373.123 8.23904 379.996 5.2453C386.869 2.25157 392.596 2.25157 397.178 5.2453C401.76 8.23904 407.487 8.23904 414.359 5.2453C421.232 2.25157 426.959 2.25157 431.541 5.2453C436.123 8.23904 441.85 8.23904 448.723 5.2453C455.595 2.25157 461.323 2.25157 465.904 5.2453C470.486 8.23904 476.213 8.23904 483.086 5.2453C489.959 2.25157 495.686 2.25157 500.268 5.2453C504.849 8.23904 510.577 8.23904 517.449 5.2453" stroke="#FF4575" stroke-width="5.99997"/>
<path d="M517.449 5.2453C524.322 2.25157 530.049 2.25157 534.631 5.2453C539.213 8.23904 544.94 8.23904 551.813 5.2453C558.685 2.25157 564.412 2.25157 568.994 5.2453C573.576 8.23904 579.303 8.23904 586.176 5.2453C593.048 2.25157 598.776 2.25157 603.357 5.2453C607.939 8.23904 613.666 8.23904 620.539 5.2453C627.412 2.25157 633.139 2.25157 637.721 5.2453C642.303 8.23904 648.03 8.23904 654.902 5.2453C661.775 2.25157 667.502 2.25157 672.084 5.2453C676.666 8.23904 682.393 8.23904 689.266 5.2453" stroke="#FF4575" stroke-width="5.99997"/>
<path d="M689.266 5.2453C696.139 2.25157 701.866 2.25157 706.448 5.2453C711.03 8.23904 716.757 8.23904 723.629 5.2453C730.502 2.25157 736.229 2.25157 740.811 5.2453C745.393 8.23904 751.12 8.23904 757.993 5.2453C764.865 2.25157 770.593 2.25157 775.174 5.2453C779.756 8.23904 785.483 8.23904 792.356 5.2453C799.229 2.25157 804.956 2.25157 809.538 5.2453C814.119 8.23904 819.847 8.23904 826.719 5.2453C833.592 2.25157 839.319 2.25157 843.901 5.2453C848.483 8.23904 854.21 8.23904 861.083 5.2453" stroke="#FF4575" stroke-width="5.99997"/>
<path d="M861.083 5.2453C867.955 2.25157 873.682 2.25157 878.264 5.2453C882.846 8.23904 888.573 8.23904 895.446 5.2453C902.318 2.25157 908.046 2.25157 912.627 5.2453C917.209 8.23904 922.936 8.23904 929.809 5.2453C936.682 2.25157 942.409 2.25157 946.991 5.2453C951.573 8.23904 957.3 8.23904 964.172 5.2453C971.045 2.25157 976.772 2.25157 981.354 5.2453C985.936 8.23904 991.663 8.23904 998.536 5.2453C1005.41 2.25157 1011.14 2.25157 1015.72 5.2453C1020.3 8.23904 1026.03 8.23904 1032.9 5.2453" stroke="#FF4575" stroke-width="5.99997"/>
<path d="M1032.9 5.2453C1039.77 2.25157 1045.5 2.25157 1050.08 5.2453C1054.66 8.23904 1060.39 8.23904 1067.26 5.2453C1074.13 2.25157 1079.86 2.25157 1084.44 5.2453C1089.03 8.23904 1094.75 8.23904 1101.63 5.2453C1108.5 2.25157 1114.23 2.25157 1118.81 5.2453C1123.39 8.23904 1129.12 8.23904 1135.99 5.2453C1142.86 2.25157 1148.59 2.25157 1153.17 5.2453C1157.75 8.23904 1163.48 8.23904 1170.35 5.2453C1177.22 2.25157 1182.95 2.25157 1187.53 5.2453C1192.12 8.23904 1197.84 8.23904 1204.72 5.2453" stroke="#FF4575" stroke-width="5.99997"/>
<path d="M1204.72 5.2453C1211.59 2.25157 1217.32 2.25157 1221.9 5.2453C1226.48 8.23904 1232.21 8.23904 1239.08 5.2453C1245.95 2.25157 1251.68 2.25157 1256.26 5.2453C1260.84 8.23904 1266.57 8.23904 1273.44 5.2453C1280.32 2.25157 1286.04 2.25157 1290.62 5.2453C1295.21 8.23904 1300.93 8.23904 1307.81 5.2453C1314.68 2.25157 1320.41 2.25157 1324.99 5.2453C1329.57 8.23904 1335.3 8.23904 1342.17 5.2453C1349.04 2.25157 1354.77 2.25157 1359.35 5.2453C1363.93 8.23904 1369.66 8.23904 1376.53 5.2453" stroke="#FF4575" stroke-width="5.99997"/>
<path d="M1376.53 5.2453C1383.4 2.25157 1389.13 2.25157 1393.71 5.2453C1398.3 8.23904 1404.02 8.23904 1410.9 5.2453C1417.77 2.25157 1423.5 2.25157 1428.08 5.2453C1432.66 8.23904 1438.39 8.23904 1445.26 5.2453C1452.13 2.25157 1457.86 2.25157 1462.44 5.2453C1467.02 8.23904 1472.75 8.23904 1479.62 5.2453C1486.49 2.25157 1492.22 2.25157 1496.8 5.2453C1501.39 8.23904 1507.11 8.23904 1513.99 5.2453C1520.86 2.25157 1526.59 2.25157 1531.17 5.2453C1535.75 8.23904 1541.48 8.23904 1548.35 5.2453" stroke="#FF4575" stroke-width="5.99997"/>
<path d="M1548.35 5.2453C1555.22 2.25157 1560.95 2.25157 1565.53 5.2453C1570.11 8.23904 1575.84 8.23904 1582.71 5.2453C1589.58 2.25157 1595.31 2.25157 1599.89 5.2453C1604.48 8.23904 1610.2 8.23904 1617.08 5.2453C1623.95 2.25157 1629.68 2.25157 1634.26 5.2453C1638.84 8.23904 1644.57 8.23904 1651.44 5.2453C1658.31 2.25157 1664.04 2.25157 1668.62 5.2453C1673.2 8.23904 1678.93 8.23904 1685.8 5.2453C1692.67 2.25157 1698.4 2.25157 1702.98 5.2453C1707.57 8.23904 1713.29 8.23904 1720.17 5.2453" stroke="#FF4575" stroke-width="5.99997"/>
<path d="M1720.17 5.2453C1727.04 2.25157 1732.76 2.25157 1737.35 5.2453C1741.93 8.23904 1747.66 8.23904 1754.53 5.2453C1761.4 2.25157 1767.13 2.25157 1771.71 5.2453C1776.29 8.23904 1782.02 8.23904 1788.89 5.2453C1795.76 2.25157 1801.49 2.25157 1806.07 5.2453C1810.66 8.23904 1816.38 8.23904 1823.25 5.2453C1830.13 2.25157 1835.85 2.25157 1840.44 5.2453C1845.02 8.23904 1850.75 8.23904 1857.62 5.2453C1864.49 2.25157 1870.22 2.25157 1874.8 5.2453C1879.38 8.23904 1885.11 8.23904 1891.98 5.2453" stroke="#FF4575" stroke-width="5.99997"/>
<path d="M1891.98 5.2453C1898.85 2.25157 1904.58 2.25157 1909.16 5.2453C1913.74 8.23904 1919.47 8.23904 1926.34 5.2453C1933.22 2.25157 1938.94 2.25157 1943.53 5.2453C1948.11 8.23904 1953.84 8.23904 1960.71 5.2453C1967.58 2.25157 1973.31 2.25157 1977.89 5.2453C1982.47 8.23904 1988.2 8.23904 1995.07 5.2453C2001.94 2.25157 2007.67 2.25157 2012.25 5.2453C2016.83 8.23904 2022.56 8.23904 2029.43 5.2453C2036.31 2.25157 2042.03 2.25157 2046.62 5.2453C2051.2 8.23904 2056.93 8.23904 2063.8 5.2453" stroke="#FF4575" stroke-width="5.99997"/>
<path d="M2063.8 5.2453C2070.67 2.25157 2076.4 2.25157 2080.98 5.2453C2085.56 8.23904 2091.29 8.23904 2098.16 5.2453C2105.03 2.25157 2110.76 2.25157 2115.34 5.2453C2119.92 8.23904 2125.65 8.23904 2132.52 5.2453C2139.4 2.25157 2145.12 2.25157 2149.71 5.2453C2154.29 8.23904 2160.02 8.23904 2166.89 5.2453C2173.76 2.25157 2179.49 2.25157 2184.07 5.2453C2188.65 8.23904 2194.38 8.23904 2201.25 5.2453C2208.12 2.25157 2213.85 2.25157 2218.43 5.2453C2223.01 8.23904 2228.74 8.23904 2235.61 5.2453" stroke="#FF4575" stroke-width="5.99997"/>
<path d="M2235.61 5.2453C2242.49 2.25157 2248.21 2.25157 2252.8 5.2453C2257.38 8.23904 2263.1 8.23904 2269.98 5.2453C2276.85 2.25157 2282.58 2.25157 2287.16 5.2453C2291.74 8.23904 2297.47 8.23904 2304.34 5.2453C2311.21 2.25157 2316.94 2.25157 2321.52 5.2453C2326.1 8.23904 2331.83 8.23904 2338.7 5.2453C2345.58 2.25157 2351.3 2.25157 2355.89 5.2453C2360.47 8.23904 2366.19 8.23904 2373.07 5.2453C2379.94 2.25157 2385.67 2.25157 2390.25 5.2453C2394.83 8.23904 2400.56 8.23904 2407.43 5.2453" stroke="#FF4575" stroke-width="5.99997"/>
<path d="M2407.43 5.2453C2414.3 2.25157 2420.03 2.25157 2424.61 5.2453C2429.19 8.23904 2434.92 8.23904 2441.79 5.2453C2448.67 2.25157 2454.39 2.25157 2458.98 5.2453C2463.56 8.23904 2469.28 8.23904 2476.16 5.2453C2483.03 2.25157 2488.76 2.25157 2493.34 5.2453C2497.92 8.23904 2503.65 8.23904 2510.52 5.2453C2517.39 2.25157 2523.12 2.25157 2527.7 5.2453C2532.28 8.23904 2538.01 8.23904 2544.88 5.2453C2551.76 2.25157 2557.48 2.25157 2562.07 5.2453C2566.65 8.23904 2572.37 8.23904 2579.25 5.2453" stroke="#FF4575" stroke-width="5.99997"/>
<path d="M2579.25 5.2453C2586.12 2.25157 2591.85 2.25157 2596.43 5.2453C2601.01 8.23904 2606.74 8.23904 2613.61 5.2453C2620.48 2.25157 2626.21 2.25157 2630.79 5.2453C2635.37 8.23904 2641.1 8.23904 2647.97 5.2453C2654.85 2.25157 2660.57 2.25157 2665.16 5.2453C2669.74 8.23904 2675.46 8.23904 2682.34 5.2453C2689.21 2.25157 2694.94 2.25157 2699.52 5.2453C2704.1 8.23904 2709.83 8.23904 2716.7 5.2453C2723.57 2.25157 2729.3 2.25157 2733.88 5.2453C2738.46 8.23904 2744.19 8.23904 2751.06 5.2453" stroke="#FF4575" stroke-width="5.99997"/>
<path d="M2751.06 5.2453C2757.94 2.25157 2763.66 2.25157 2768.25 5.2453C2772.83 8.23904 2778.55 8.23904 2785.43 5.2453C2792.3 2.25157 2798.03 2.25157 2802.61 5.2453C2807.19 8.23904 2812.92 8.23904 2819.79 5.2453C2826.66 2.25157 2832.39 2.25157 2836.97 5.2453C2841.55 8.23904 2847.28 8.23904 2854.15 5.2453C2861.03 2.25157 2866.75 2.25157 2871.34 5.2453C2875.92 8.23904 2881.64 8.23904 2888.52 5.2453C2895.39 2.25157 2901.12 2.25157 2905.7 5.2453C2910.28 8.23904 2916.01 8.23904 2922.88 5.2453" stroke="#FF4575" stroke-width="5.99997"/>
<path d="M2922.88 5.2453C2929.75 2.25157 2935.48 2.25157 2940.06 5.2453C2944.64 8.23904 2950.37 8.23904 2957.24 5.2453C2964.12 2.25157 2969.84 2.25157 2974.43 5.2453C2979.01 8.23904 2984.73 8.23904 2991.61 5.2453C2998.48 2.25157 3004.21 2.25157 3008.79 5.2453C3013.37 8.23904 3019.1 8.23904 3025.97 5.2453C3032.84 2.25157 3038.57 2.25157 3043.15 5.2453C3047.73 8.23904 3053.46 8.23904 3060.33 5.2453C3067.21 2.25157 3072.93 2.25157 3077.51 5.2453C3082.1 8.23904 3087.82 8.23904 3094.7 5.2453" stroke="#FF4575" stroke-width="5.99997"/>
<path d="M3094.7 5.2453C3101.57 2.25157 3107.3 2.25157 3111.88 5.2453C3116.46 8.23904 3122.19 8.23904 3129.06 5.2453C3135.93 2.25157 3141.66 2.25157 3146.24 5.2453C3150.82 8.23904 3156.55 8.23904 3163.42 5.2453C3170.3 2.25157 3176.02 2.25157 3180.6 5.2453C3185.19 8.23904 3190.91 8.23904 3197.79 5.2453C3204.66 2.25157 3210.39 2.25157 3214.97 5.2453C3219.55 8.23904 3225.28 8.23904 3232.15 5.2453C3239.02 2.25157 3244.75 2.25157 3249.33 5.2453C3253.91 8.23904 3259.64 8.23904 3266.51 5.2453" stroke="#FF4575" stroke-width="5.99997"/>
</svg>
