<svg width="179" height="48" viewBox="0 0 179 48" fill="none" xmlns="http://www.w3.org/2000/svg">
<rect width="179" height="48" rx="24" fill="#F5F5F5"/>
<path d="M24.495 39.99C32.97 39.99 39.99 32.985 39.99 24.495C39.99 16.02 32.97 9 24.48 9C16.005 9 9 16.02 9 24.495C9 32.985 16.02 39.99 24.495 39.99ZM15.465 15.06C16.965 13.635 18.78 12.54 20.805 11.94C19.74 13.005 18.84 14.505 18.165 16.335C17.115 16.005 16.215 15.57 15.465 15.06ZM28.2001 11.955C30.21 12.555 32.025 13.635 33.51 15.06C32.775 15.585 31.8751 16.005 30.825 16.35C30.15 14.505 29.25 13.005 28.2001 11.955ZM25.545 12.435C26.79 13.035 27.93 14.655 28.74 16.86C27.75 17.04 26.685 17.145 25.545 17.19V12.435ZM20.25 16.86C21.075 14.655 22.2001 13.035 23.445 12.435V17.19C22.305 17.145 21.24 17.04 20.25 16.86ZM11.445 23.4451C11.655 20.895 12.615 18.54 14.085 16.605C15 17.28 16.185 17.865 17.565 18.3C17.175 19.86 16.92 21.5999 16.845 23.4451H11.445ZM32.145 23.4451C32.07 21.5999 31.815 19.86 31.425 18.3C32.805 17.865 33.99 17.295 34.89 16.605C36.375 18.54 37.335 20.895 37.545 23.4451H32.145ZM18.99 23.4451C19.065 21.81 19.29 20.25 19.635 18.84C20.835 19.08 22.1099 19.23 23.445 19.29V23.4451H18.99ZM25.545 23.4451V19.29C26.88 19.23 28.155 19.08 29.355 18.84C29.7 20.25 29.925 21.81 30 23.4451H25.545ZM11.445 25.545H16.845C16.92 27.42 17.175 29.175 17.565 30.75C16.2 31.185 15.03 31.755 14.13 32.43C12.63 30.4799 11.655 28.11 11.445 25.545ZM18.99 25.545H23.445V29.775C22.125 29.835 20.835 29.985 19.65 30.21C19.29 28.785 19.05 27.195 18.99 25.545ZM25.545 29.775V25.545H30C29.94 27.195 29.7 28.785 29.34 30.21C28.155 29.985 26.88 29.835 25.545 29.775ZM31.425 30.75C31.83 29.175 32.07 27.42 32.145 25.545H37.545C37.335 28.11 36.3601 30.4799 34.86 32.43C33.9601 31.755 32.79 31.185 31.425 30.75ZM25.545 31.875C26.6699 31.9199 27.735 32.025 28.71 32.205C27.9 34.365 26.775 35.97 25.545 36.555V31.875ZM20.28 32.205C21.255 32.025 22.32 31.9199 23.445 31.875V36.555C22.215 35.97 21.09 34.365 20.28 32.205ZM15.51 33.975C16.245 33.465 17.145 33.0451 18.18 32.715C18.855 34.515 19.74 35.985 20.775 37.035C18.795 36.435 16.995 35.3701 15.51 33.975ZM30.81 32.715C31.845 33.0451 32.745 33.465 33.4801 33.975C31.995 35.3701 30.1949 36.435 28.215 37.035C29.25 35.985 30.135 34.515 30.81 32.715Z" fill="#333333"/>
<path d="M56.88 17H59.48V28.8H66.8V31H56.88V17ZM68.6127 20.32H71.1127V31H68.6127V20.32ZM69.8727 18.56C69.4193 18.56 69.0393 18.42 68.7327 18.14C68.426 17.8467 68.2727 17.4867 68.2727 17.06C68.2727 16.6333 68.426 16.28 68.7327 16C69.0393 15.7067 69.4193 15.56 69.8727 15.56C70.326 15.56 70.706 15.7 71.0127 15.98C71.3193 16.2467 71.4727 16.5867 71.4727 17C71.4727 17.44 71.3193 17.8133 71.0127 18.12C70.7193 18.4133 70.3393 18.56 69.8727 18.56ZM84.3939 20.32L79.8139 31H77.2339L72.6539 20.32H75.2539L78.5739 28.24L81.9939 20.32H84.3939ZM95.7034 25.72C95.7034 25.8933 95.6901 26.14 95.6634 26.46H87.2834C87.4301 27.2467 87.8101 27.8733 88.4234 28.34C89.0501 28.7933 89.8234 29.02 90.7434 29.02C91.9168 29.02 92.8834 28.6333 93.6434 27.86L94.9834 29.4C94.5034 29.9733 93.8968 30.4067 93.1634 30.7C92.4301 30.9933 91.6034 31.14 90.6834 31.14C89.5101 31.14 88.4768 30.9067 87.5834 30.44C86.6901 29.9733 85.9968 29.3267 85.5034 28.5C85.0234 27.66 84.7834 26.7133 84.7834 25.66C84.7834 24.62 85.0168 23.6867 85.4834 22.86C85.9634 22.02 86.6234 21.3667 87.4634 20.9C88.3034 20.4333 89.2501 20.2 90.3034 20.2C91.3434 20.2 92.2701 20.4333 93.0834 20.9C93.9101 21.3533 94.5501 22 95.0034 22.84C95.4701 23.6667 95.7034 24.6267 95.7034 25.72ZM90.3034 22.2C89.5034 22.2 88.8234 22.44 88.2634 22.92C87.7168 23.3867 87.3834 24.0133 87.2634 24.8H93.3234C93.2168 24.0267 92.8901 23.4 92.3434 22.92C91.7968 22.44 91.1168 22.2 90.3034 22.2ZM114.092 16.16V31H111.692V29.62C111.279 30.1267 110.766 30.5067 110.152 30.76C109.552 31.0133 108.886 31.14 108.152 31.14C107.126 31.14 106.199 30.9133 105.372 30.46C104.559 30.0067 103.919 29.3667 103.452 28.54C102.986 27.7 102.752 26.74 102.752 25.66C102.752 24.58 102.986 23.6267 103.452 22.8C103.919 21.9733 104.559 21.3333 105.372 20.88C106.199 20.4267 107.126 20.2 108.152 20.2C108.859 20.2 109.506 20.32 110.092 20.56C110.679 20.8 111.179 21.16 111.592 21.64V16.16H114.092ZM108.452 29C109.052 29 109.592 28.8667 110.072 28.6C110.552 28.32 110.932 27.9267 111.212 27.42C111.492 26.9133 111.632 26.3267 111.632 25.66C111.632 24.9933 111.492 24.4067 111.212 23.9C110.932 23.3933 110.552 23.0067 110.072 22.74C109.592 22.46 109.052 22.32 108.452 22.32C107.852 22.32 107.312 22.46 106.832 22.74C106.352 23.0067 105.972 23.3933 105.692 23.9C105.412 24.4067 105.272 24.9933 105.272 25.66C105.272 26.3267 105.412 26.9133 105.692 27.42C105.972 27.9267 106.352 28.32 106.832 28.6C107.312 28.8667 107.852 29 108.452 29ZM127.403 25.72C127.403 25.8933 127.389 26.14 127.363 26.46H118.983C119.129 27.2467 119.509 27.8733 120.123 28.34C120.749 28.7933 121.523 29.02 122.443 29.02C123.616 29.02 124.583 28.6333 125.343 27.86L126.683 29.4C126.203 29.9733 125.596 30.4067 124.863 30.7C124.129 30.9933 123.303 31.14 122.383 31.14C121.209 31.14 120.176 30.9067 119.283 30.44C118.389 29.9733 117.696 29.3267 117.203 28.5C116.723 27.66 116.483 26.7133 116.483 25.66C116.483 24.62 116.716 23.6867 117.183 22.86C117.663 22.02 118.323 21.3667 119.163 20.9C120.003 20.4333 120.949 20.2 122.003 20.2C123.043 20.2 123.969 20.4333 124.783 20.9C125.609 21.3533 126.249 22 126.703 22.84C127.169 23.6667 127.403 24.6267 127.403 25.72ZM122.003 22.2C121.203 22.2 120.523 22.44 119.963 22.92C119.416 23.3867 119.083 24.0133 118.963 24.8H125.023C124.916 24.0267 124.589 23.4 124.043 22.92C123.496 22.44 122.816 22.2 122.003 22.2ZM143.284 20.2C144.631 20.2 145.697 20.5933 146.484 21.38C147.271 22.1533 147.664 23.32 147.664 24.88V31H145.164V25.2C145.164 24.2667 144.957 23.5667 144.544 23.1C144.131 22.62 143.537 22.38 142.764 22.38C141.924 22.38 141.251 22.66 140.744 23.22C140.237 23.7667 139.984 24.5533 139.984 25.58V31H137.484V25.2C137.484 24.2667 137.277 23.5667 136.864 23.1C136.451 22.62 135.857 22.38 135.084 22.38C134.231 22.38 133.551 22.6533 133.044 23.2C132.551 23.7467 132.304 24.54 132.304 25.58V31H129.804V20.32H132.184V21.68C132.584 21.2 133.084 20.8333 133.684 20.58C134.284 20.3267 134.951 20.2 135.684 20.2C136.484 20.2 137.191 20.3533 137.804 20.66C138.431 20.9533 138.924 21.3933 139.284 21.98C139.724 21.42 140.291 20.9867 140.984 20.68C141.677 20.36 142.444 20.2 143.284 20.2ZM155.756 31.14C154.676 31.14 153.703 30.9067 152.836 30.44C151.97 29.9733 151.29 29.3267 150.796 28.5C150.316 27.66 150.076 26.7133 150.076 25.66C150.076 24.6067 150.316 23.6667 150.796 22.84C151.29 22.0133 151.97 21.3667 152.836 20.9C153.703 20.4333 154.676 20.2 155.756 20.2C156.85 20.2 157.83 20.4333 158.696 20.9C159.563 21.3667 160.236 22.0133 160.716 22.84C161.21 23.6667 161.456 24.6067 161.456 25.66C161.456 26.7133 161.21 27.66 160.716 28.5C160.236 29.3267 159.563 29.9733 158.696 30.44C157.83 30.9067 156.85 31.14 155.756 31.14ZM155.756 29C156.676 29 157.436 28.6933 158.036 28.08C158.636 27.4667 158.936 26.66 158.936 25.66C158.936 24.66 158.636 23.8533 158.036 23.24C157.436 22.6267 156.676 22.32 155.756 22.32C154.836 22.32 154.076 22.6267 153.476 23.24C152.89 23.8533 152.596 24.66 152.596 25.66C152.596 26.66 152.89 27.4667 153.476 28.08C154.076 28.6933 154.836 29 155.756 29Z" fill="#333333"/>
</svg>
