<svg width="48" height="48" viewBox="0 0 48 48" fill="none" xmlns="http://www.w3.org/2000/svg">
<g id="Live Demo">
<path id="globe" d="M24.495 39.99C32.97 39.99 39.99 32.985 39.99 24.495C39.99 16.02 32.97 9 24.48 9C16.005 9 9 16.02 9 24.495C9 32.985 16.02 39.99 24.495 39.99ZM15.465 15.06C16.965 13.635 18.78 12.54 20.805 11.94C19.74 13.005 18.84 14.505 18.165 16.335C17.115 16.005 16.215 15.57 15.465 15.06ZM28.2001 11.955C30.21 12.555 32.025 13.635 33.51 15.06C32.775 15.585 31.8751 16.005 30.825 16.35C30.15 14.505 29.25 13.005 28.2001 11.955ZM25.545 12.435C26.79 13.035 27.93 14.655 28.74 16.86C27.75 17.04 26.685 17.145 25.545 17.19V12.435ZM20.25 16.86C21.075 14.655 22.2001 13.035 23.445 12.435V17.19C22.305 17.145 21.24 17.04 20.25 16.86ZM11.445 23.4451C11.655 20.895 12.615 18.54 14.085 16.605C15 17.28 16.185 17.865 17.565 18.3C17.175 19.86 16.92 21.5999 16.845 23.4451H11.445ZM32.145 23.4451C32.07 21.5999 31.815 19.86 31.425 18.3C32.805 17.865 33.99 17.295 34.89 16.605C36.375 18.54 37.335 20.895 37.545 23.4451H32.145ZM18.99 23.4451C19.065 21.81 19.29 20.25 19.635 18.84C20.835 19.08 22.1099 19.23 23.445 19.29V23.4451H18.99ZM25.545 23.4451V19.29C26.88 19.23 28.155 19.08 29.355 18.84C29.7 20.25 29.925 21.81 30 23.4451H25.545ZM11.445 25.545H16.845C16.92 27.42 17.175 29.175 17.565 30.75C16.2 31.185 15.03 31.755 14.13 32.43C12.63 30.4799 11.655 28.11 11.445 25.545ZM18.99 25.545H23.445V29.775C22.125 29.835 20.835 29.985 19.65 30.21C19.29 28.785 19.05 27.195 18.99 25.545ZM25.545 29.775V25.545H30C29.94 27.195 29.7 28.785 29.34 30.21C28.155 29.985 26.88 29.835 25.545 29.775ZM31.425 30.75C31.83 29.175 32.07 27.42 32.145 25.545H37.545C37.335 28.11 36.3601 30.4799 34.86 32.43C33.9601 31.755 32.79 31.185 31.425 30.75ZM25.545 31.875C26.6699 31.9199 27.735 32.025 28.71 32.205C27.9 34.365 26.775 35.97 25.545 36.555V31.875ZM20.28 32.205C21.255 32.025 22.32 31.9199 23.445 31.875V36.555C22.215 35.97 21.09 34.365 20.28 32.205ZM15.51 33.975C16.245 33.465 17.145 33.0451 18.18 32.715C18.855 34.515 19.74 35.985 20.775 37.035C18.795 36.435 16.995 35.3701 15.51 33.975ZM30.81 32.715C31.845 33.0451 32.745 33.465 33.4801 33.975C31.995 35.3701 30.1949 36.435 28.215 37.035C29.25 35.985 30.135 34.515 30.81 32.715Z" fill="#333333"/>
</g>
</svg>
