<svg width="195" height="48" viewBox="0 0 195 48" fill="none" xmlns="http://www.w3.org/2000/svg">
<rect width="195" height="48" rx="24" fill="white"/>
<path d="M14 33.0609C14 35.655 15.2945 37 17.7901 37H30.2099C32.7056 37 34 35.655 34 33.0609V14.939C34 12.357 32.7056 11 30.2099 11H17.7901C15.2945 11 14 12.357 14 14.939V33.0609ZM16.2857 32.9168V15.0831C16.2857 13.9663 16.8455 13.3538 17.9767 13.3538H30.0117C31.1428 13.3538 31.7144 13.9663 31.7144 15.0831V32.9168C31.7144 34.0337 31.1428 34.6462 30.0117 34.6462H17.9767C16.8455 34.6462 16.2857 34.0337 16.2857 32.9168ZM19.7376 18.2896H28.274C28.6939 18.2896 29.0204 17.9533 29.0204 17.521C29.0204 17.1007 28.6939 16.7764 28.274 16.7764H19.7376C19.3061 16.7764 18.9796 17.1007 18.9796 17.521C18.9796 17.9533 19.3061 18.2896 19.7376 18.2896ZM19.7376 22.3968H28.274C28.6939 22.3968 29.0204 22.0605 29.0204 21.6282C29.0204 21.2078 28.6939 20.8836 28.274 20.8836H19.7376C19.3061 20.8836 18.9796 21.2078 18.9796 21.6282C18.9796 22.0605 19.3061 22.3968 19.7376 22.3968ZM19.7376 26.5039H23.8659C24.2857 26.5039 24.6006 26.1797 24.6006 25.7593C24.6006 25.327 24.2857 24.9787 23.8659 24.9787H19.7376C19.3061 24.9787 18.9796 25.327 18.9796 25.7593C18.9796 26.1797 19.3061 26.5039 19.7376 26.5039Z" fill="#333333"/>
<path d="M66.04 31L63.18 26.9C63.06 26.9133 62.88 26.92 62.64 26.92H59.48V31H56.88V17H62.64C63.8533 17 64.9067 17.2 65.8 17.6C66.7067 18 67.4 18.5733 67.88 19.32C68.36 20.0667 68.6 20.9533 68.6 21.98C68.6 23.0333 68.34 23.94 67.82 24.7C67.3133 25.46 66.58 26.0267 65.62 26.4L68.84 31H66.04ZM65.98 21.98C65.98 21.0867 65.6867 20.4 65.1 19.92C64.5133 19.44 63.6533 19.2 62.52 19.2H59.48V24.78H62.52C63.6533 24.78 64.5133 24.54 65.1 24.06C65.6867 23.5667 65.98 22.8733 65.98 21.98ZM81.3089 25.72C81.3089 25.8933 81.2956 26.14 81.2689 26.46H72.8889C73.0356 27.2467 73.4156 27.8733 74.0289 28.34C74.6556 28.7933 75.4289 29.02 76.3489 29.02C77.5222 29.02 78.4889 28.6333 79.2489 27.86L80.5889 29.4C80.1089 29.9733 79.5022 30.4067 78.7689 30.7C78.0356 30.9933 77.2089 31.14 76.2889 31.14C75.1156 31.14 74.0822 30.9067 73.1889 30.44C72.2956 29.9733 71.6022 29.3267 71.1089 28.5C70.6289 27.66 70.3889 26.7133 70.3889 25.66C70.3889 24.62 70.6222 23.6867 71.0889 22.86C71.5689 22.02 72.2289 21.3667 73.0689 20.9C73.9089 20.4333 74.8556 20.2 75.9089 20.2C76.9489 20.2 77.8756 20.4333 78.6889 20.9C79.5156 21.3533 80.1556 22 80.6089 22.84C81.0756 23.6667 81.3089 24.6267 81.3089 25.72ZM75.9089 22.2C75.1089 22.2 74.4289 22.44 73.8689 22.92C73.3222 23.3867 72.9889 24.0133 72.8689 24.8H78.9289C78.8222 24.0267 78.4956 23.4 77.9489 22.92C77.4022 22.44 76.7222 22.2 75.9089 22.2ZM87.4973 20.2C89.0707 20.2 90.2707 20.58 91.0973 21.34C91.9373 22.0867 92.3573 23.22 92.3573 24.74V31H89.9973V29.7C89.6907 30.1667 89.2507 30.5267 88.6773 30.78C88.1173 31.02 87.4373 31.14 86.6373 31.14C85.8373 31.14 85.1373 31.0067 84.5373 30.74C83.9373 30.46 83.4707 30.08 83.1373 29.6C82.8173 29.1067 82.6573 28.5533 82.6573 27.94C82.6573 26.98 83.0107 26.2133 83.7173 25.64C84.4373 25.0533 85.564 24.76 87.0973 24.76H89.8573V24.6C89.8573 23.8533 89.6307 23.28 89.1773 22.88C88.7373 22.48 88.0773 22.28 87.1973 22.28C86.5973 22.28 86.004 22.3733 85.4173 22.56C84.844 22.7467 84.3573 23.0067 83.9573 23.34L82.9773 21.52C83.5373 21.0933 84.2107 20.7667 84.9973 20.54C85.784 20.3133 86.6173 20.2 87.4973 20.2ZM87.1573 29.32C87.784 29.32 88.3373 29.18 88.8173 28.9C89.3107 28.6067 89.6573 28.1933 89.8573 27.66V26.42H87.2773C85.8373 26.42 85.1173 26.8933 85.1173 27.84C85.1173 28.2933 85.2973 28.6533 85.6573 28.92C86.0173 29.1867 86.5173 29.32 87.1573 29.32ZM106.123 16.16V31H103.723V29.62C103.31 30.1267 102.797 30.5067 102.183 30.76C101.583 31.0133 100.917 31.14 100.183 31.14C99.1568 31.14 98.2301 30.9133 97.4034 30.46C96.5901 30.0067 95.9501 29.3667 95.4834 28.54C95.0168 27.7 94.7834 26.74 94.7834 25.66C94.7834 24.58 95.0168 23.6267 95.4834 22.8C95.9501 21.9733 96.5901 21.3333 97.4034 20.88C98.2301 20.4267 99.1568 20.2 100.183 20.2C100.89 20.2 101.537 20.32 102.123 20.56C102.71 20.8 103.21 21.16 103.623 21.64V16.16H106.123ZM100.483 29C101.083 29 101.623 28.8667 102.103 28.6C102.583 28.32 102.963 27.9267 103.243 27.42C103.523 26.9133 103.663 26.3267 103.663 25.66C103.663 24.9933 103.523 24.4067 103.243 23.9C102.963 23.3933 102.583 23.0067 102.103 22.74C101.623 22.46 101.083 22.32 100.483 22.32C99.8834 22.32 99.3434 22.46 98.8634 22.74C98.3834 23.0067 98.0034 23.3933 97.7234 23.9C97.4434 24.4067 97.3034 24.9933 97.3034 25.66C97.3034 26.3267 97.4434 26.9133 97.7234 27.42C98.0034 27.9267 98.3834 28.32 98.8634 28.6C99.3434 28.8667 99.8834 29 100.483 29ZM119.001 20.2C120.575 20.2 121.775 20.58 122.601 21.34C123.441 22.0867 123.861 23.22 123.861 24.74V31H121.501V29.7C121.195 30.1667 120.755 30.5267 120.181 30.78C119.621 31.02 118.941 31.14 118.141 31.14C117.341 31.14 116.641 31.0067 116.041 30.74C115.441 30.46 114.975 30.08 114.641 29.6C114.321 29.1067 114.161 28.5533 114.161 27.94C114.161 26.98 114.515 26.2133 115.221 25.64C115.941 25.0533 117.068 24.76 118.601 24.76H121.361V24.6C121.361 23.8533 121.135 23.28 120.681 22.88C120.241 22.48 119.581 22.28 118.701 22.28C118.101 22.28 117.508 22.3733 116.921 22.56C116.348 22.7467 115.861 23.0067 115.461 23.34L114.481 21.52C115.041 21.0933 115.715 20.7667 116.501 20.54C117.288 20.3133 118.121 20.2 119.001 20.2ZM118.661 29.32C119.288 29.32 119.841 29.18 120.321 28.9C120.815 28.6067 121.161 28.1933 121.361 27.66V26.42H118.781C117.341 26.42 116.621 26.8933 116.621 27.84C116.621 28.2933 116.801 28.6533 117.161 28.92C117.521 29.1867 118.021 29.32 118.661 29.32ZM129.45 21.88C130.17 20.76 131.436 20.2 133.25 20.2V22.58C133.036 22.54 132.843 22.52 132.67 22.52C131.696 22.52 130.936 22.8067 130.39 23.38C129.843 23.94 129.57 24.7533 129.57 25.82V31H127.07V20.32H129.45V21.88ZM142.181 30.42C141.888 30.66 141.528 30.84 141.101 30.96C140.688 31.08 140.248 31.14 139.781 31.14C138.608 31.14 137.701 30.8333 137.061 30.22C136.421 29.6067 136.101 28.7133 136.101 27.54V22.4H134.341V20.4H136.101V17.96H138.601V20.4H141.461V22.4H138.601V27.48C138.601 28 138.728 28.4 138.981 28.68C139.234 28.9467 139.601 29.08 140.081 29.08C140.641 29.08 141.108 28.9333 141.481 28.64L142.181 30.42ZM144.238 20.32H146.738V31H144.238V20.32ZM145.498 18.56C145.044 18.56 144.664 18.42 144.358 18.14C144.051 17.8467 143.898 17.4867 143.898 17.06C143.898 16.6333 144.051 16.28 144.358 16C144.664 15.7067 145.044 15.56 145.498 15.56C145.951 15.56 146.331 15.7 146.638 15.98C146.944 16.2467 147.098 16.5867 147.098 17C147.098 17.44 146.944 17.8133 146.638 18.12C146.344 18.4133 145.964 18.56 145.498 18.56ZM154.919 31.14C153.812 31.14 152.819 30.9067 151.939 30.44C151.059 29.9733 150.372 29.3267 149.879 28.5C149.386 27.66 149.139 26.7133 149.139 25.66C149.139 24.6067 149.386 23.6667 149.879 22.84C150.372 22.0133 151.052 21.3667 151.919 20.9C152.799 20.4333 153.799 20.2 154.919 20.2C155.972 20.2 156.892 20.4133 157.679 20.84C158.479 21.2667 159.079 21.88 159.479 22.68L157.559 23.8C157.252 23.3067 156.866 22.94 156.399 22.7C155.946 22.4467 155.446 22.32 154.899 22.32C153.966 22.32 153.192 22.6267 152.579 23.24C151.966 23.84 151.659 24.6467 151.659 25.66C151.659 26.6733 151.959 27.4867 152.559 28.1C153.172 28.7 153.952 29 154.899 29C155.446 29 155.946 28.88 156.399 28.64C156.866 28.3867 157.252 28.0133 157.559 27.52L159.479 28.64C159.066 29.44 158.459 30.06 157.659 30.5C156.872 30.9267 155.959 31.14 154.919 31.14ZM161.542 16.16H164.042V31H161.542V16.16ZM177.364 25.72C177.364 25.8933 177.35 26.14 177.324 26.46H168.944C169.09 27.2467 169.47 27.8733 170.084 28.34C170.71 28.7933 171.484 29.02 172.404 29.02C173.577 29.02 174.544 28.6333 175.304 27.86L176.644 29.4C176.164 29.9733 175.557 30.4067 174.824 30.7C174.09 30.9933 173.264 31.14 172.344 31.14C171.17 31.14 170.137 30.9067 169.244 30.44C168.35 29.9733 167.657 29.3267 167.164 28.5C166.684 27.66 166.444 26.7133 166.444 25.66C166.444 24.62 166.677 23.6867 167.144 22.86C167.624 22.02 168.284 21.3667 169.124 20.9C169.964 20.4333 170.91 20.2 171.964 20.2C173.004 20.2 173.93 20.4333 174.744 20.9C175.57 21.3533 176.21 22 176.664 22.84C177.13 23.6667 177.364 24.6267 177.364 25.72ZM171.964 22.2C171.164 22.2 170.484 22.44 169.924 22.92C169.377 23.3867 169.044 24.0133 168.924 24.8H174.984C174.877 24.0267 174.55 23.4 174.004 22.92C173.457 22.44 172.777 22.2 171.964 22.2Z" fill="#333333"/>
</svg>
