<svg width="744" height="11" viewBox="0 0 744 11" fill="none" xmlns="http://www.w3.org/2000/svg">
<path d="M0 5.2453C6.87266 2.25157 12.5999 2.25157 17.1816 5.2453C21.7634 8.23904 27.4906 8.23904 34.3633 5.2453C41.236 2.25157 46.9632 2.25157 51.5449 5.2453C56.1267 8.23904 61.8539 8.23904 68.7266 5.2453C75.5993 2.25157 81.3265 2.25157 85.9082 5.2453C90.49 8.23904 96.2172 8.23904 103.09 5.2453C109.963 2.25157 115.69 2.25157 120.272 5.2453C124.853 8.23904 130.581 8.23904 137.453 5.2453C144.326 2.25157 150.053 2.25157 154.635 5.2453C159.217 8.23904 164.944 8.23904 171.816 5.2453" stroke="#FF4575" stroke-width="5.99997"/>
<path d="M171.816 5.2453C178.689 2.25157 184.416 2.25157 188.998 5.2453C193.58 8.23904 199.307 8.23904 206.18 5.2453C213.052 2.25157 218.78 2.25157 223.361 5.2453C227.943 8.23904 233.67 8.23904 240.543 5.2453C247.416 2.25157 253.143 2.25157 257.725 5.2453C262.306 8.23904 268.034 8.23904 274.906 5.2453C281.779 2.25157 287.506 2.25157 292.088 5.2453C296.67 8.23904 302.397 8.23904 309.27 5.2453C316.142 2.25157 321.869 2.25157 326.451 5.2453C331.033 8.23904 336.76 8.23904 343.633 5.2453" stroke="#FF4575" stroke-width="5.99997"/>
<path d="M343.633 5.2453C350.505 2.25157 356.233 2.25157 360.814 5.2453C365.396 8.23904 371.123 8.23904 377.996 5.2453C384.869 2.25157 390.596 2.25157 395.178 5.2453C399.76 8.23904 405.487 8.23904 412.359 5.2453C419.232 2.25157 424.959 2.25157 429.541 5.2453C434.123 8.23904 439.85 8.23904 446.723 5.2453C453.595 2.25157 459.323 2.25157 463.904 5.2453C468.486 8.23904 474.213 8.23904 481.086 5.2453C487.959 2.25157 493.686 2.25157 498.268 5.2453C502.849 8.23904 508.577 8.23904 515.449 5.2453" stroke="#FF4575" stroke-width="5.99997"/>
<path d="M515.449 5.2453C522.322 2.25157 528.049 2.25157 532.631 5.2453C537.213 8.23904 542.94 8.23904 549.813 5.2453C556.685 2.25157 562.412 2.25157 566.994 5.2453C571.576 8.23904 577.303 8.23904 584.176 5.2453C591.048 2.25157 596.776 2.25157 601.357 5.2453C605.939 8.23904 611.666 8.23904 618.539 5.2453C625.412 2.25157 631.139 2.25157 635.721 5.2453C640.303 8.23904 646.03 8.23904 652.902 5.2453C659.775 2.25157 665.502 2.25157 670.084 5.2453C674.666 8.23904 680.393 8.23904 687.266 5.2453" stroke="#FF4575" stroke-width="5.99997"/>
<path d="M687.266 5.2453C694.139 2.25157 699.866 2.25157 704.448 5.2453C709.03 8.23904 714.757 8.23904 721.629 5.2453C728.502 2.25157 734.229 2.25157 738.811 5.2453C743.393 8.23904 749.12 8.23904 755.993 5.2453C762.865 2.25157 768.593 2.25157 773.174 5.2453C777.756 8.23904 783.483 8.23904 790.356 5.2453C797.229 2.25157 802.956 2.25157 807.538 5.2453C812.119 8.23904 817.847 8.23904 824.719 5.2453C831.592 2.25157 837.319 2.25157 841.901 5.2453C846.483 8.23904 852.21 8.23904 859.083 5.2453" stroke="#FF4575" stroke-width="5.99997"/>
</svg>
